G04*
G04 #@! TF.GenerationSoftware,Altium Limited,Altium Designer,22.9.1 (49)*
G04*
G04 Layer_Color=32896*
%FSLAX44Y44*%
%MOMM*%
G71*
G04*
G04 #@! TF.SameCoordinates,024F3706-CBB7-462D-A25A-2E94323683B0*
G04*
G04*
G04 #@! TF.FilePolarity,Positive*
G04*
G01*
G75*
%ADD12C,0.2000*%
%ADD13C,0.1000*%
%ADD59C,0.1500*%
G54D12*
X257500Y380500D02*
G03*
X257500Y380500I-1000J0D01*
G01*
X316200Y264999D02*
Y257858D01*
X315724Y256429D01*
X314772Y255477D01*
X313344Y255001D01*
X312391D01*
X310963Y255477D01*
X310011Y256429D01*
X309535Y257858D01*
Y264999D01*
X302013D02*
X306773Y258334D01*
X299632D01*
X302013Y264999D02*
Y255001D01*
X296000Y396999D02*
Y389858D01*
X295524Y388429D01*
X294572Y387477D01*
X293144Y387001D01*
X292191D01*
X290763Y387477D01*
X289811Y388429D01*
X289335Y389858D01*
Y396999D01*
X285621D02*
X280384D01*
X283241Y393190D01*
X281812D01*
X280860Y392714D01*
X280384Y392238D01*
X279908Y390810D01*
Y389858D01*
X280384Y388429D01*
X281336Y387477D01*
X282765Y387001D01*
X284193D01*
X285621Y387477D01*
X286097Y387953D01*
X286573Y388905D01*
X271000Y204999D02*
Y195001D01*
Y204999D02*
X266715D01*
X265287Y204523D01*
X264811Y204047D01*
X264335Y203095D01*
Y202142D01*
X264811Y201190D01*
X265287Y200714D01*
X266715Y200238D01*
X271000D01*
X267667D02*
X264335Y195001D01*
X262097Y203095D02*
X261145Y203571D01*
X259717Y204999D01*
Y195001D01*
X249052Y203571D02*
X249528Y204523D01*
X250957Y204999D01*
X251909D01*
X253337Y204523D01*
X254289Y203095D01*
X254765Y200714D01*
Y198334D01*
X254289Y196429D01*
X253337Y195477D01*
X251909Y195001D01*
X251433D01*
X250005Y195477D01*
X249052Y196429D01*
X248576Y197858D01*
Y198334D01*
X249052Y199762D01*
X250005Y200714D01*
X251433Y201190D01*
X251909D01*
X253337Y200714D01*
X254289Y199762D01*
X254765Y198334D01*
X168000Y268999D02*
Y259001D01*
Y268999D02*
X163715D01*
X162287Y268523D01*
X161811Y268047D01*
X161335Y267095D01*
Y266142D01*
X161811Y265190D01*
X162287Y264714D01*
X163715Y264238D01*
X168000D01*
X164667D02*
X161335Y259001D01*
X159097Y267095D02*
X158145Y267571D01*
X156717Y268999D01*
Y259001D01*
X146052Y268999D02*
X150813D01*
X151289Y264714D01*
X150813Y265190D01*
X149385Y265666D01*
X147957D01*
X146528Y265190D01*
X145576Y264238D01*
X145100Y262810D01*
Y261858D01*
X145576Y260429D01*
X146528Y259477D01*
X147957Y259001D01*
X149385D01*
X150813Y259477D01*
X151289Y259953D01*
X151765Y260905D01*
X168000Y234999D02*
Y225001D01*
Y234999D02*
X163715D01*
X162287Y234523D01*
X161811Y234047D01*
X161335Y233095D01*
Y232142D01*
X161811Y231190D01*
X162287Y230714D01*
X163715Y230238D01*
X168000D01*
X164667D02*
X161335Y225001D01*
X156717Y234999D02*
X158145Y234523D01*
X158621Y233571D01*
Y232619D01*
X158145Y231666D01*
X157193Y231190D01*
X155288Y230714D01*
X153860Y230238D01*
X152908Y229286D01*
X152432Y228334D01*
Y226905D01*
X152908Y225953D01*
X153384Y225477D01*
X154812Y225001D01*
X156717D01*
X158145Y225477D01*
X158621Y225953D01*
X159097Y226905D01*
Y228334D01*
X158621Y229286D01*
X157669Y230238D01*
X156241Y230714D01*
X154336Y231190D01*
X153384Y231666D01*
X152908Y232619D01*
Y233571D01*
X153384Y234523D01*
X154812Y234999D01*
X156717D01*
X168000Y249999D02*
Y240001D01*
Y249999D02*
X163715D01*
X162287Y249523D01*
X161811Y249047D01*
X161335Y248095D01*
Y247142D01*
X161811Y246190D01*
X162287Y245714D01*
X163715Y245238D01*
X168000D01*
X164667D02*
X161335Y240001D01*
X152432Y249999D02*
X157193Y240001D01*
X159097Y249999D02*
X152432D01*
X231000Y398999D02*
Y389001D01*
Y398999D02*
X226715D01*
X225287Y398523D01*
X224811Y398047D01*
X224335Y397095D01*
Y396142D01*
X224811Y395190D01*
X225287Y394714D01*
X226715Y394238D01*
X231000D01*
X227667D02*
X224335Y389001D01*
X216384Y398999D02*
X221145D01*
X221621Y394714D01*
X221145Y395190D01*
X219717Y395666D01*
X218288D01*
X216860Y395190D01*
X215908Y394238D01*
X215432Y392810D01*
Y391858D01*
X215908Y390429D01*
X216860Y389477D01*
X218288Y389001D01*
X219717D01*
X221145Y389477D01*
X221621Y389953D01*
X222097Y390905D01*
X231000Y355999D02*
Y346001D01*
Y355999D02*
X226715D01*
X225287Y355523D01*
X224811Y355047D01*
X224335Y354095D01*
Y353142D01*
X224811Y352190D01*
X225287Y351714D01*
X226715Y351238D01*
X231000D01*
X227667D02*
X224335Y346001D01*
X217336Y355999D02*
X222097Y349334D01*
X214956D01*
X217336Y355999D02*
Y346001D01*
X276000Y332999D02*
Y323001D01*
Y332999D02*
X271715D01*
X270287Y332523D01*
X269811Y332047D01*
X269335Y331095D01*
Y330142D01*
X269811Y329190D01*
X270287Y328714D01*
X271715Y328238D01*
X276000D01*
X272667D02*
X269335Y323001D01*
X266145Y332999D02*
X260908D01*
X263764Y329190D01*
X262336D01*
X261384Y328714D01*
X260908Y328238D01*
X260432Y326810D01*
Y325858D01*
X260908Y324429D01*
X261860Y323477D01*
X263288Y323001D01*
X264717D01*
X266145Y323477D01*
X266621Y323953D01*
X267097Y324905D01*
X301594Y307999D02*
Y298001D01*
X295881D01*
X294786Y306095D02*
X293834Y306571D01*
X292406Y307999D01*
Y298001D01*
X295000Y184999D02*
Y175001D01*
Y184999D02*
X291667D01*
X290239Y184523D01*
X289287Y183571D01*
X288811Y182619D01*
X288335Y181190D01*
Y178810D01*
X288811Y177381D01*
X289287Y176429D01*
X290239Y175477D01*
X291667Y175001D01*
X295000D01*
X286097Y183095D02*
X285145Y183571D01*
X283717Y184999D01*
Y175001D01*
X342859Y206618D02*
X343335Y207571D01*
X344287Y208523D01*
X345239Y208999D01*
X347144D01*
X348096Y208523D01*
X349048Y207571D01*
X349524Y206618D01*
X350000Y205190D01*
Y202810D01*
X349524Y201381D01*
X349048Y200429D01*
X348096Y199477D01*
X347144Y199001D01*
X345239D01*
X344287Y199477D01*
X343335Y200429D01*
X342859Y201381D01*
X337669Y208999D02*
X339098Y208523D01*
X339574Y207571D01*
Y206618D01*
X339098Y205666D01*
X338145Y205190D01*
X336241Y204714D01*
X334813Y204238D01*
X333861Y203286D01*
X333385Y202334D01*
Y200905D01*
X333861Y199953D01*
X334337Y199477D01*
X335765Y199001D01*
X337669D01*
X339098Y199477D01*
X339574Y199953D01*
X340050Y200905D01*
Y202334D01*
X339574Y203286D01*
X338621Y204238D01*
X337193Y204714D01*
X335289Y205190D01*
X334337Y205666D01*
X333861Y206618D01*
Y207571D01*
X334337Y208523D01*
X335765Y208999D01*
X337669D01*
X322859Y279618D02*
X323335Y280571D01*
X324287Y281523D01*
X325239Y281999D01*
X327144D01*
X328096Y281523D01*
X329048Y280571D01*
X329524Y279618D01*
X330000Y278190D01*
Y275810D01*
X329524Y274382D01*
X329048Y273429D01*
X328096Y272477D01*
X327144Y272001D01*
X325239D01*
X324287Y272477D01*
X323335Y273429D01*
X322859Y274382D01*
X313384Y281999D02*
X318145Y272001D01*
X320050Y281999D02*
X313384D01*
X334859Y300618D02*
X335335Y301571D01*
X336287Y302523D01*
X337239Y302999D01*
X339143D01*
X340096Y302523D01*
X341048Y301571D01*
X341524Y300618D01*
X342000Y299190D01*
Y296810D01*
X341524Y295382D01*
X341048Y294429D01*
X340096Y293477D01*
X339143Y293001D01*
X337239D01*
X336287Y293477D01*
X335335Y294429D01*
X334859Y295382D01*
X326337Y301571D02*
X326813Y302523D01*
X328241Y302999D01*
X329193D01*
X330621Y302523D01*
X331574Y301095D01*
X332050Y298714D01*
Y296334D01*
X331574Y294429D01*
X330621Y293477D01*
X329193Y293001D01*
X328717D01*
X327289Y293477D01*
X326337Y294429D01*
X325861Y295858D01*
Y296334D01*
X326337Y297762D01*
X327289Y298714D01*
X328717Y299190D01*
X329193D01*
X330621Y298714D01*
X331574Y297762D01*
X332050Y296334D01*
X340619Y364141D02*
X341571Y363665D01*
X342523Y362713D01*
X342999Y361761D01*
Y359856D01*
X342523Y358904D01*
X341571Y357952D01*
X340619Y357476D01*
X339190Y357000D01*
X336810D01*
X335382Y357476D01*
X334429Y357952D01*
X333477Y358904D01*
X333001Y359856D01*
Y361761D01*
X333477Y362713D01*
X334429Y363665D01*
X335382Y364141D01*
X342999Y372663D02*
Y367902D01*
X338714Y367426D01*
X339190Y367902D01*
X339666Y369331D01*
Y370759D01*
X339190Y372187D01*
X338238Y373139D01*
X336810Y373615D01*
X335858D01*
X334429Y373139D01*
X333477Y372187D01*
X333001Y370759D01*
Y369331D01*
X333477Y367902D01*
X333953Y367426D01*
X334906Y366950D01*
X263859Y411618D02*
X264335Y412571D01*
X265287Y413523D01*
X266239Y413999D01*
X268144D01*
X269096Y413523D01*
X270048Y412571D01*
X270524Y411618D01*
X271000Y410190D01*
Y407810D01*
X270524Y406381D01*
X270048Y405429D01*
X269096Y404477D01*
X268144Y404001D01*
X266239D01*
X265287Y404477D01*
X264335Y405429D01*
X263859Y406381D01*
X256289Y413999D02*
X261050Y407334D01*
X253908D01*
X256289Y413999D02*
Y404001D01*
X290557Y362789D02*
X291033Y363742D01*
X291985Y364694D01*
X292937Y365170D01*
X294842D01*
X295794Y364694D01*
X296746Y363742D01*
X297222Y362789D01*
X297698Y361361D01*
Y358981D01*
X297222Y357552D01*
X296746Y356600D01*
X295794Y355648D01*
X294842Y355172D01*
X292937D01*
X291985Y355648D01*
X291033Y356600D01*
X290557Y357552D01*
X286796Y365170D02*
X281559D01*
X284415Y361361D01*
X282987D01*
X282035Y360885D01*
X281559Y360409D01*
X281083Y358981D01*
Y358028D01*
X281559Y356600D01*
X282511Y355648D01*
X283939Y355172D01*
X285368D01*
X286796Y355648D01*
X287272Y356124D01*
X287748Y357076D01*
X290903Y377884D02*
X291379Y378836D01*
X292331Y379788D01*
X293283Y380264D01*
X295188D01*
X296140Y379788D01*
X297092Y378836D01*
X297568Y377884D01*
X298044Y376455D01*
Y374075D01*
X297568Y372647D01*
X297092Y371694D01*
X296140Y370742D01*
X295188Y370266D01*
X293283D01*
X292331Y370742D01*
X291379Y371694D01*
X290903Y372647D01*
X287618Y377884D02*
Y378360D01*
X287142Y379312D01*
X286666Y379788D01*
X285714Y380264D01*
X283809D01*
X282857Y379788D01*
X282381Y379312D01*
X281905Y378360D01*
Y377408D01*
X282381Y376455D01*
X283333Y375027D01*
X288094Y370266D01*
X281429D01*
G54D13*
X323750Y211750D02*
X351250D01*
X323750Y224250D02*
X351250D01*
X323750Y211750D02*
Y224250D01*
X351250Y211750D02*
Y224250D01*
X355500Y229000D02*
Y269000D01*
X322500Y229000D02*
Y269000D01*
X355500D01*
X322500Y229000D02*
X355500D01*
X333750Y270750D02*
X361250D01*
X333750Y283250D02*
X361250D01*
X333750Y270750D02*
Y283250D01*
X361250Y270750D02*
Y283250D01*
X346000Y287000D02*
X364000D01*
X346000Y320000D02*
X364000D01*
Y287000D02*
Y320000D01*
X346000Y287000D02*
Y320000D01*
X290000Y311000D02*
Y351000D01*
X342000Y311000D02*
Y351000D01*
X290000Y311000D02*
X342000D01*
X290000Y351000D02*
X342000D01*
X346000Y361000D02*
X364000D01*
X346000Y328000D02*
X364000D01*
X346000D02*
Y361000D01*
X364000Y328000D02*
Y361000D01*
X300750Y368750D02*
X328250D01*
X300750Y381250D02*
X328250D01*
X300750Y368750D02*
Y381250D01*
X328250Y368750D02*
Y381250D01*
X300750Y353750D02*
X328250D01*
X300750Y366250D02*
X328250D01*
X300750Y353750D02*
Y366250D01*
X328250Y353750D02*
Y366250D01*
X236000Y385500D02*
X277000D01*
X236000Y354500D02*
X277000D01*
X236000D02*
Y385500D01*
X277000Y354500D02*
Y385500D01*
X249750Y337750D02*
Y350250D01*
X277250Y337750D02*
Y350250D01*
X249750Y337750D02*
X277250D01*
X249750Y350250D02*
X277250D01*
X243750Y388750D02*
Y401250D01*
X271250Y388750D02*
Y401250D01*
X243750Y388750D02*
X271250D01*
X243750Y401250D02*
X271250D01*
X204750Y358750D02*
Y371250D01*
X232250Y358750D02*
Y371250D01*
X204750Y358750D02*
X232250D01*
X204750Y371250D02*
X232250D01*
X204750Y386250D02*
X232250D01*
X204750Y373750D02*
X232250D01*
Y386250D01*
X204750Y373750D02*
Y386250D01*
X265000Y149600D02*
X279000D01*
X265000Y185600D02*
X279000D01*
Y149600D02*
Y185600D01*
X265000Y149600D02*
Y185600D01*
X173750Y238750D02*
Y251250D01*
X201250Y238750D02*
Y251250D01*
X173750Y238750D02*
X201250D01*
X173750Y251250D02*
X201250D01*
Y223750D02*
Y236250D01*
X173750Y223750D02*
Y236250D01*
X201250D01*
X173750Y223750D02*
X201250D01*
X244250Y193750D02*
Y206250D01*
X216750Y193750D02*
Y206250D01*
X244250D01*
X216750Y193750D02*
X244250D01*
X201250Y257750D02*
Y270250D01*
X173750Y257750D02*
Y270250D01*
X201250D01*
X173750Y257750D02*
X201250D01*
G54D59*
X266000Y187600D02*
X278000D01*
M02*
