G04*
G04 #@! TF.GenerationSoftware,Altium Limited,Altium Designer,22.9.1 (49)*
G04*
G04 Layer_Color=32896*
%FSLAX44Y44*%
%MOMM*%
G71*
G04*
G04 #@! TF.SameCoordinates,024F3706-CBB7-462D-A25A-2E94323683B0*
G04*
G04*
G04 #@! TF.FilePolarity,Positive*
G04*
G01*
G75*
%ADD60C,1.2000*%
G54D60*
X41048Y365000D02*
G03*
X59008Y372439I0J25400D01*
G01*
X67218Y380650D02*
G03*
X74658Y398610I-17960J17960D01*
G01*
X335001Y398951D02*
G03*
X342441Y380990I25400J-0D01*
G01*
X350650Y372782D02*
G03*
X368610Y365342I17960J17961D01*
G01*
X410000Y365000D02*
G03*
X409174Y365342I-826J-825D01*
G01*
X356476Y69818D02*
G03*
X356037Y70000I-439J-439D01*
G01*
X298952Y70000D02*
G03*
X280992Y62561I-0J-25400D01*
G01*
X272439Y54008D02*
G03*
X265000Y36048I17960J-17960D01*
G01*
X145000Y36048D02*
G03*
X137561Y54008I-25400J0D01*
G01*
X129008Y62561D02*
G03*
X111048Y70000I-17960J-17960D01*
G01*
X0Y210000D02*
X53397Y70152D01*
X0Y210000D02*
Y365000D01*
X41048D01*
X59008Y372439D02*
X67218Y380650D01*
X74658Y398610D02*
X74658Y469659D01*
X74998Y470000D01*
X335001D01*
Y398951D02*
Y470000D01*
X342441Y380990D02*
X350650Y372782D01*
X368610Y365342D02*
X409174D01*
X410000Y365000D02*
X410000Y210000D01*
X356476Y69818D02*
X410000Y210000D01*
X298952Y70000D02*
X356037Y70000D01*
X272439Y54008D02*
X280992Y62561D01*
X265000Y32622D02*
Y36048D01*
Y32622D02*
X265000Y61D01*
X144999D02*
X265000D01*
X144999D02*
X145000Y26000D01*
Y36048D01*
X129008Y62561D02*
X137561Y54008D01*
X107622Y70000D02*
X111048D01*
X107622D02*
Y70152D01*
X53397D02*
X107622D01*
M02*
