G04*
G04 #@! TF.GenerationSoftware,Altium Limited,Altium Designer,22.9.1 (49)*
G04*
G04 Layer_Color=16711935*
%FSLAX44Y44*%
%MOMM*%
G71*
G04*
G04 #@! TF.SameCoordinates,AC89A68A-B202-40CF-82E1-916CA4805ACC*
G04*
G04*
G04 #@! TF.FilePolarity,Negative*
G04*
G01*
G75*
%ADD18R,1.0000X1.0000*%
%ADD22R,0.8000X0.8000*%
%ADD27O,1.1000X2.2000*%
%ADD28O,1.1000X1.9000*%
%ADD29C,2.2000*%
%ADD30R,2.2000X2.2000*%
%ADD31R,2.2000X2.2000*%
%ADD32C,0.7080*%
%ADD33C,0.6572*%
%ADD57R,1.2000X1.6000*%
%ADD58R,1.5000X1.1000*%
%ADD59R,1.6000X2.6000*%
%ADD60R,1.3000X0.7000*%
%ADD61R,0.8500X1.2600*%
G54D18*
X345000Y218000D02*
D03*
X330000D02*
D03*
X355000Y277000D02*
D03*
X340000D02*
D03*
X322000Y375000D02*
D03*
X307000D02*
D03*
X322000Y360000D02*
D03*
X307000D02*
D03*
X256000Y344000D02*
D03*
X271000D02*
D03*
X211000Y365000D02*
D03*
X226000D02*
D03*
Y380000D02*
D03*
X211000D02*
D03*
X180000Y245000D02*
D03*
X195000D02*
D03*
Y230000D02*
D03*
X180000D02*
D03*
X238000Y200000D02*
D03*
X223000D02*
D03*
X195000Y264000D02*
D03*
X180000D02*
D03*
G54D22*
X265000Y395000D02*
D03*
X250000D02*
D03*
G54D27*
X161750Y63800D02*
D03*
X248250D02*
D03*
G54D28*
X161750Y22000D02*
D03*
X248250D02*
D03*
G54D29*
X293900Y455000D02*
D03*
X141500Y429600D02*
D03*
X166900D02*
D03*
X192300D02*
D03*
X217700D02*
D03*
X243100D02*
D03*
X268500D02*
D03*
X293900D02*
D03*
X116100Y455000D02*
D03*
X141500D02*
D03*
X166900D02*
D03*
X192300D02*
D03*
X217700D02*
D03*
X243100D02*
D03*
X268500D02*
D03*
X385000Y239200D02*
D03*
Y264600D02*
D03*
Y315400D02*
D03*
Y340800D02*
D03*
Y290000D02*
D03*
G54D30*
X116100Y429600D02*
D03*
G54D31*
X385000Y213800D02*
D03*
G54D32*
X366000Y277000D02*
D03*
X200000Y380000D02*
D03*
X181000Y78000D02*
D03*
X229000D02*
D03*
X272000Y135000D02*
D03*
X319000Y96000D02*
D03*
Y133000D02*
D03*
X297580Y360000D02*
D03*
X368000Y306270D02*
D03*
X45000Y229000D02*
D03*
Y303000D02*
D03*
Y277000D02*
D03*
Y252000D02*
D03*
X368000Y298000D02*
D03*
X345000Y324000D02*
D03*
X358000D02*
D03*
X77000Y128000D02*
D03*
X284000Y360000D02*
D03*
X175000Y316920D02*
D03*
X147000Y307000D02*
D03*
X245000Y333000D02*
D03*
X152000D02*
D03*
X112000Y365600D02*
D03*
X225000Y190000D02*
D03*
X180000Y274000D02*
D03*
X127000Y128000D02*
D03*
X163055Y232006D02*
D03*
X150000Y278000D02*
D03*
X112000Y381000D02*
D03*
X121000Y231000D02*
D03*
X132000D02*
D03*
Y194000D02*
D03*
X305000Y225000D02*
D03*
X293000Y247000D02*
D03*
X304000D02*
D03*
X294000Y404000D02*
D03*
X324000Y265000D02*
D03*
X368000Y354000D02*
D03*
X342000D02*
D03*
X205000Y230000D02*
D03*
X195000Y274000D02*
D03*
X200000Y365000D02*
D03*
X235000Y148000D02*
D03*
X250000D02*
D03*
X330000Y208000D02*
D03*
X316000Y217000D02*
D03*
Y233000D02*
D03*
X336000Y306000D02*
D03*
X332000Y350000D02*
D03*
X289000Y282000D02*
D03*
X304000D02*
D03*
X170000Y148000D02*
D03*
X185000D02*
D03*
X218000Y413000D02*
D03*
X192000D02*
D03*
X117000Y194000D02*
D03*
G54D33*
X193570Y82920D02*
D03*
X201190D02*
D03*
X208810D02*
D03*
X216430Y83005D02*
D03*
X205000Y115000D02*
D03*
X233000Y239000D02*
D03*
X240112D02*
D03*
X208556Y139000D02*
D03*
X201444D02*
D03*
X305000Y190000D02*
D03*
G54D57*
X339000Y260000D02*
D03*
X329500Y238000D02*
D03*
X348500D02*
D03*
G54D58*
X355000Y294000D02*
D03*
Y313000D02*
D03*
Y354000D02*
D03*
Y335000D02*
D03*
G54D59*
X300000Y331000D02*
D03*
X332000D02*
D03*
G54D60*
X245000Y360500D02*
D03*
Y370000D02*
D03*
X268000Y379500D02*
D03*
X245000D02*
D03*
X268000Y370000D02*
D03*
Y360500D02*
D03*
G54D61*
X272000Y178000D02*
D03*
Y156600D02*
D03*
M02*
