G04*
G04 #@! TF.GenerationSoftware,Altium Limited,Altium Designer,22.9.1 (49)*
G04*
G04 Layer_Physical_Order=1*
G04 Layer_Color=255*
%FSLAX44Y44*%
%MOMM*%
G71*
G04*
G04 #@! TF.SameCoordinates,024F3706-CBB7-462D-A25A-2E94323683B0*
G04*
G04*
G04 #@! TF.FilePolarity,Positive*
G04*
G01*
G75*
%ADD12C,0.2000*%
%ADD14R,0.8000X0.8000*%
%ADD22R,0.8000X0.8000*%
%ADD33R,1.2000X0.3000*%
%ADD34R,0.3000X1.2000*%
%ADD35R,0.7200X1.7800*%
%ADD36R,0.6000X1.1400*%
%ADD37R,0.3000X1.1400*%
%ADD38R,0.6000X1.2000*%
%ADD39R,1.2000X1.4000*%
%ADD40R,1.8000X1.0000*%
%ADD41R,1.7000X0.8000*%
%ADD42C,2.0000*%
%ADD43R,2.0000X2.0000*%
%ADD44O,0.9000X2.0000*%
%ADD45O,0.9000X1.7000*%
%ADD46R,2.0000X2.0000*%
%ADD47C,0.5080*%
G36*
X335001Y398951D02*
X335124Y396461D01*
X336095Y391578D01*
X338001Y386977D01*
X340767Y382837D01*
X342441Y380990D01*
X350650Y372782D01*
Y372782D01*
X352497Y371108D01*
X356637Y368341D01*
X361237Y366436D01*
X366121Y365465D01*
X368610Y365342D01*
X409174D01*
X410000Y364367D01*
X410000Y210000D01*
X356929Y71004D01*
X356913Y70976D01*
X356217Y69973D01*
X356098Y69997D01*
X356037Y70000D01*
X298952Y70000D01*
X298952Y70000D01*
X296463Y69878D01*
X291579Y68906D01*
X286979Y67001D01*
X282839Y64234D01*
X280992Y62561D01*
X272439Y54008D01*
X272439Y54008D01*
X270765Y52161D01*
X267999Y48021D01*
X266094Y43421D01*
X265122Y38537D01*
X265000Y36048D01*
Y32622D01*
X265000Y61D01*
X243812D01*
X243739Y149D01*
Y11152D01*
X245009Y11723D01*
X246412Y11141D01*
X246980Y11066D01*
Y22000D01*
Y32933D01*
X246412Y32859D01*
X245009Y32278D01*
X243739Y32848D01*
Y51452D01*
X245009Y52023D01*
X246412Y51441D01*
X246980Y51367D01*
Y63800D01*
Y76234D01*
X246412Y76159D01*
X244700Y75450D01*
X243810Y74767D01*
X242540Y75393D01*
Y77740D01*
X238270D01*
Y69500D01*
X235730D01*
Y77740D01*
X234080D01*
Y79011D01*
X233307Y80878D01*
X231878Y82307D01*
X231473Y82474D01*
X231226Y83720D01*
X235897Y88391D01*
X262460D01*
Y85460D01*
X275540D01*
Y98540D01*
X262460D01*
Y95609D01*
X234402D01*
X233020Y95335D01*
X231849Y94552D01*
X222683Y85386D01*
X221509Y85872D01*
Y86015D01*
X220736Y87882D01*
X219307Y89311D01*
X217440Y90085D01*
X215419D01*
X213552Y89311D01*
X213102Y88861D01*
X212078Y89340D01*
X211952Y90605D01*
X213552Y92205D01*
X214335Y93376D01*
X214351Y93460D01*
X220040D01*
Y110540D01*
X206270D01*
Y102000D01*
X203730D01*
Y110540D01*
X189960D01*
Y93460D01*
X195649D01*
X195665Y93376D01*
X196448Y92205D01*
X198119Y90534D01*
X198014Y89302D01*
X196938Y88736D01*
X196448Y89227D01*
X194580Y90000D01*
X192560D01*
X190692Y89227D01*
X189263Y87798D01*
X188760Y86583D01*
X187317Y86230D01*
X186915Y86632D01*
X185744Y87415D01*
X184428Y87676D01*
X181540Y90564D01*
Y98540D01*
X168460D01*
Y85460D01*
X176436D01*
X178366Y83530D01*
X178230Y82847D01*
X177958Y82142D01*
X176693Y80878D01*
X175920Y79011D01*
Y77740D01*
X174270D01*
Y69500D01*
X171730D01*
Y77740D01*
X167460D01*
Y75393D01*
X166190Y74767D01*
X165300Y75450D01*
X163588Y76159D01*
X163020Y76234D01*
Y63800D01*
Y51367D01*
X163588Y51441D01*
X165140Y52084D01*
X166410Y51601D01*
Y32699D01*
X165140Y32216D01*
X163588Y32859D01*
X163020Y32933D01*
Y22000D01*
Y11066D01*
X163588Y11141D01*
X165140Y11784D01*
X166410Y11301D01*
Y61D01*
X145897D01*
X144999Y959D01*
X145000Y26000D01*
Y36048D01*
X145000D01*
X145000Y36048D01*
X144878Y38537D01*
X143906Y43421D01*
X142001Y48021D01*
X139234Y52161D01*
X137561Y54008D01*
X129008Y62561D01*
X129008Y62561D01*
X127161Y64234D01*
X123021Y67001D01*
X118421Y68906D01*
X113537Y69878D01*
X111048Y70000D01*
X107622Y70000D01*
Y70152D01*
X53397D01*
X0Y210000D01*
Y365000D01*
X41047D01*
X43537Y365122D01*
X48421Y366094D01*
X53021Y367999D01*
X57161Y370765D01*
X59008Y372439D01*
X67218Y380650D01*
X67218D01*
X67218Y380650D01*
X68892Y382497D01*
X71659Y386637D01*
X73564Y391237D01*
X74535Y396121D01*
X74658Y398610D01*
X74658Y469659D01*
X74998Y470000D01*
X335001D01*
Y398951D01*
D02*
G37*
%LPC*%
G36*
X295551Y451540D02*
X292249D01*
X289060Y450685D01*
X286200Y449035D01*
X283866Y446700D01*
X282215Y443840D01*
X281857Y442507D01*
X280543D01*
X280185Y443840D01*
X278535Y446700D01*
X276200Y449035D01*
X273340Y450685D01*
X270151Y451540D01*
X266849D01*
X263660Y450685D01*
X260800Y449035D01*
X258465Y446700D01*
X256815Y443840D01*
X256457Y442507D01*
X255143D01*
X254785Y443840D01*
X253134Y446700D01*
X250800Y449035D01*
X247940Y450685D01*
X244751Y451540D01*
X241449D01*
X238260Y450685D01*
X235400Y449035D01*
X233065Y446700D01*
X231415Y443840D01*
X231057Y442507D01*
X229743D01*
X229385Y443840D01*
X227735Y446700D01*
X225400Y449035D01*
X222540Y450685D01*
X219351Y451540D01*
X218970D01*
Y439000D01*
Y426460D01*
X219351D01*
X222540Y427315D01*
X225400Y428965D01*
X227735Y431300D01*
X229385Y434160D01*
X229743Y435493D01*
X231057D01*
X231415Y434160D01*
X233065Y431300D01*
X235400Y428965D01*
X238260Y427315D01*
X241391Y426476D01*
Y408640D01*
X238860D01*
Y408640D01*
X238440D01*
Y408640D01*
X226160D01*
Y385760D01*
X229216D01*
X229929Y384040D01*
X231410Y382110D01*
X233340Y380629D01*
X235588Y379698D01*
X238000Y379380D01*
Y379391D01*
X265000D01*
X265043Y379399D01*
X267175Y379118D01*
X269202Y378279D01*
X270943Y376943D01*
X272279Y375202D01*
X273118Y373175D01*
X273399Y371043D01*
X273391Y371000D01*
Y360440D01*
X265110D01*
X264260Y360440D01*
X262990Y360440D01*
X261309D01*
Y366300D01*
X261328D01*
X260976Y368973D01*
X259945Y371464D01*
X258303Y373603D01*
X256164Y375245D01*
X253673Y376276D01*
X251000Y376628D01*
Y376609D01*
X232000D01*
Y376640D01*
X231745Y376745D01*
X231640Y377000D01*
X231609D01*
X231586Y377115D01*
X231356Y378864D01*
X230637Y380601D01*
X229492Y382092D01*
X228001Y383237D01*
X226264Y383956D01*
X224515Y384187D01*
X224400Y384209D01*
X221540D01*
Y387140D01*
X208460D01*
Y384209D01*
X202975D01*
X202878Y384307D01*
X201010Y385080D01*
X198990D01*
X197122Y384307D01*
X195693Y382878D01*
X194920Y381011D01*
Y378989D01*
X195693Y377122D01*
X197122Y375693D01*
X198990Y374920D01*
X201010D01*
X202878Y375693D01*
X204175Y376991D01*
X208460D01*
Y374060D01*
X221540D01*
Y376991D01*
X223196D01*
X224331Y376991D01*
X224349Y376949D01*
X224400Y376927D01*
X224563Y375725D01*
X224654Y375032D01*
X225414Y373198D01*
X226622Y371622D01*
X228197Y370414D01*
X230032Y369654D01*
X231937Y369403D01*
X232000Y369391D01*
X251000D01*
X251004Y369392D01*
X252183Y369157D01*
X253187Y368487D01*
X253857Y367483D01*
X254091Y366304D01*
X254091Y366300D01*
Y361338D01*
X253193Y360440D01*
X251560Y360440D01*
X250290Y360440D01*
X246270D01*
Y349000D01*
X243730D01*
Y360440D01*
X239710D01*
X238860Y360440D01*
X237590Y360440D01*
X226160D01*
Y337560D01*
X228691D01*
Y335822D01*
X228691Y335812D01*
X228691Y335803D01*
X228562Y334586D01*
X228366Y333099D01*
X227323Y330579D01*
X225721Y328492D01*
X225640Y328437D01*
X224678Y327694D01*
X224140Y327281D01*
X222390Y326556D01*
X221721Y326468D01*
X220496Y326359D01*
Y326359D01*
X215796Y325896D01*
X211263Y324521D01*
X207084Y322288D01*
X203422Y319282D01*
X200417Y315620D01*
X199841Y314543D01*
X198609Y314852D01*
Y336343D01*
X198623D01*
X198291Y339714D01*
X197308Y342956D01*
X195711Y345943D01*
X193562Y348562D01*
X193562Y348562D01*
X192782Y349509D01*
X191931Y350619D01*
X190924Y353049D01*
X190592Y355570D01*
X190609Y355657D01*
Y369000D01*
X190620D01*
X190301Y372242D01*
X189355Y375360D01*
X187819Y378234D01*
X185752Y380752D01*
X183234Y382819D01*
X180360Y384355D01*
X179915Y384490D01*
X180103Y385760D01*
X183840D01*
Y408640D01*
X172410D01*
X171560Y408640D01*
X170290Y408640D01*
X168609D01*
Y426476D01*
X171740Y427315D01*
X174600Y428965D01*
X176935Y431300D01*
X178585Y434160D01*
X178943Y435493D01*
X180257D01*
X180615Y434160D01*
X182265Y431300D01*
X184600Y428965D01*
X187460Y427315D01*
X190649Y426460D01*
X191030D01*
Y439000D01*
Y451540D01*
X190649D01*
X187460Y450685D01*
X184600Y449035D01*
X182265Y446700D01*
X180615Y443840D01*
X180257Y442507D01*
X178943D01*
X178585Y443840D01*
X176935Y446700D01*
X174600Y449035D01*
X171740Y450685D01*
X168551Y451540D01*
X165249D01*
X162060Y450685D01*
X159200Y449035D01*
X156866Y446700D01*
X155215Y443840D01*
X154857Y442507D01*
X153543D01*
X153185Y443840D01*
X151535Y446700D01*
X149200Y449035D01*
X146340Y450685D01*
X143151Y451540D01*
X139849D01*
X136660Y450685D01*
X133800Y449035D01*
X131466Y446700D01*
X130517Y445056D01*
X128855Y444719D01*
X128640Y444882D01*
Y451540D01*
X103560D01*
Y426460D01*
X128640D01*
Y433118D01*
X128855Y433281D01*
X130517Y432944D01*
X131466Y431300D01*
X133800Y428965D01*
X136660Y427315D01*
X139849Y426460D01*
X143151D01*
X146340Y427315D01*
X146402Y427297D01*
X147076Y426036D01*
X148319Y421939D01*
X148722Y417839D01*
X148691Y417679D01*
Y409538D01*
X147793Y408640D01*
X146160Y408640D01*
X144890Y408640D01*
X133460D01*
Y385760D01*
X136334D01*
X136937Y384306D01*
X135965Y383334D01*
X134525Y383930D01*
X132400Y384210D01*
Y384209D01*
X128540D01*
Y387140D01*
X115460D01*
Y386384D01*
X114190Y385591D01*
X113011Y386080D01*
X110990D01*
X109122Y385307D01*
X107693Y383878D01*
X106920Y382010D01*
Y379990D01*
X107693Y378122D01*
X109122Y376693D01*
X110990Y375920D01*
X113011D01*
X114190Y376409D01*
X115460Y375616D01*
Y374060D01*
X128540D01*
Y376991D01*
X132400D01*
X132431Y376997D01*
X132579Y376936D01*
X133386Y376000D01*
X133680Y373771D01*
X134540Y371693D01*
X135909Y369909D01*
X137693Y368540D01*
X139771Y367680D01*
X142000Y367386D01*
Y367391D01*
X159000D01*
Y367379D01*
X159910Y367198D01*
X160682Y366682D01*
X161198Y365910D01*
X161379Y365000D01*
X161391D01*
Y361338D01*
X160493Y360440D01*
X158860Y360440D01*
X157590Y360440D01*
X153570D01*
Y349000D01*
X151030D01*
Y360440D01*
X147010D01*
X146160Y360440D01*
X144890Y360440D01*
X133460D01*
Y337560D01*
X135991D01*
Y332400D01*
X135948D01*
X136393Y329022D01*
X137697Y325874D01*
X139771Y323171D01*
X142474Y321097D01*
X145622Y319793D01*
X149000Y319348D01*
Y319391D01*
X169382D01*
X170087Y318335D01*
X170028Y318190D01*
X175000D01*
Y315650D01*
X170028D01*
X170375Y314810D01*
X169536Y313540D01*
X168460D01*
Y308270D01*
X175000D01*
Y305730D01*
X168460D01*
Y300460D01*
X174627D01*
X175641Y299190D01*
X175518Y298644D01*
X175289Y298540D01*
X165960D01*
Y296933D01*
X164690Y296548D01*
X164034Y297529D01*
X163704Y299190D01*
X164568Y300460D01*
X166540D01*
Y313540D01*
X153460D01*
Y310609D01*
X150575D01*
X149878Y311307D01*
X148011Y312080D01*
X145990D01*
X144122Y311307D01*
X142693Y309878D01*
X141920Y308011D01*
Y305989D01*
X142693Y304122D01*
X144122Y302693D01*
X145990Y301920D01*
X148011D01*
X149878Y302693D01*
X150575Y303391D01*
X153460D01*
Y300460D01*
X155264D01*
X156343Y300000D01*
X156809Y296465D01*
X158173Y293172D01*
X160343Y290343D01*
X163172Y288173D01*
X165960Y287018D01*
Y281460D01*
X174041D01*
Y290000D01*
X175959D01*
Y281460D01*
X181439D01*
X181925Y280287D01*
X180718Y279080D01*
X178990D01*
X177122Y278307D01*
X175693Y276878D01*
X174920Y275011D01*
Y272990D01*
X175693Y271122D01*
X177122Y269693D01*
X178990Y268920D01*
X181010D01*
X182878Y269693D01*
X184307Y271122D01*
X185080Y272990D01*
Y273233D01*
X192052Y280205D01*
X192835Y281376D01*
X192851Y281460D01*
X249040D01*
Y286391D01*
X284410D01*
X284937Y285121D01*
X284693Y284878D01*
X283920Y283011D01*
Y280989D01*
X284409Y279810D01*
X283616Y278540D01*
X282460D01*
Y273609D01*
X273540D01*
Y274040D01*
X256460D01*
Y265960D01*
Y265959D01*
X265000D01*
X273540D01*
Y266391D01*
X282460D01*
Y265460D01*
X295540D01*
Y268391D01*
X297460D01*
Y265460D01*
X310540D01*
Y278540D01*
X309384D01*
X308591Y279810D01*
X309080Y280989D01*
Y283011D01*
X308307Y284878D01*
X308064Y285121D01*
X308590Y286391D01*
X319000D01*
X319167Y286424D01*
X321471Y285966D01*
X323566Y284566D01*
X324966Y282471D01*
X325217Y281207D01*
X325368Y280000D01*
X325368D01*
X325734Y276287D01*
X326817Y272717D01*
X328114Y270290D01*
X328552Y269190D01*
X328552Y269190D01*
Y269190D01*
X327735Y268450D01*
X327635Y268549D01*
X326878Y269307D01*
X325010Y270080D01*
X322990D01*
X321122Y269307D01*
X319693Y267878D01*
X318920Y266010D01*
Y263990D01*
X319693Y262122D01*
X321122Y260693D01*
X322990Y259920D01*
X325010D01*
X326878Y260693D01*
X328307Y262122D01*
X329080Y263990D01*
Y266010D01*
X328476Y267469D01*
X328411Y267625D01*
X329312Y268165D01*
X330229Y267412D01*
X330943Y266543D01*
X333827Y264176D01*
X337117Y262417D01*
X340687Y261334D01*
X344400Y260968D01*
Y260991D01*
X372985D01*
X373315Y259760D01*
X374966Y256900D01*
X377300Y254566D01*
X380160Y252915D01*
X381493Y252557D01*
Y251243D01*
X380160Y250885D01*
X377300Y249235D01*
X374966Y246900D01*
X373315Y244040D01*
X372985Y242809D01*
X308653D01*
X308167Y243983D01*
X308307Y244122D01*
X308972Y245730D01*
X304000D01*
Y248270D01*
X308972D01*
X308591Y249190D01*
X309384Y250460D01*
X310540D01*
Y255730D01*
X304000D01*
X297460D01*
Y252208D01*
X296190Y251564D01*
X295540Y252003D01*
Y255730D01*
X289000D01*
Y257000D01*
X287730D01*
Y263540D01*
X282460D01*
Y258598D01*
X281190Y258345D01*
X280586Y259802D01*
X279378Y261378D01*
X277803Y262586D01*
X275968Y263346D01*
X274063Y263597D01*
X274000Y263609D01*
X273540D01*
Y264041D01*
X265000D01*
X256460D01*
Y258609D01*
X252675D01*
X252307Y259498D01*
X250878Y260927D01*
X249011Y261700D01*
X246990D01*
X245122Y260927D01*
X243693Y259498D01*
X242920Y257631D01*
Y255609D01*
X243693Y253742D01*
X244626Y252810D01*
X243693Y251878D01*
X242920Y250011D01*
Y247990D01*
X243693Y246122D01*
X245122Y244693D01*
X246990Y243920D01*
X249011D01*
X250878Y244693D01*
X252307Y246122D01*
X252418Y246391D01*
X256460D01*
Y240960D01*
Y230960D01*
Y220960D01*
Y210960D01*
Y200960D01*
Y190960D01*
X273540D01*
Y195960D01*
Y205960D01*
Y215960D01*
Y225960D01*
Y235303D01*
X274601Y236192D01*
X274810Y236237D01*
X275301Y236140D01*
X276403Y235403D01*
X277140Y234300D01*
X277395Y233019D01*
X277391Y233000D01*
Y224000D01*
X277352D01*
X277783Y220726D01*
X279046Y217676D01*
X281056Y215056D01*
X283460Y213212D01*
Y208460D01*
X286391D01*
Y206540D01*
X283460D01*
Y193460D01*
X296540D01*
Y206540D01*
X293609D01*
Y208460D01*
X296540D01*
Y221540D01*
X285230D01*
X284976Y221919D01*
X284586Y223882D01*
X284609Y224000D01*
Y233000D01*
X284631D01*
X284269Y235751D01*
X283538Y237516D01*
X284537Y238422D01*
X286978Y237117D01*
X290813Y235954D01*
X294800Y235562D01*
Y235591D01*
X310432D01*
X311137Y234535D01*
X310920Y234011D01*
Y231989D01*
X311693Y230122D01*
X313122Y228693D01*
X314989Y227920D01*
X317010D01*
X318878Y228693D01*
X320307Y230122D01*
X321080Y231989D01*
Y234011D01*
X320863Y234535D01*
X321568Y235591D01*
X372985D01*
X373315Y234360D01*
X374966Y231500D01*
X377300Y229165D01*
X378944Y228217D01*
X379281Y226556D01*
X379118Y226340D01*
X372460D01*
Y201260D01*
X397540D01*
Y226340D01*
X390882D01*
X390719Y226556D01*
X391056Y228217D01*
X392700Y229165D01*
X395034Y231500D01*
X396685Y234360D01*
X397540Y237549D01*
Y240851D01*
X396685Y244040D01*
X395034Y246900D01*
X392700Y249235D01*
X389840Y250885D01*
X388507Y251243D01*
Y252557D01*
X389840Y252915D01*
X392700Y254566D01*
X395034Y256900D01*
X396685Y259760D01*
X397540Y262949D01*
Y266251D01*
X396685Y269440D01*
X395034Y272300D01*
X392700Y274634D01*
X389840Y276285D01*
X388507Y276643D01*
Y277957D01*
X389840Y278315D01*
X392700Y279965D01*
X395034Y282300D01*
X396685Y285160D01*
X397540Y288349D01*
Y291651D01*
X396685Y294840D01*
X395034Y297700D01*
X392700Y300035D01*
X389840Y301685D01*
X388507Y302043D01*
Y303357D01*
X389840Y303715D01*
X392700Y305366D01*
X395034Y307700D01*
X396685Y310560D01*
X397540Y313749D01*
Y317051D01*
X396685Y320240D01*
X395034Y323100D01*
X392700Y325434D01*
X389840Y327085D01*
X388507Y327443D01*
Y328757D01*
X389840Y329115D01*
X392700Y330765D01*
X395034Y333100D01*
X396685Y335960D01*
X397540Y339149D01*
Y339530D01*
X385000D01*
X372460D01*
Y339149D01*
X373315Y335960D01*
X374966Y333100D01*
X377300Y330765D01*
X380160Y329115D01*
X381493Y328757D01*
Y327443D01*
X380160Y327085D01*
X377300Y325434D01*
X374966Y323100D01*
X373315Y320240D01*
X372985Y319009D01*
X361990D01*
X361464Y320279D01*
X362307Y321122D01*
X363080Y322990D01*
Y325010D01*
X362307Y326878D01*
X360878Y328307D01*
X359011Y329080D01*
X356990D01*
X355122Y328307D01*
X353693Y326878D01*
X352920Y325010D01*
Y322990D01*
X353693Y321122D01*
X354537Y320279D01*
X354010Y319009D01*
X348990D01*
X348464Y320279D01*
X349307Y321122D01*
X350080Y322990D01*
Y325010D01*
X349307Y326878D01*
X347878Y328307D01*
X346011Y329080D01*
X343989D01*
X342122Y328307D01*
X340693Y326878D01*
X339920Y325010D01*
Y322990D01*
X340693Y321122D01*
X341536Y320279D01*
X341010Y319009D01*
X334400D01*
X334259Y318981D01*
X332588Y318761D01*
X330900Y318062D01*
X329450Y316950D01*
X328338Y315500D01*
X327639Y313812D01*
X327419Y312141D01*
X327391Y312000D01*
X327360D01*
X327255Y311745D01*
X327000Y311640D01*
Y311609D01*
X276373D01*
X275965Y312812D01*
X276657Y313343D01*
X278827Y316172D01*
X280191Y319465D01*
X280657Y323000D01*
X280609D01*
Y354547D01*
X281879Y355380D01*
X282990Y354920D01*
X285011D01*
X286878Y355693D01*
X287575Y356391D01*
X294005D01*
X294702Y355693D01*
X296569Y354920D01*
X298591D01*
X300458Y355693D01*
X301887Y357122D01*
X302660Y358989D01*
Y361011D01*
X301887Y362878D01*
X300458Y364307D01*
X298591Y365080D01*
X296569D01*
X294702Y364307D01*
X294005Y363609D01*
X287575D01*
X286878Y364307D01*
X285011Y365080D01*
X282990D01*
X281879Y364620D01*
X280609Y365453D01*
Y371000D01*
X280615D01*
X280315Y374046D01*
X279426Y376976D01*
X277983Y379675D01*
X276042Y382042D01*
X273675Y383983D01*
X272728Y384490D01*
X273046Y385760D01*
X276540D01*
Y408640D01*
X264260D01*
Y408640D01*
X263840D01*
Y408640D01*
X261309D01*
Y417679D01*
X261278Y417839D01*
X261681Y421939D01*
X262924Y426036D01*
X263598Y427297D01*
X263660Y427315D01*
X266849Y426460D01*
X270151D01*
X273340Y427315D01*
X276200Y428965D01*
X278535Y431300D01*
X280185Y434160D01*
X280543Y435493D01*
X281857D01*
X282215Y434160D01*
X283866Y431300D01*
X286200Y428965D01*
X289060Y427315D01*
X292249Y426460D01*
X295551D01*
X298740Y427315D01*
X301600Y428965D01*
X303934Y431300D01*
X305585Y434160D01*
X306440Y437349D01*
Y440651D01*
X305585Y443840D01*
X303934Y446700D01*
X301600Y449035D01*
X298740Y450685D01*
X295551Y451540D01*
D02*
G37*
G36*
X216430D02*
X216049D01*
X212860Y450685D01*
X210000Y449035D01*
X207666Y446700D01*
X206015Y443840D01*
X205657Y442507D01*
X204343D01*
X203985Y443840D01*
X202334Y446700D01*
X200000Y449035D01*
X197140Y450685D01*
X193951Y451540D01*
X193570D01*
Y439000D01*
Y426460D01*
X193951D01*
X197140Y427315D01*
X200000Y428965D01*
X202334Y431300D01*
X203985Y434160D01*
X204343Y435493D01*
X205657D01*
X206015Y434160D01*
X207666Y431300D01*
X210000Y428965D01*
X212860Y427315D01*
X216049Y426460D01*
X216430D01*
Y439000D01*
Y451540D01*
D02*
G37*
G36*
X219270Y422972D02*
Y419270D01*
X222973D01*
X222307Y420878D01*
X220878Y422307D01*
X219270Y422972D01*
D02*
G37*
G36*
X216730D02*
X215122Y422307D01*
X213693Y420878D01*
X213027Y419270D01*
X216730D01*
Y422972D01*
D02*
G37*
G36*
X193270D02*
Y419270D01*
X196973D01*
X196307Y420878D01*
X194878Y422307D01*
X193270Y422972D01*
D02*
G37*
G36*
X190730D02*
X189122Y422307D01*
X187693Y420878D01*
X187027Y419270D01*
X190730D01*
Y422972D01*
D02*
G37*
G36*
X222973Y416730D02*
X219270D01*
Y413027D01*
X220878Y413693D01*
X222307Y415122D01*
X222973Y416730D01*
D02*
G37*
G36*
X216730D02*
X213027D01*
X213693Y415122D01*
X215122Y413693D01*
X216730Y413027D01*
Y416730D01*
D02*
G37*
G36*
X196973D02*
X193270D01*
Y413027D01*
X194878Y413693D01*
X196307Y415122D01*
X196973Y416730D01*
D02*
G37*
G36*
X190730D02*
X187027D01*
X187693Y415122D01*
X189122Y413693D01*
X190730Y413027D01*
Y416730D01*
D02*
G37*
G36*
X295270Y408973D02*
Y405270D01*
X298972D01*
X298307Y406878D01*
X296878Y408307D01*
X295270Y408973D01*
D02*
G37*
G36*
X292730D02*
X291122Y408307D01*
X289693Y406878D01*
X289028Y405270D01*
X292730D01*
Y408973D01*
D02*
G37*
G36*
X298972Y402730D02*
X295270D01*
Y399027D01*
X296878Y399693D01*
X298307Y401122D01*
X298972Y402730D01*
D02*
G37*
G36*
X292730D02*
X289028D01*
X289693Y401122D01*
X291122Y399693D01*
X292730Y399027D01*
Y402730D01*
D02*
G37*
G36*
X120730Y372140D02*
X115460D01*
Y370984D01*
X114190Y370191D01*
X113270Y370573D01*
Y365600D01*
Y360628D01*
X114190Y361008D01*
X115460Y360216D01*
Y359060D01*
X120730D01*
Y365600D01*
Y372140D01*
D02*
G37*
G36*
X221540D02*
X216270D01*
Y366870D01*
X221540D01*
Y372140D01*
D02*
G37*
G36*
X128540D02*
X123270D01*
Y366870D01*
X128540D01*
Y372140D01*
D02*
G37*
G36*
X110730Y370573D02*
X109122Y369907D01*
X107693Y368478D01*
X107028Y366870D01*
X110730D01*
Y370573D01*
D02*
G37*
G36*
X213730Y372140D02*
X208460D01*
Y366870D01*
X213730D01*
Y372140D01*
D02*
G37*
G36*
X201270Y369972D02*
Y366270D01*
X204972D01*
X204307Y367878D01*
X202878Y369307D01*
X201270Y369972D01*
D02*
G37*
G36*
X198730D02*
X197122Y369307D01*
X195693Y367878D01*
X195028Y366270D01*
X198730D01*
Y369972D01*
D02*
G37*
G36*
X110730Y364330D02*
X107028D01*
X107693Y362722D01*
X109122Y361293D01*
X110730Y360628D01*
Y364330D01*
D02*
G37*
G36*
X204972Y363730D02*
X201270D01*
Y360028D01*
X202878Y360693D01*
X204307Y362122D01*
X204972Y363730D01*
D02*
G37*
G36*
X198730D02*
X195028D01*
X195693Y362122D01*
X197122Y360693D01*
X198730Y360028D01*
Y363730D01*
D02*
G37*
G36*
X221540Y364330D02*
X216270D01*
Y359060D01*
X221540D01*
Y364330D01*
D02*
G37*
G36*
X213730D02*
X208460D01*
Y359060D01*
X213730D01*
Y364330D01*
D02*
G37*
G36*
X128540D02*
X123270D01*
Y359060D01*
X128540D01*
Y364330D01*
D02*
G37*
G36*
X369270Y358973D02*
Y355270D01*
X372972D01*
X372307Y356878D01*
X370878Y358307D01*
X369270Y358973D01*
D02*
G37*
G36*
X366730D02*
X365122Y358307D01*
X363693Y356878D01*
X363027Y355270D01*
X366730D01*
Y358973D01*
D02*
G37*
G36*
X343270D02*
Y355270D01*
X346973D01*
X346307Y356878D01*
X344878Y358307D01*
X343270Y358973D01*
D02*
G37*
G36*
X340730D02*
X339122Y358307D01*
X337693Y356878D01*
X336920Y355010D01*
Y354060D01*
X335650Y353534D01*
X334878Y354307D01*
X333010Y355080D01*
X330989D01*
X329122Y354307D01*
X327693Y352878D01*
X326920Y351011D01*
Y348989D01*
X327693Y347122D01*
X329122Y345693D01*
X330989Y344920D01*
X333010D01*
X334878Y345693D01*
X336307Y347122D01*
X337080Y348989D01*
Y349940D01*
X338350Y350466D01*
X339122Y349693D01*
X340730Y349027D01*
Y354000D01*
Y358973D01*
D02*
G37*
G36*
X372972Y352730D02*
X369270D01*
Y349027D01*
X370878Y349693D01*
X372307Y351122D01*
X372972Y352730D01*
D02*
G37*
G36*
X366730D02*
X363027D01*
X363693Y351122D01*
X365122Y349693D01*
X366730Y349027D01*
Y352730D01*
D02*
G37*
G36*
X346973D02*
X343270D01*
Y349027D01*
X344878Y349693D01*
X346307Y351122D01*
X346973Y352730D01*
D02*
G37*
G36*
X386651Y353340D02*
X386270D01*
Y342070D01*
X397540D01*
Y342451D01*
X396685Y345640D01*
X395034Y348500D01*
X392700Y350835D01*
X389840Y352485D01*
X386651Y353340D01*
D02*
G37*
G36*
X383730D02*
X383349D01*
X380160Y352485D01*
X377300Y350835D01*
X374966Y348500D01*
X373315Y345640D01*
X372460Y342451D01*
Y342070D01*
X383730D01*
Y353340D01*
D02*
G37*
G36*
X46270Y307973D02*
Y304270D01*
X49973D01*
X49307Y305878D01*
X47878Y307307D01*
X46270Y307973D01*
D02*
G37*
G36*
X43730D02*
X42122Y307307D01*
X40693Y305878D01*
X40027Y304270D01*
X43730D01*
Y307973D01*
D02*
G37*
G36*
X49973Y301730D02*
X46270D01*
Y298027D01*
X47878Y298693D01*
X49307Y300122D01*
X49973Y301730D01*
D02*
G37*
G36*
X43730D02*
X40027D01*
X40693Y300122D01*
X42122Y298693D01*
X43730Y298027D01*
Y301730D01*
D02*
G37*
G36*
X96540Y297540D02*
X73460D01*
Y293609D01*
X66540D01*
Y296540D01*
X53460D01*
Y283460D01*
X66540D01*
Y286391D01*
X73460D01*
Y282460D01*
X96540D01*
Y282460D01*
X97810Y282704D01*
X97966Y282471D01*
X98215Y281217D01*
X98343Y280000D01*
X98343D01*
X98808Y276465D01*
X100173Y273172D01*
X102343Y270343D01*
X105172Y268173D01*
X108460Y266811D01*
Y263609D01*
X106828D01*
X106818Y263607D01*
X105595Y263850D01*
X105561Y263873D01*
X104587Y264587D01*
X104587Y264587D01*
X101708Y266796D01*
X98355Y268185D01*
X96540Y268424D01*
Y272540D01*
X73460D01*
Y268609D01*
X66540D01*
Y271540D01*
X53460D01*
Y258460D01*
X66540D01*
Y261391D01*
X73460D01*
Y257460D01*
X96540D01*
Y259993D01*
X97596Y260699D01*
X98074Y260501D01*
X99432Y259459D01*
X99434Y259434D01*
Y259434D01*
X101600Y257772D01*
X104122Y256727D01*
X106828Y256371D01*
Y256391D01*
X108460D01*
Y253608D01*
X104374Y253608D01*
X103171Y253786D01*
X103141Y253799D01*
X103127Y253780D01*
X101981Y253609D01*
X91000D01*
X90808Y253571D01*
X89293Y253372D01*
X87702Y252713D01*
X86336Y251664D01*
X86312Y251634D01*
X85388Y250762D01*
X85213Y250341D01*
X84349Y249540D01*
X71460D01*
Y243609D01*
X66540D01*
Y246540D01*
X53460D01*
Y233460D01*
X65330D01*
X65363Y233460D01*
X65363Y233460D01*
X65532Y233460D01*
X65726Y232217D01*
X65719Y232214D01*
X62676Y230954D01*
X60056Y228944D01*
X58046Y226324D01*
X57307Y224540D01*
X53460D01*
Y211460D01*
X66540D01*
Y224540D01*
X67557Y225151D01*
X68882Y225414D01*
X69000Y225391D01*
X71460D01*
Y208460D01*
X105540D01*
Y221436D01*
X109287Y225182D01*
X110460Y224696D01*
Y221270D01*
X117000D01*
X123540D01*
Y225551D01*
X124755Y226618D01*
X125378Y226555D01*
X125411Y226524D01*
X125460Y225410D01*
X125460Y221270D01*
X132000D01*
Y218730D01*
X125460D01*
Y213460D01*
X131510D01*
X131971Y212215D01*
X131351Y211540D01*
X125460D01*
Y208609D01*
X123540D01*
Y211540D01*
X110460D01*
Y198460D01*
X112480D01*
X113006Y197190D01*
X112693Y196878D01*
X111920Y195011D01*
Y192990D01*
X112693Y191122D01*
X114122Y189693D01*
X115990Y188920D01*
X118011D01*
X119878Y189693D01*
X121307Y191122D01*
X122080Y192990D01*
Y195011D01*
X121307Y196878D01*
X120994Y197190D01*
X121520Y198460D01*
X123540D01*
Y201391D01*
X125460D01*
Y198460D01*
X127480D01*
X128006Y197190D01*
X127693Y196878D01*
X126920Y195011D01*
Y192990D01*
X127693Y191122D01*
X129122Y189693D01*
X130990Y188920D01*
X133011D01*
X134878Y189693D01*
X136307Y191122D01*
X137080Y192990D01*
Y195011D01*
X136307Y196878D01*
X135994Y197190D01*
X136520Y198460D01*
X138540D01*
Y206391D01*
X141460D01*
Y200960D01*
Y190960D01*
X142798D01*
X143050Y189690D01*
X142189Y189333D01*
X140196Y187804D01*
X138667Y185811D01*
X137705Y183490D01*
X137378Y181000D01*
X137378D01*
X137163Y179819D01*
X137140Y179699D01*
X136403Y178597D01*
X135301Y177860D01*
X134019Y177605D01*
X134000Y177609D01*
X96040D01*
Y180540D01*
X73960D01*
Y167460D01*
X96040D01*
Y170391D01*
X99460D01*
Y157460D01*
X112540D01*
Y170391D01*
X134000D01*
Y170369D01*
X136751Y170731D01*
X139316Y171793D01*
X141517Y173483D01*
X143207Y175685D01*
X144269Y178249D01*
X144631Y181000D01*
X144631D01*
X144953Y182136D01*
X145318Y182682D01*
X146090Y183198D01*
X147000Y183379D01*
Y183391D01*
X161000D01*
Y183343D01*
X164535Y183808D01*
X164856Y183942D01*
X165960Y183024D01*
Y166460D01*
X174041D01*
Y175000D01*
Y183540D01*
X167205D01*
X166952Y184810D01*
X167828Y185173D01*
X170657Y187343D01*
X172827Y190172D01*
X174191Y193465D01*
X174657Y197000D01*
X174609D01*
Y231000D01*
X174648D01*
X174217Y234274D01*
X172954Y237324D01*
X170944Y239944D01*
X168324Y241954D01*
X165274Y243217D01*
X162000Y243648D01*
Y243609D01*
X158540D01*
Y255960D01*
Y265960D01*
Y274040D01*
X155020D01*
X154682Y274554D01*
X154384Y275310D01*
X155080Y276989D01*
Y279011D01*
X154307Y280878D01*
X152878Y282307D01*
X151011Y283080D01*
X148989D01*
X147122Y282307D01*
X145693Y280878D01*
X144920Y279011D01*
Y276989D01*
X145616Y275310D01*
X145318Y274554D01*
X144980Y274040D01*
X141460D01*
Y271901D01*
X140190Y271275D01*
X138811Y272333D01*
X136540Y273274D01*
Y276540D01*
X123460D01*
Y263609D01*
X121540D01*
Y276540D01*
X108460D01*
Y276185D01*
X107190Y275800D01*
X106034Y277529D01*
X105785Y278783D01*
X105657Y280000D01*
X105657D01*
X105191Y283535D01*
X103827Y286828D01*
X101657Y289657D01*
X98828Y291827D01*
X96540Y292775D01*
Y297540D01*
D02*
G37*
G36*
X51540Y296540D02*
X46270D01*
Y291270D01*
X51540D01*
Y296540D01*
D02*
G37*
G36*
X43730D02*
X38460D01*
Y291270D01*
X43730D01*
Y296540D01*
D02*
G37*
G36*
X51540Y288730D02*
X46270D01*
Y283460D01*
X51540D01*
Y288730D01*
D02*
G37*
G36*
X43730D02*
X38460D01*
Y283460D01*
X43730D01*
Y288730D01*
D02*
G37*
G36*
X46270Y281973D02*
Y278270D01*
X49973D01*
X49307Y279878D01*
X47878Y281307D01*
X46270Y281973D01*
D02*
G37*
G36*
X43730D02*
X42122Y281307D01*
X40693Y279878D01*
X40027Y278270D01*
X43730D01*
Y281973D01*
D02*
G37*
G36*
X196270Y278972D02*
Y275270D01*
X199972D01*
X199307Y276878D01*
X197878Y278307D01*
X196270Y278972D01*
D02*
G37*
G36*
X193730D02*
X192122Y278307D01*
X190693Y276878D01*
X190028Y275270D01*
X193730D01*
Y278972D01*
D02*
G37*
G36*
X199972Y272730D02*
X196270D01*
Y269028D01*
X197878Y269693D01*
X199307Y271122D01*
X199972Y272730D01*
D02*
G37*
G36*
X193730D02*
X190028D01*
X190693Y271122D01*
X192122Y269693D01*
X193730Y269028D01*
Y272730D01*
D02*
G37*
G36*
X49973Y275730D02*
X40027D01*
X40693Y274122D01*
X42006Y272810D01*
X41935Y272267D01*
X41617Y271540D01*
X38460D01*
Y266270D01*
X51540D01*
Y271540D01*
X48384D01*
X48065Y272267D01*
X47994Y272810D01*
X49307Y274122D01*
X49973Y275730D01*
D02*
G37*
G36*
X51540Y263730D02*
X46270D01*
Y258460D01*
X51540D01*
Y263730D01*
D02*
G37*
G36*
X43730D02*
X38460D01*
Y258460D01*
X43730D01*
Y263730D01*
D02*
G37*
G36*
X310540Y263540D02*
X305270D01*
Y258270D01*
X310540D01*
Y263540D01*
D02*
G37*
G36*
X295540D02*
X290270D01*
Y258270D01*
X295540D01*
Y263540D01*
D02*
G37*
G36*
X302730D02*
X297460D01*
Y258270D01*
X302730D01*
Y263540D01*
D02*
G37*
G36*
X46270Y256973D02*
Y253270D01*
X49973D01*
X49307Y254878D01*
X47878Y256307D01*
X46270Y256973D01*
D02*
G37*
G36*
X43730D02*
X42122Y256307D01*
X40693Y254878D01*
X40027Y253270D01*
X43730D01*
Y256973D01*
D02*
G37*
G36*
X49973Y250730D02*
X40027D01*
X40693Y249122D01*
X42006Y247810D01*
X41935Y247267D01*
X41617Y246540D01*
X38460D01*
Y241270D01*
X45000D01*
X51540D01*
Y246540D01*
X48384D01*
X48065Y247267D01*
X47994Y247810D01*
X49307Y249122D01*
X49973Y250730D01*
D02*
G37*
G36*
X206270Y234972D02*
Y231270D01*
X209972D01*
X209307Y232878D01*
X207878Y234307D01*
X206270Y234972D01*
D02*
G37*
G36*
X203730D02*
X202122Y234307D01*
X200693Y232878D01*
X200028Y231270D01*
X203730D01*
Y234972D01*
D02*
G37*
G36*
X51540Y238730D02*
X45000D01*
X38460D01*
Y233460D01*
X40480D01*
X41006Y232190D01*
X40693Y231878D01*
X40027Y230270D01*
X49973D01*
X49307Y231878D01*
X48994Y232190D01*
X49520Y233460D01*
X51540D01*
Y238730D01*
D02*
G37*
G36*
X306270Y229972D02*
Y226270D01*
X309972D01*
X309307Y227878D01*
X307878Y229307D01*
X306270Y229972D01*
D02*
G37*
G36*
X303730D02*
X302122Y229307D01*
X300693Y227878D01*
X300028Y226270D01*
X303730D01*
Y229972D01*
D02*
G37*
G36*
X209972Y228730D02*
X206270D01*
Y225028D01*
X207878Y225693D01*
X209307Y227122D01*
X209972Y228730D01*
D02*
G37*
G36*
X203730D02*
X200028D01*
X200693Y227122D01*
X202122Y225693D01*
X203730Y225028D01*
Y228730D01*
D02*
G37*
G36*
X49973Y227730D02*
X40027D01*
X40693Y226122D01*
X41006Y225810D01*
X40480Y224540D01*
X38460D01*
Y219270D01*
X45000D01*
X51540D01*
Y224540D01*
X49520D01*
X48994Y225810D01*
X49307Y226122D01*
X49973Y227730D01*
D02*
G37*
G36*
X123540Y218730D02*
X118270D01*
Y213460D01*
X123540D01*
Y218730D01*
D02*
G37*
G36*
X115730D02*
X110460D01*
Y213460D01*
X115730D01*
Y218730D01*
D02*
G37*
G36*
X309972Y223730D02*
X300028D01*
X300409Y222810D01*
X299616Y221540D01*
X298460D01*
Y216270D01*
X305000D01*
Y215000D01*
X306270D01*
Y208460D01*
X311540D01*
Y212480D01*
X312810Y213006D01*
X313122Y212693D01*
X314989Y211920D01*
X317010D01*
X318878Y212693D01*
X320307Y214122D01*
X321080Y215989D01*
Y218011D01*
X320307Y219878D01*
X318878Y221307D01*
X317010Y222080D01*
X314989D01*
X313122Y221307D01*
X312810Y220994D01*
X311540Y221520D01*
Y221540D01*
X310384D01*
X309591Y222810D01*
X309972Y223730D01*
D02*
G37*
G36*
X51540Y216730D02*
X46270D01*
Y211460D01*
X51540D01*
Y216730D01*
D02*
G37*
G36*
X43730D02*
X38460D01*
Y211460D01*
X43730D01*
Y216730D01*
D02*
G37*
G36*
X303730Y213730D02*
X298460D01*
Y208460D01*
X303730D01*
Y213730D01*
D02*
G37*
G36*
X331011Y213080D02*
X328989D01*
X327122Y212307D01*
X325693Y210878D01*
X324920Y209011D01*
Y206989D01*
X325693Y205122D01*
X327122Y203693D01*
X328989Y202920D01*
X331011D01*
X332878Y203693D01*
X334307Y205122D01*
X335080Y206989D01*
Y209011D01*
X334307Y210878D01*
X332878Y212307D01*
X331011Y213080D01*
D02*
G37*
G36*
X311540Y206540D02*
X298460D01*
Y193460D01*
X299616D01*
X300409Y192190D01*
X299920Y191010D01*
Y188990D01*
X300693Y187122D01*
X302122Y185693D01*
X303990Y184920D01*
X306010D01*
X307878Y185693D01*
X309307Y187122D01*
X310080Y188990D01*
Y191010D01*
X309591Y192190D01*
X310384Y193460D01*
X311540D01*
Y206540D01*
D02*
G37*
G36*
X233730Y164540D02*
X228460D01*
Y159270D01*
X233730D01*
Y164540D01*
D02*
G37*
G36*
X168730D02*
X163460D01*
Y159270D01*
X168730D01*
Y164540D01*
D02*
G37*
G36*
X112540Y155540D02*
X107270D01*
Y150270D01*
X112540D01*
Y155540D01*
D02*
G37*
G36*
X104730D02*
X99460D01*
Y150270D01*
X104730D01*
Y155540D01*
D02*
G37*
G36*
X239972Y146730D02*
X236270D01*
Y143027D01*
X237878Y143693D01*
X239307Y145122D01*
X239972Y146730D01*
D02*
G37*
G36*
X174972D02*
X171270D01*
Y143027D01*
X172878Y143693D01*
X174307Y145122D01*
X174972Y146730D01*
D02*
G37*
G36*
X168730D02*
X165028D01*
X165693Y145122D01*
X167122Y143693D01*
X168730Y143027D01*
Y146730D01*
D02*
G37*
G36*
X226010Y195080D02*
X223990D01*
X222122Y194307D01*
X220693Y192878D01*
X219920Y191010D01*
Y188990D01*
X220693Y187122D01*
X221391Y186425D01*
Y183540D01*
X175959D01*
Y175000D01*
Y166460D01*
X176391D01*
Y164540D01*
X171270D01*
Y158000D01*
X170000D01*
Y156730D01*
X163460D01*
Y151460D01*
X164616D01*
X165409Y150190D01*
X165028Y149270D01*
X174972D01*
X174591Y150190D01*
X175384Y151460D01*
X176540D01*
Y157510D01*
X177785Y157971D01*
X178460Y157351D01*
Y151460D01*
X179616D01*
X180409Y150190D01*
X179920Y149010D01*
Y146989D01*
X180693Y145122D01*
X182122Y143693D01*
X183990Y142920D01*
X186010D01*
X187878Y143693D01*
X189307Y145122D01*
X190080Y146989D01*
Y149010D01*
X189591Y150190D01*
X190384Y151460D01*
X191540D01*
Y154255D01*
X191736Y154396D01*
X193380Y154015D01*
X194345Y152208D01*
X196537Y149537D01*
X199208Y147346D01*
X201070Y146350D01*
X200752Y145080D01*
X200180D01*
X198312Y144307D01*
X196883Y142878D01*
X196110Y141011D01*
Y138990D01*
X196883Y137122D01*
X197829Y136176D01*
X196448Y134795D01*
X195665Y133624D01*
X195649Y133540D01*
X189960D01*
Y116460D01*
X199920D01*
Y115990D01*
X200693Y114122D01*
X202122Y112693D01*
X203990Y111920D01*
X206010D01*
X207878Y112693D01*
X209307Y114122D01*
X210080Y115990D01*
Y116460D01*
X220040D01*
Y133540D01*
X214351D01*
X214335Y133624D01*
X213552Y134795D01*
X212171Y136176D01*
X213117Y137122D01*
X213890Y138990D01*
Y141011D01*
X213380Y142243D01*
X214352Y143215D01*
X215724Y142646D01*
X218509Y140509D01*
X220646Y137724D01*
X221990Y134481D01*
X222425Y131174D01*
X222391Y131000D01*
Y118000D01*
X222334D01*
X222834Y114204D01*
X224299Y110667D01*
X226630Y107630D01*
X229667Y105299D01*
X233204Y103834D01*
X237000Y103335D01*
Y103391D01*
X262460D01*
Y100460D01*
X275540D01*
Y113540D01*
X262460D01*
Y110609D01*
X237000D01*
X236983Y110606D01*
X235086Y110856D01*
X233302Y111595D01*
X231770Y112770D01*
X230595Y114302D01*
X229856Y116086D01*
X229606Y117983D01*
X229609Y118000D01*
Y123288D01*
X230812Y123696D01*
X231630Y122630D01*
X234667Y120299D01*
X238204Y118834D01*
X242000Y118335D01*
Y118391D01*
X262460D01*
Y115460D01*
X275540D01*
Y128540D01*
X262460D01*
Y125609D01*
X242000D01*
X241983Y125606D01*
X240086Y125856D01*
X238302Y126595D01*
X236770Y127770D01*
X235595Y129302D01*
X234856Y131086D01*
X234765Y131778D01*
X234649Y133000D01*
X234649D01*
X234214Y137419D01*
X232925Y141667D01*
X232706Y142077D01*
X233612Y143076D01*
X233730Y143027D01*
Y148000D01*
X235000D01*
Y149270D01*
X239972D01*
X239591Y150190D01*
X240384Y151460D01*
X241540D01*
Y157510D01*
X242785Y157971D01*
X243460Y157351D01*
Y151460D01*
X244616D01*
X245409Y150190D01*
X244920Y149010D01*
Y146989D01*
X245693Y145122D01*
X247122Y143693D01*
X248990Y142920D01*
X251010D01*
X252878Y143693D01*
X254307Y145122D01*
X255080Y146989D01*
Y149010D01*
X254591Y150190D01*
X255384Y151460D01*
X256540D01*
Y164540D01*
X248609D01*
Y166460D01*
X249040D01*
Y183540D01*
X240959D01*
Y175000D01*
Y166460D01*
X241391D01*
Y164540D01*
X236270D01*
Y158000D01*
X235000D01*
Y156730D01*
X228460D01*
Y151460D01*
X229616D01*
X230409Y150190D01*
X229920Y149010D01*
Y148696D01*
X228650Y148242D01*
X228015Y149015D01*
X224583Y151832D01*
X220667Y153925D01*
X216419Y155214D01*
X212000Y155649D01*
Y155609D01*
X210000D01*
X209833Y155576D01*
X207529Y156034D01*
X205434Y157434D01*
X204034Y159529D01*
X203576Y161833D01*
X203609Y162000D01*
Y166460D01*
X239041D01*
Y175000D01*
Y183540D01*
X228609D01*
Y186425D01*
X229307Y187122D01*
X230080Y188990D01*
Y191010D01*
X229307Y192878D01*
X227878Y194307D01*
X226010Y195080D01*
D02*
G37*
G36*
X96040Y146540D02*
X86270D01*
Y141270D01*
X96040D01*
Y146540D01*
D02*
G37*
G36*
X83730D02*
X73960D01*
Y141270D01*
X83730D01*
Y146540D01*
D02*
G37*
G36*
X112540Y147730D02*
X106000D01*
X99460D01*
Y142460D01*
X101480D01*
X102006Y141190D01*
X101693Y140878D01*
X101027Y139270D01*
X110972D01*
X110307Y140878D01*
X109994Y141190D01*
X110520Y142460D01*
X112540D01*
Y147730D01*
D02*
G37*
G36*
X320270Y137972D02*
Y134270D01*
X323973D01*
X323307Y135878D01*
X321878Y137307D01*
X320270Y137972D01*
D02*
G37*
G36*
X317730D02*
X316122Y137307D01*
X314693Y135878D01*
X314028Y134270D01*
X317730D01*
Y137972D01*
D02*
G37*
G36*
X96040Y138730D02*
X86270D01*
Y133460D01*
X96040D01*
Y138730D01*
D02*
G37*
G36*
X110972Y136730D02*
X107270D01*
Y133027D01*
X108878Y133693D01*
X110307Y135122D01*
X110972Y136730D01*
D02*
G37*
G36*
X104730D02*
X101027D01*
X101693Y135122D01*
X103122Y133693D01*
X104730Y133027D01*
Y136730D01*
D02*
G37*
G36*
X273011Y140080D02*
X270989D01*
X269122Y139307D01*
X267693Y137878D01*
X266920Y136011D01*
Y133989D01*
X267693Y132122D01*
X269122Y130693D01*
X270989Y129920D01*
X273011D01*
X274878Y130693D01*
X276307Y132122D01*
X277080Y133989D01*
Y136011D01*
X276307Y137878D01*
X274878Y139307D01*
X273011Y140080D01*
D02*
G37*
G36*
X83730Y138730D02*
X73960D01*
Y133614D01*
X73960Y133460D01*
X74006Y132190D01*
X72693Y130878D01*
X72028Y129270D01*
X81973D01*
X81307Y130878D01*
X79994Y132190D01*
X80065Y132733D01*
X80384Y133460D01*
X83730D01*
Y138730D01*
D02*
G37*
G36*
X310540Y128540D02*
X297460D01*
Y125609D01*
X290540D01*
Y128540D01*
X277460D01*
Y115460D01*
X290540D01*
Y118391D01*
X297460D01*
Y115460D01*
X310540D01*
Y128540D01*
D02*
G37*
G36*
X323973Y131730D02*
X314028D01*
X314693Y130122D01*
X315006Y129810D01*
X314480Y128540D01*
X312460D01*
Y123270D01*
X319000D01*
X325540D01*
Y128540D01*
X323520D01*
X322994Y129810D01*
X323307Y130122D01*
X323973Y131730D01*
D02*
G37*
G36*
X118540Y124540D02*
X105460D01*
Y121609D01*
X98540D01*
Y124540D01*
X85460D01*
Y111460D01*
X98540D01*
Y114391D01*
X105460D01*
Y111460D01*
X118540D01*
Y124540D01*
D02*
G37*
G36*
X81973Y126730D02*
X72028D01*
X72409Y125810D01*
X71616Y124540D01*
X70460D01*
Y119270D01*
X77000D01*
X83540D01*
Y124540D01*
X82384D01*
X81591Y125810D01*
X81973Y126730D01*
D02*
G37*
G36*
X325540Y120730D02*
X320270D01*
Y115460D01*
X325540D01*
Y120730D01*
D02*
G37*
G36*
X317730D02*
X312460D01*
Y115460D01*
X317730D01*
Y120730D01*
D02*
G37*
G36*
X183270Y117972D02*
Y114270D01*
X186973D01*
X186307Y115878D01*
X184878Y117307D01*
X183270Y117972D01*
D02*
G37*
G36*
X180730D02*
X179122Y117307D01*
X177693Y115878D01*
X177027Y114270D01*
X180730D01*
Y117972D01*
D02*
G37*
G36*
X128011Y133080D02*
X125990D01*
X124122Y132307D01*
X122693Y130878D01*
X121920Y129010D01*
Y126989D01*
X122409Y125810D01*
X121616Y124540D01*
X120460D01*
Y111460D01*
X133540D01*
Y124540D01*
X132384D01*
X131591Y125810D01*
X132080Y126989D01*
Y129010D01*
X131307Y130878D01*
X129878Y132307D01*
X128011Y133080D01*
D02*
G37*
G36*
X83540Y116730D02*
X78270D01*
Y111460D01*
X83540D01*
Y116730D01*
D02*
G37*
G36*
X75730D02*
X70460D01*
Y111460D01*
X75730D01*
Y116730D01*
D02*
G37*
G36*
X310540Y113540D02*
X297460D01*
Y110609D01*
X290540D01*
Y113540D01*
X277460D01*
Y100460D01*
X290540D01*
Y103391D01*
X297460D01*
Y100460D01*
X310540D01*
Y113540D01*
D02*
G37*
G36*
X325540D02*
X320270D01*
Y108270D01*
X325540D01*
Y113540D01*
D02*
G37*
G36*
X317730D02*
X312460D01*
Y108270D01*
X317730D01*
Y113540D01*
D02*
G37*
G36*
X186973Y111730D02*
X183270D01*
Y108027D01*
X184878Y108693D01*
X186307Y110122D01*
X186973Y111730D01*
D02*
G37*
G36*
X180730D02*
X177027D01*
X177693Y110122D01*
X179122Y108693D01*
X180730Y108027D01*
Y111730D01*
D02*
G37*
G36*
X325540Y105730D02*
X319000D01*
X312460D01*
Y100460D01*
X314480D01*
X315006Y99190D01*
X314693Y98878D01*
X314028Y97270D01*
X323973D01*
X323307Y98878D01*
X322994Y99190D01*
X323520Y100460D01*
X325540D01*
Y105730D01*
D02*
G37*
G36*
X290540Y98540D02*
X285270D01*
Y93270D01*
X290540D01*
Y98540D01*
D02*
G37*
G36*
X166540D02*
X161270D01*
Y93270D01*
X166540D01*
Y98540D01*
D02*
G37*
G36*
X158730D02*
X153460D01*
Y93270D01*
X158730D01*
Y98540D01*
D02*
G37*
G36*
X282730D02*
X277460D01*
Y93270D01*
X282730D01*
Y98540D01*
D02*
G37*
G36*
X323973Y94730D02*
X320270D01*
Y91027D01*
X321878Y91693D01*
X323307Y93122D01*
X323973Y94730D01*
D02*
G37*
G36*
X317730D02*
X314028D01*
X314693Y93122D01*
X316122Y91693D01*
X317730Y91027D01*
Y94730D01*
D02*
G37*
G36*
X290540Y90730D02*
X285270D01*
Y85460D01*
X290540D01*
Y90730D01*
D02*
G37*
G36*
X282730D02*
X277460D01*
Y85460D01*
X282730D01*
Y90730D01*
D02*
G37*
G36*
X166540D02*
X161270D01*
Y85460D01*
X166540D01*
Y90730D01*
D02*
G37*
G36*
X158730D02*
X153460D01*
Y85460D01*
X158730D01*
Y90730D01*
D02*
G37*
G36*
X249520Y76234D02*
Y65070D01*
X255351D01*
Y69300D01*
X255109Y71138D01*
X254399Y72850D01*
X253271Y74321D01*
X251800Y75450D01*
X250088Y76159D01*
X249520Y76234D01*
D02*
G37*
G36*
X160480D02*
X159912Y76159D01*
X158200Y75450D01*
X156729Y74321D01*
X155601Y72850D01*
X154891Y71138D01*
X154649Y69300D01*
Y65070D01*
X160480D01*
Y76234D01*
D02*
G37*
G36*
X255351Y62530D02*
X249520D01*
Y51367D01*
X250088Y51441D01*
X251800Y52151D01*
X253271Y53279D01*
X254399Y54750D01*
X255109Y56462D01*
X255351Y58300D01*
Y62530D01*
D02*
G37*
G36*
X160480D02*
X154649D01*
Y58300D01*
X154891Y56462D01*
X155601Y54750D01*
X156729Y53279D01*
X158200Y52151D01*
X159912Y51441D01*
X160480Y51367D01*
Y62530D01*
D02*
G37*
G36*
X249520Y32933D02*
Y23270D01*
X255351D01*
Y26000D01*
X255109Y27838D01*
X254399Y29550D01*
X253271Y31021D01*
X251800Y32149D01*
X250088Y32859D01*
X249520Y32933D01*
D02*
G37*
G36*
X160480D02*
X159912Y32859D01*
X158200Y32149D01*
X156729Y31021D01*
X155601Y29550D01*
X154891Y27838D01*
X154649Y26000D01*
Y23270D01*
X160480D01*
Y32933D01*
D02*
G37*
G36*
X255351Y20730D02*
X249520D01*
Y11066D01*
X250088Y11141D01*
X251800Y11851D01*
X253271Y12979D01*
X254399Y14450D01*
X255109Y16162D01*
X255351Y18000D01*
Y20730D01*
D02*
G37*
G36*
X160480D02*
X154649D01*
Y18000D01*
X154891Y16162D01*
X155601Y14450D01*
X156729Y12979D01*
X158200Y11851D01*
X159912Y11141D01*
X160480Y11066D01*
Y20730D01*
D02*
G37*
%LPD*%
G36*
X143405Y378716D02*
X146000Y378374D01*
Y378391D01*
X174000D01*
X174069Y378404D01*
X176436Y378093D01*
X178707Y377152D01*
X180656Y375656D01*
X182152Y373707D01*
X183093Y371436D01*
X183404Y369069D01*
X183391Y369000D01*
Y360440D01*
X172410D01*
X171560Y360440D01*
X170290Y360440D01*
X168609D01*
Y365000D01*
X168622D01*
X168295Y367491D01*
X167333Y369811D01*
X165804Y371804D01*
X163811Y373333D01*
X161490Y374295D01*
X159000Y374622D01*
Y374609D01*
X142000D01*
X141915Y374592D01*
X141096Y374931D01*
X140610Y376000D01*
X140610D01*
X140330Y378125D01*
X140030Y378851D01*
X140835Y379580D01*
X141058Y379688D01*
X143405Y378716D01*
D02*
G37*
G36*
X266791Y329400D02*
X266796Y329373D01*
X266534Y327381D01*
X265755Y325500D01*
X264515Y323885D01*
X262900Y322645D01*
X261019Y321866D01*
X259027Y321604D01*
X259000Y321609D01*
X230563D01*
X230154Y322812D01*
X230783Y323294D01*
X230783Y323294D01*
X230755Y323322D01*
X232950Y325997D01*
X234581Y329048D01*
X235586Y332360D01*
X235925Y335803D01*
X235925Y335803D01*
X236200Y336953D01*
X236807Y337560D01*
X238440Y337560D01*
X239279Y337560D01*
X240580Y337560D01*
X241106Y336290D01*
X240693Y335878D01*
X240028Y334270D01*
X249972D01*
X249307Y335878D01*
X248894Y336290D01*
X249420Y337560D01*
X251140Y337560D01*
X252410Y337560D01*
X262990D01*
X263840Y337560D01*
X265110Y337560D01*
X266791D01*
Y329400D01*
D02*
G37*
G36*
X174091Y334967D02*
X174088D01*
X174374Y332064D01*
X175221Y329273D01*
X175966Y327879D01*
X175205Y326609D01*
X149000D01*
X148863Y326582D01*
X146763Y327000D01*
X144867Y328267D01*
X143600Y330163D01*
X143182Y332263D01*
X143209Y332400D01*
Y336662D01*
X144107Y337560D01*
X145740Y337560D01*
X147580Y337560D01*
X148106Y336290D01*
X147693Y335878D01*
X147028Y334270D01*
X156973D01*
X156307Y335878D01*
X155894Y336290D01*
X156420Y337560D01*
X158440Y337560D01*
X159710Y337560D01*
X170290D01*
X171140Y337560D01*
X172410Y337560D01*
X174091D01*
Y334967D01*
D02*
G37*
G36*
X186289Y346057D02*
X188438Y343438D01*
X188438Y343438D01*
X189218Y342491D01*
X190069Y341381D01*
X191076Y338951D01*
X191408Y336429D01*
X191391Y336343D01*
Y320730D01*
X190200Y320445D01*
X188871Y323655D01*
X186755Y326412D01*
X186724Y326381D01*
X183550Y329554D01*
X183531Y329567D01*
X182328Y331134D01*
X181563Y332983D01*
X181305Y334943D01*
X181309Y334967D01*
Y337560D01*
X183840D01*
Y347944D01*
X185110Y348262D01*
X186289Y346057D01*
D02*
G37*
G36*
X365048Y310808D02*
X365066Y310521D01*
X363693Y309148D01*
X363027Y307540D01*
X368000D01*
Y305000D01*
X363027D01*
X363693Y303392D01*
X364951Y302135D01*
X363693Y300878D01*
X363027Y299270D01*
X368000D01*
Y296730D01*
X363027D01*
X363693Y295122D01*
X363936Y294879D01*
X363410Y293609D01*
X339000D01*
X338981Y293605D01*
X337700Y293860D01*
X336597Y294597D01*
X335860Y295700D01*
X335837Y295819D01*
X335622Y297000D01*
X335622D01*
X335294Y299490D01*
X335228Y299650D01*
X336077Y300920D01*
X337010D01*
X338878Y301693D01*
X340307Y303122D01*
X341080Y304989D01*
Y307010D01*
X340307Y308878D01*
X338878Y310307D01*
X338361Y310521D01*
X338613Y311791D01*
X364735D01*
X365048Y310808D01*
D02*
G37*
G36*
X326000Y299379D02*
X326910Y299198D01*
X327682Y298682D01*
X328046Y298136D01*
X328369Y297000D01*
X328369Y297000D01*
X328731Y294249D01*
X329793Y291684D01*
X331483Y289483D01*
X333685Y287793D01*
X336249Y286731D01*
X339000Y286369D01*
Y286391D01*
X372985D01*
X373315Y285160D01*
X374966Y282300D01*
X377300Y279965D01*
X380160Y278315D01*
X381493Y277957D01*
Y276643D01*
X380160Y276285D01*
X377300Y274634D01*
X374966Y272300D01*
X373315Y269440D01*
X372985Y268209D01*
X344400D01*
X344268Y268183D01*
X341337Y268569D01*
X338483Y269751D01*
X336032Y271632D01*
X334151Y274083D01*
X332969Y276937D01*
X332729Y278760D01*
X332657Y280000D01*
X332657D01*
X332192Y283535D01*
X330827Y286828D01*
X328657Y289657D01*
X325828Y291827D01*
X322535Y293192D01*
X319000Y293657D01*
Y293609D01*
X249040D01*
Y298540D01*
X249958Y299391D01*
X326000D01*
Y299379D01*
D02*
G37*
%LPC*%
G36*
X249972Y331730D02*
X246270D01*
Y328027D01*
X247878Y328693D01*
X249307Y330122D01*
X249972Y331730D01*
D02*
G37*
G36*
X243730D02*
X240028D01*
X240693Y330122D01*
X242122Y328693D01*
X243730Y328027D01*
Y331730D01*
D02*
G37*
G36*
X156973D02*
X153270D01*
Y328027D01*
X154878Y328693D01*
X156307Y330122D01*
X156973Y331730D01*
D02*
G37*
G36*
X150730D02*
X147028D01*
X147693Y330122D01*
X149122Y328693D01*
X150730Y328027D01*
Y331730D01*
D02*
G37*
G36*
X367270Y281973D02*
Y278270D01*
X370973D01*
X370307Y279878D01*
X368878Y281307D01*
X367270Y281973D01*
D02*
G37*
G36*
X364730D02*
X363122Y281307D01*
X361693Y279878D01*
X361027Y278270D01*
X364730D01*
Y281973D01*
D02*
G37*
G36*
X370973Y275730D02*
X367270D01*
Y272027D01*
X368878Y272693D01*
X370307Y274122D01*
X370973Y275730D01*
D02*
G37*
G36*
X364730D02*
X361027D01*
X361693Y274122D01*
X363122Y272693D01*
X364730Y272027D01*
Y275730D01*
D02*
G37*
%LPD*%
G36*
X160177Y227699D02*
X162044Y226926D01*
X164065D01*
X165932Y227699D01*
X166121Y227887D01*
X167391Y227361D01*
Y197000D01*
X167424Y196833D01*
X166966Y194529D01*
X165566Y192434D01*
X163471Y191034D01*
X161167Y190576D01*
X161000Y190609D01*
X159665D01*
X158540Y190960D01*
Y195960D01*
Y205960D01*
Y214041D01*
X150000D01*
Y215959D01*
X158540D01*
Y215960D01*
Y227540D01*
X159810Y228066D01*
X160177Y227699D01*
D02*
G37*
G54D12*
X248000Y256620D02*
G03*
X249620Y255000I1620J0D01*
G01*
X249000Y250000D02*
G03*
X248000Y249000I0J-1000D01*
G01*
X195000Y162000D02*
G03*
X209000Y148000I14000J0D01*
G01*
X200000Y162000D02*
G03*
X210000Y152000I10000J0D01*
G01*
X226000Y131000D02*
G03*
X209000Y148000I-17000J0D01*
G01*
X226000Y118000D02*
G03*
X237000Y107000I11000J0D01*
G01*
X231000Y133000D02*
G03*
X212000Y152000I-19000J0D01*
G01*
X231000Y133000D02*
G03*
X242000Y122000I11000J0D01*
G01*
X265140Y435639D02*
G03*
X257700Y417679I17960J-17960D01*
G01*
X245000Y434413D02*
G03*
X243100Y439000I-6487J0D01*
G01*
X166900D02*
G03*
X165000Y434413I4587J-4587D01*
G01*
X152300Y417679D02*
G03*
X144860Y435639I-25400J0D01*
G01*
X245000Y349000D02*
G03*
X228400Y365600I-16600J0D01*
G01*
X289000Y251000D02*
G03*
X293000Y247000I4000J0D01*
G01*
X289000Y257000D02*
G03*
X281000Y265000I-8000J0D01*
G01*
X235000Y158000D02*
G03*
X240000Y163000I0J5000D01*
G01*
X200600Y365600D02*
G03*
X200000Y365000I0J-600D01*
G01*
X152300Y349000D02*
G03*
X152000Y348700I0J-300D01*
G01*
X152300Y349000D02*
G03*
X135700Y365600I-16600J0D01*
G01*
X122000D02*
G03*
X121600Y366000I-400J0D01*
G01*
X132000Y220000D02*
G03*
X137000Y215000I5000J0D01*
G01*
X170000Y158000D02*
G03*
X175000Y163000I0J5000D01*
G01*
X121000Y231000D02*
G03*
X117000Y227000I0J-4000D01*
G01*
X82172Y133172D02*
G03*
X85000Y140000I-6828J6828D01*
G01*
X180998Y327002D02*
G03*
X181000Y327000I7969J7965D01*
G01*
X177700Y334967D02*
G03*
X180998Y327002I11267J0D01*
G01*
X187000Y317000D02*
G03*
X184172Y323828I-9657J0D01*
G01*
X186000Y300000D02*
G03*
X187000Y302414I-2414J2414D01*
G01*
X186000Y300000D02*
G03*
X185000Y297586I2414J-2414D01*
G01*
X232300Y388700D02*
G03*
X238000Y383000I5700J0D01*
G01*
X277000Y371000D02*
G03*
X265000Y383000I-12000J0D01*
G01*
X267000Y313000D02*
G03*
X277000Y323000I0J10000D01*
G01*
X222000Y313000D02*
G03*
X210000Y301000I0J-12000D01*
G01*
X259000Y318000D02*
G03*
X270400Y329400I0J11400D01*
G01*
X221000Y308000D02*
G03*
X215000Y302000I0J-6000D01*
G01*
X220498Y322704D02*
G03*
X228192Y325885I14J10860D01*
G01*
X222611Y318000D02*
G03*
X205000Y300389I0J-17611D01*
G01*
X228192Y325885D02*
G03*
X232300Y335803I-9918J9918D01*
G01*
X220498Y322704D02*
G03*
X200000Y302186I13J-20511D01*
G01*
X139600Y388400D02*
G03*
X146000Y382000I6400J0D01*
G01*
X187000Y369000D02*
G03*
X174000Y382000I-13000J0D01*
G01*
X187000Y355657D02*
G03*
X191000Y346000I13657J0D01*
G01*
X195000Y336343D02*
G03*
X191000Y346000I-13657J0D01*
G01*
X139600Y332400D02*
G03*
X149000Y323000I9400J0D01*
G01*
X182000Y317000D02*
G03*
X176000Y323000I-6000J0D01*
G01*
X180794Y300596D02*
G03*
X180000Y299010I1206J-1596D01*
G01*
X180794Y300596D02*
G03*
X182000Y303000I-1794J2404D01*
G01*
X160000Y300000D02*
G03*
X170000Y290000I10000J0D01*
G01*
X287000Y270000D02*
G03*
X289000Y272000I0J2000D01*
G01*
X278000Y256000D02*
G03*
X274000Y260000I-4000J0D01*
G01*
X278000Y256000D02*
G03*
X294800Y239200I16800J0D01*
G01*
X134000Y174000D02*
G03*
X141000Y181000I0J7000D01*
G01*
X147000Y187000D02*
G03*
X141000Y181000I0J-6000D01*
G01*
X161000Y187000D02*
G03*
X171000Y197000I0J10000D01*
G01*
Y231000D02*
G03*
X162000Y240000I-9000J0D01*
G01*
X157522Y234085D02*
G03*
X156000Y234500I-1522J-2585D01*
G01*
X200600Y380600D02*
G03*
X200000Y380000I0J-600D01*
G01*
X122000Y380600D02*
G03*
X121600Y381000I-400J0D01*
G01*
X137000Y210000D02*
G03*
X132000Y205000I0J-5000D01*
G01*
X281000Y233000D02*
G03*
X274000Y240000I-7000J0D01*
G01*
X281000Y224000D02*
G03*
X290000Y215000I9000J0D01*
G01*
X245000Y163000D02*
G03*
X250000Y158000I5000J0D01*
G01*
X180000Y163000D02*
G03*
X185000Y158000I5000J0D01*
G01*
X327000Y308000D02*
G03*
X331000Y312000I0J4000D01*
G01*
X334400Y315400D02*
G03*
X331000Y312000I0J-3400D01*
G01*
X244000Y303000D02*
G03*
X240000Y299000I0J-4000D01*
G01*
X332000Y297000D02*
G03*
X326000Y303000I-6000J0D01*
G01*
X332000Y297000D02*
G03*
X339000Y290000I7000J0D01*
G01*
X329000Y280000D02*
G03*
X319000Y290000I-10000J0D01*
G01*
X329000Y280000D02*
G03*
X344400Y264600I15400J0D01*
G01*
X97000Y218000D02*
G03*
X86000Y229000I-11000J0D01*
G01*
X69000D02*
G03*
X60000Y220000I0J-9000D01*
G01*
X129521Y240000D02*
G03*
X111560Y232561I0J-25400D01*
G01*
X257700Y366300D02*
G03*
X251000Y373000I-6700J0D01*
G01*
X228000Y377000D02*
G03*
X232000Y373000I4000J0D01*
G01*
X228000Y377000D02*
G03*
X224400Y380600I-3600J0D01*
G01*
X165000Y365000D02*
G03*
X159000Y371000I-6000J0D01*
G01*
X137000Y376000D02*
G03*
X142000Y371000I5000J0D01*
G01*
X137000Y376000D02*
G03*
X132400Y380600I-4600J0D01*
G01*
X144828Y245000D02*
G03*
X140000Y243000I0J-6828D01*
G01*
X135000Y240000D02*
G03*
X138414Y241414I0J4828D01*
G01*
X85000Y245224D02*
G03*
X85658Y245658I-751J1854D01*
G01*
X88089Y248089D02*
G03*
X88397Y248491I-1422J1407D01*
G01*
X103087Y249999D02*
G03*
X103000Y250000I-87J-2999D01*
G01*
X91000D02*
G03*
X88397Y248491I0J-3000D01*
G01*
X103087Y249999D02*
G03*
X103121Y249998I44J1999D01*
G01*
X139000Y256000D02*
G03*
X141414Y255000I2414J2414D01*
G01*
X136414Y258586D02*
G03*
X133000Y260000I-3414J-3414D01*
G01*
X102000Y262000D02*
G03*
X106828Y260000I4828J4828D01*
G01*
X102000Y262000D02*
G03*
X94757Y265000I-7243J-7243D01*
G01*
X140000Y264000D02*
G03*
X144000Y260000I4000J0D01*
G01*
X140000Y264000D02*
G03*
X134000Y270000I-6000J0D01*
G01*
X102000Y280000D02*
G03*
X92000Y290000I-10000J0D01*
G01*
X102000Y280000D02*
G03*
X112000Y270000I10000J0D01*
G01*
X106000Y138000D02*
Y149000D01*
X205000Y117000D02*
Y125000D01*
X249620Y255000D02*
X265000D01*
X249000Y250000D02*
X265000D01*
X208810Y139167D02*
Y140000D01*
X206750Y134460D02*
Y137107D01*
Y134460D02*
X207210Y134000D01*
X211000Y131500D02*
Y132243D01*
X207210Y134000D02*
X209243D01*
X214500Y125000D02*
Y128000D01*
X201190Y139167D02*
Y140000D01*
X209243Y134000D02*
X211000Y132243D01*
X202790Y134000D02*
X203250Y134460D01*
X211000Y131500D02*
X214500Y128000D01*
X200757Y134000D02*
X202790D01*
X199000Y132243D02*
X200757Y134000D01*
X201190Y139167D02*
X203250Y137107D01*
X199000Y131500D02*
Y132243D01*
X203250Y134460D02*
Y137107D01*
X195500Y128000D02*
X199000Y131500D01*
X206750Y137107D02*
X208810Y139167D01*
X195500Y125000D02*
Y128000D01*
X195000Y162000D02*
Y175000D01*
X210000Y152000D02*
X212000D01*
X200000Y162000D02*
Y175000D01*
X226000Y118000D02*
Y131000D01*
X222500Y69500D02*
Y80098D01*
X234402Y92000D01*
X269000D01*
X182920Y84080D02*
X184363D01*
X192000Y70000D02*
Y76443D01*
Y70000D02*
X192500Y69500D01*
X175000Y92000D02*
X182920Y84080D01*
X184363D02*
X192000Y76443D01*
X212500Y78200D02*
X215840Y81540D01*
Y84416D01*
X216430Y85005D01*
X212500Y69500D02*
Y78200D01*
X194159Y81541D02*
X197500Y78200D01*
X194159Y81541D02*
Y84331D01*
X197500Y69500D02*
Y78200D01*
X193570Y84920D02*
X194159Y84331D01*
X206750Y82027D02*
X208810Y84087D01*
X206750Y76693D02*
Y82027D01*
X203000Y76443D02*
X203250Y76693D01*
X203000Y70000D02*
Y76443D01*
X201190Y84087D02*
X203250Y82027D01*
Y76693D02*
Y82027D01*
X206750Y76693D02*
X207000Y76443D01*
X208810Y84087D02*
Y84920D01*
X202500Y69500D02*
X203000Y70000D01*
X201190Y84087D02*
Y84920D01*
X207000Y70000D02*
Y76443D01*
Y70000D02*
X207500Y69500D01*
X214500Y99000D02*
Y102000D01*
X207922Y93000D02*
X209243D01*
X206750Y87813D02*
X208810Y85753D01*
Y84920D02*
Y85753D01*
X199000Y94757D02*
Y95500D01*
X206750Y87813D02*
Y91828D01*
X199000Y94757D02*
X200757Y93000D01*
X209243D02*
X211000Y94757D01*
X200757Y93000D02*
X202078D01*
X203250Y91828D01*
Y87814D02*
Y91828D01*
X211000Y94757D02*
Y95500D01*
X214500Y99000D01*
X201190Y85753D02*
X203250Y87814D01*
X201190Y84920D02*
Y85753D01*
X206750Y91828D02*
X207922Y93000D01*
X195500Y99000D02*
Y102000D01*
Y99000D02*
X199000Y95500D01*
X265140Y435639D02*
X268500Y439000D01*
X257700Y397200D02*
Y417679D01*
X245000Y397200D02*
Y434413D01*
X165000Y397200D02*
Y434413D01*
X141500Y439000D02*
X144860Y435639D01*
X152300Y397200D02*
Y417679D01*
X245000Y349000D02*
X245000D01*
X215000Y365600D02*
X228400D01*
X289000Y257000D02*
X304000D01*
X289000Y251000D02*
Y257000D01*
X265000Y265000D02*
X281000D01*
X235000Y148000D02*
Y158000D01*
X200600Y365600D02*
X215000D01*
X152000Y333000D02*
Y348700D01*
X122000Y365600D02*
X135700D01*
X112000D02*
X122000D01*
X137000Y215000D02*
X150000D01*
X170000Y148000D02*
Y158000D01*
X117000Y220000D02*
Y227000D01*
X132000Y220000D02*
Y231000D01*
X117000Y220000D02*
X132000D01*
X77000Y128000D02*
X82172Y133172D01*
X175000Y307000D02*
Y316920D01*
Y290000D02*
Y307000D01*
X106000Y174000D02*
X134000D01*
X85000D02*
X106000D01*
Y164000D02*
Y174000D01*
X181000Y69500D02*
Y78000D01*
X229000Y69500D02*
Y78000D01*
X319000Y96000D02*
Y107000D01*
Y122000D02*
Y133000D01*
X242000Y122000D02*
X269000D01*
X284000Y360000D02*
X297580D01*
X45000Y277000D02*
Y290000D01*
Y252000D02*
Y265000D01*
Y229000D02*
Y240000D01*
Y220000D02*
Y229000D01*
Y290000D02*
Y303000D01*
Y265000D02*
Y277000D01*
Y240000D02*
Y252000D01*
X189500Y282757D02*
Y289500D01*
X190000Y290000D01*
X180743Y274000D02*
X189500Y282757D01*
X180000Y274000D02*
X180743D01*
X339000Y290000D02*
X385000D01*
X77000Y118000D02*
Y128000D01*
X177700Y334967D02*
Y349000D01*
X181000Y327000D02*
X184172Y323828D01*
X180998Y327002D02*
X181000Y327000D01*
X185000Y290000D02*
Y297586D01*
X187000Y302414D02*
Y317000D01*
X232300Y388700D02*
Y397200D01*
X238000Y383000D02*
X265000D01*
X277000Y323000D02*
Y371000D01*
X222000Y313000D02*
X267000D01*
X210000Y290000D02*
Y301000D01*
X270400Y329400D02*
Y349000D01*
X221000Y308000D02*
X327000D01*
X244000Y303000D02*
X326000D01*
X215000Y290000D02*
Y302000D01*
X200000Y290000D02*
Y302186D01*
X139600Y388400D02*
Y397200D01*
X146000Y382000D02*
X174000D01*
X187000Y355657D02*
Y369000D01*
X195000Y290000D02*
Y336343D01*
X139600Y332400D02*
Y349000D01*
X149000Y323000D02*
X176000D01*
X182000Y317000D02*
X182000D01*
X180000Y299010D02*
Y299010D01*
Y290000D02*
Y299010D01*
X182000Y303000D02*
Y317000D01*
X160000Y300000D02*
Y307000D01*
X147000D02*
X160000D01*
X245000Y333000D02*
Y349000D01*
X304000Y247000D02*
Y257000D01*
X289000Y272000D02*
Y282000D01*
X289000D01*
X304000Y272000D02*
Y282000D01*
X289000Y272000D02*
X304000D01*
X265000Y270000D02*
X287000D01*
X265000Y260000D02*
X274000D01*
X225000Y175000D02*
Y190000D01*
X127000Y118000D02*
Y128000D01*
X92000Y118000D02*
X112000D01*
X284000Y107000D02*
X304000D01*
X284000Y122000D02*
X304000D01*
X237000Y107000D02*
X269000D01*
X147000Y187000D02*
X161000D01*
X171000Y197000D02*
Y231000D01*
X150000Y240000D02*
X162000D01*
X157522Y234085D02*
X161055Y232006D01*
X155000Y234500D02*
X156000Y234500D01*
X150000Y235000D02*
X155000Y234500D01*
X150000Y270000D02*
Y278000D01*
X200600Y380600D02*
X215000D01*
X224400D01*
X122000D02*
X132400D01*
X112000Y381000D02*
X121600D01*
X117000Y220000D02*
Y220000D01*
X132000Y205000D02*
Y205000D01*
Y196000D02*
Y205000D01*
X117000D02*
X132000D01*
X137000Y210000D02*
X150000D01*
X117000Y196000D02*
Y205000D01*
X305000Y215000D02*
Y225000D01*
X250000Y148000D02*
Y158000D01*
X265000Y240000D02*
X274000D01*
X281000Y224000D02*
Y233000D01*
X290000Y200000D02*
Y215000D01*
X240000Y163000D02*
Y175000D01*
X305000Y190000D02*
Y200000D01*
X175000Y163000D02*
Y175000D01*
X245000Y163000D02*
Y175000D01*
X185000Y148000D02*
Y158000D01*
X185000D02*
X185000D01*
X180000Y163000D02*
Y175000D01*
X294800Y239200D02*
X385000D01*
X334400Y315400D02*
X385000D01*
X240000Y290000D02*
Y299000D01*
X222611Y318000D02*
X259000D01*
X245000Y290000D02*
X319000D01*
X344400Y264600D02*
X385000D01*
X69000Y229000D02*
X86000D01*
X97000Y218000D02*
X111560Y232561D01*
X257700Y349000D02*
Y366300D01*
X232000Y373000D02*
X251000D01*
X165000Y349000D02*
Y365000D01*
X142000Y371000D02*
X159000D01*
X232300Y335813D02*
Y349000D01*
X232300Y335803D02*
X232300Y335813D01*
X205000Y290000D02*
Y300389D01*
X144828Y245000D02*
X150000D01*
X138414Y241414D02*
X140000Y243000D01*
X129521Y240000D02*
X135000D01*
X85658Y245658D02*
X88089Y248089D01*
X85658Y245658D02*
X85658Y245658D01*
X91000Y250000D02*
X103000D01*
X85000Y245224D02*
X85000Y245224D01*
X82561Y242561D02*
X85000Y245224D01*
X103121Y249998D02*
X112000Y250000D01*
X115000Y250000D01*
X80000Y240000D02*
X82561Y242561D01*
X141414Y255000D02*
X150000D01*
X136414Y258586D02*
X139000Y256000D01*
X106828Y260000D02*
X133000D01*
X85000Y265000D02*
X94757D01*
X60000D02*
X85000D01*
X144000Y260000D02*
X150000D01*
X130000Y270000D02*
X134000D01*
X112000D02*
X115000D01*
X85000Y290000D02*
X92000D01*
X60000D02*
X85000D01*
X114500Y250500D02*
X115000Y250000D01*
X60000Y240000D02*
X80000D01*
X130000Y250000D02*
X150000D01*
G54D14*
X122000Y365600D02*
D03*
Y380600D02*
D03*
X215000D02*
D03*
Y365600D02*
D03*
X132000Y205000D02*
D03*
Y220000D02*
D03*
X117000Y205000D02*
D03*
Y220000D02*
D03*
X304000Y257000D02*
D03*
Y272000D02*
D03*
X289000Y257000D02*
D03*
Y272000D02*
D03*
X106000Y164000D02*
D03*
Y149000D02*
D03*
G54D22*
X160000Y92000D02*
D03*
X175000D02*
D03*
X77000Y118000D02*
D03*
X92000D02*
D03*
X304000Y107000D02*
D03*
X319000D02*
D03*
X304000Y122000D02*
D03*
X319000D02*
D03*
X305000Y215000D02*
D03*
X290000D02*
D03*
X305000Y200000D02*
D03*
X290000D02*
D03*
X284000Y107000D02*
D03*
X269000D02*
D03*
X284000Y122000D02*
D03*
X269000D02*
D03*
X127000Y118000D02*
D03*
X112000D02*
D03*
X235000Y158000D02*
D03*
X250000D02*
D03*
X170000D02*
D03*
X185000D02*
D03*
X175000Y307000D02*
D03*
X160000D02*
D03*
X45000Y218000D02*
D03*
X60000D02*
D03*
X45000Y240000D02*
D03*
X60000D02*
D03*
X45000Y265000D02*
D03*
X60000D02*
D03*
X45000Y290000D02*
D03*
X60000D02*
D03*
X130000Y250000D02*
D03*
X115000D02*
D03*
X130000Y270000D02*
D03*
X115000D02*
D03*
X269000Y92000D02*
D03*
X284000D02*
D03*
G54D33*
X150000Y270000D02*
D03*
Y265000D02*
D03*
Y260000D02*
D03*
Y255000D02*
D03*
Y250000D02*
D03*
Y245000D02*
D03*
Y240000D02*
D03*
Y235000D02*
D03*
Y230000D02*
D03*
Y225000D02*
D03*
Y220000D02*
D03*
Y215000D02*
D03*
Y210000D02*
D03*
Y205000D02*
D03*
Y200000D02*
D03*
Y195000D02*
D03*
X265000D02*
D03*
Y200000D02*
D03*
Y205000D02*
D03*
Y210000D02*
D03*
Y215000D02*
D03*
Y220000D02*
D03*
Y225000D02*
D03*
Y230000D02*
D03*
Y235000D02*
D03*
Y240000D02*
D03*
Y245000D02*
D03*
Y250000D02*
D03*
Y255000D02*
D03*
Y260000D02*
D03*
Y265000D02*
D03*
Y270000D02*
D03*
G54D34*
X170000Y175000D02*
D03*
X175000D02*
D03*
X180000D02*
D03*
X185000D02*
D03*
X190000D02*
D03*
X195000D02*
D03*
X200000D02*
D03*
X205000D02*
D03*
X210000D02*
D03*
X215000D02*
D03*
X220000D02*
D03*
X225000D02*
D03*
X230000D02*
D03*
X235000D02*
D03*
X240000D02*
D03*
X245000D02*
D03*
Y290000D02*
D03*
X240000D02*
D03*
X235000D02*
D03*
X230000D02*
D03*
X225000D02*
D03*
X220000D02*
D03*
X215000D02*
D03*
X210000D02*
D03*
X205000D02*
D03*
X200000D02*
D03*
X195000D02*
D03*
X190000D02*
D03*
X185000D02*
D03*
X180000D02*
D03*
X175000D02*
D03*
X170000D02*
D03*
G54D35*
X232300Y397200D02*
D03*
X245000D02*
D03*
X257700D02*
D03*
X270400D02*
D03*
X232300Y349000D02*
D03*
X245000Y349000D02*
D03*
X257700D02*
D03*
X270400D02*
D03*
X139600Y397200D02*
D03*
X152300D02*
D03*
X165000D02*
D03*
X177700D02*
D03*
X139600Y349000D02*
D03*
X152300Y349000D02*
D03*
X165000D02*
D03*
X177700D02*
D03*
G54D36*
X173000Y69500D02*
D03*
X181000D02*
D03*
X237000D02*
D03*
X229000D02*
D03*
G54D37*
X192500D02*
D03*
X197500D02*
D03*
X202500D02*
D03*
X187500D02*
D03*
X217500D02*
D03*
X212500D02*
D03*
X207500D02*
D03*
X222500D02*
D03*
G54D38*
X214500Y102000D02*
D03*
X205000D02*
D03*
X195500Y125000D02*
D03*
Y102000D02*
D03*
X205000Y125000D02*
D03*
X214500D02*
D03*
G54D39*
X97000Y218000D02*
D03*
Y240000D02*
D03*
X80000Y218000D02*
D03*
Y240000D02*
D03*
G54D40*
X85000Y290000D02*
D03*
Y265000D02*
D03*
G54D41*
X85000Y140000D02*
D03*
Y174000D02*
D03*
G54D42*
X141500Y439000D02*
D03*
X166900D02*
D03*
X192300D02*
D03*
X217700D02*
D03*
X243100D02*
D03*
X268500D02*
D03*
X293900D02*
D03*
X385000Y239200D02*
D03*
Y264600D02*
D03*
Y315400D02*
D03*
Y340800D02*
D03*
Y290000D02*
D03*
G54D43*
X116100Y439000D02*
D03*
G54D44*
X161750Y63800D02*
D03*
X248250D02*
D03*
G54D45*
X161750Y22000D02*
D03*
X248250D02*
D03*
G54D46*
X385000Y213800D02*
D03*
G54D47*
X106000Y138000D02*
D03*
X182000Y113000D02*
D03*
X205000Y117000D02*
D03*
X248000Y249000D02*
D03*
Y256620D02*
D03*
X208810Y140000D02*
D03*
X201190D02*
D03*
X193570Y84920D02*
D03*
X201190D02*
D03*
X366000Y277000D02*
D03*
X200000Y380000D02*
D03*
X181000Y78000D02*
D03*
X229000D02*
D03*
X272000Y135000D02*
D03*
X208810Y84920D02*
D03*
X216430Y85005D02*
D03*
X319000Y96000D02*
D03*
Y133000D02*
D03*
X297580Y360000D02*
D03*
X368000Y306270D02*
D03*
X45000Y229000D02*
D03*
Y303000D02*
D03*
Y277000D02*
D03*
Y252000D02*
D03*
X368000Y298000D02*
D03*
X345000Y324000D02*
D03*
X358000D02*
D03*
X77000Y128000D02*
D03*
X284000Y360000D02*
D03*
X175000Y316920D02*
D03*
X147000Y307000D02*
D03*
X245000Y333000D02*
D03*
X152000D02*
D03*
X112000Y365600D02*
D03*
X225000Y190000D02*
D03*
X180000Y274000D02*
D03*
X127000Y128000D02*
D03*
X163055Y232006D02*
D03*
X150000Y278000D02*
D03*
X112000Y381000D02*
D03*
X121000Y231000D02*
D03*
X132000D02*
D03*
Y194000D02*
D03*
X305000Y225000D02*
D03*
X293000Y247000D02*
D03*
X304000D02*
D03*
X294000Y404000D02*
D03*
X324000Y265000D02*
D03*
X368000Y354000D02*
D03*
X342000D02*
D03*
X205000Y230000D02*
D03*
X195000Y274000D02*
D03*
X200000Y365000D02*
D03*
X235000Y148000D02*
D03*
X250000D02*
D03*
X305000Y190000D02*
D03*
X330000Y208000D02*
D03*
X316000Y217000D02*
D03*
Y233000D02*
D03*
X336000Y306000D02*
D03*
X332000Y350000D02*
D03*
X289000Y282000D02*
D03*
X304000D02*
D03*
X170000Y148000D02*
D03*
X185000D02*
D03*
X218000Y418000D02*
D03*
X192000D02*
D03*
X117000Y194000D02*
D03*
M02*
