M48
;Layer_Color=9474304
;FILE_FORMAT=4:4
METRIC,LZ
;TYPE=PLATED
T1F00S00C0.2540
T2F00S00C0.3048
T4F00S00C1.0160
T5F00S00C1.0200
%
T01
X0019357Y0008292
X0020119
X0020881
X0021643Y00083005
X00205Y00115
X00208556Y00139
X00201444
X00233Y00239
X00240112
X00305Y0019
T02
X00077Y00128
X00127
X00181Y00078
X00229
X00272Y00135
X00319Y00133
Y00096
X0025Y00148
X00235
X00185
X0017
X00132Y00194
X00117
X00121Y00231
X00132
X00163055Y00232006
X00205Y0023
X00195Y00274
X0018
X0015Y00278
X00147Y00307
X00152Y00333
X00175Y0031692
X002Y00365
Y0038
X00192Y00413
X00218
X00294Y00404
X0029758Y0036
X00284
X00332Y0035
X00342Y00354
X00368
X00358Y00324
X00345
X00336Y00306
X00368Y0030627
Y00298
X00366Y00277
X00324Y00265
X00304Y00282
X00289
X00293Y00247
X00304
X00305Y00225
X00316Y00233
Y00217
X0033Y00208
X00225Y0019
X00245Y00333
X00112Y003656
Y00381
X00045Y00303
Y00277
Y00252
Y00229
T04
X001161Y004296
X001415
X001669
X001923
X002177
X002431
X002685
X002939
Y00455
X002685
X002431
X002177
X001923
X001669
X001415
X001161
T05
X00385Y002138
Y002392
Y002646
Y0029
Y003154
Y003408
M30
