G04*
G04 #@! TF.GenerationSoftware,Altium Limited,Altium Designer,22.9.1 (49)*
G04*
G04 Layer_Color=65535*
%FSLAX44Y44*%
%MOMM*%
G71*
G04*
G04 #@! TF.SameCoordinates,AC89A68A-B202-40CF-82E1-916CA4805ACC*
G04*
G04*
G04 #@! TF.FilePolarity,Positive*
G04*
G01*
G75*
%ADD10C,0.2500*%
%ADD11C,0.6000*%
%ADD12C,0.2000*%
%ADD13C,0.1000*%
G54D10*
X151250Y277000D02*
G03*
X151250Y277000I-1250J0D01*
G01*
G54D11*
X173000Y270000D02*
G03*
X173000Y270000I-3000J0D01*
G01*
G54D12*
X232800Y367750D02*
G03*
X232800Y367750I-1000J0D01*
G01*
X140100D02*
G03*
X140100Y367750I-1000J0D01*
G01*
X186500Y100000D02*
G03*
X186500Y100000I-1000J0D01*
G01*
X160000Y185000D02*
Y280000D01*
X255000Y185000D02*
Y280000D01*
X160000D02*
X255000D01*
X160000Y185000D02*
X255000D01*
X140762Y75999D02*
Y68382D01*
X140286Y66953D01*
X139810Y66477D01*
X138858Y66001D01*
X137906D01*
X136954Y66477D01*
X136478Y66953D01*
X136002Y68382D01*
Y69334D01*
X144285Y75999D02*
X149522D01*
X146666Y72190D01*
X148094D01*
X149046Y71714D01*
X149522Y71238D01*
X149999Y69810D01*
Y68858D01*
X149522Y67429D01*
X148570Y66477D01*
X147142Y66001D01*
X145714D01*
X144285Y66477D01*
X143809Y66953D01*
X143333Y67906D01*
X88761Y462999D02*
Y455382D01*
X88285Y453953D01*
X87809Y453477D01*
X86856Y453001D01*
X85904D01*
X84952Y453477D01*
X84476Y453953D01*
X84000Y455382D01*
Y456334D01*
X91808Y460619D02*
Y461095D01*
X92284Y462047D01*
X92760Y462523D01*
X93712Y462999D01*
X95617D01*
X96569Y462523D01*
X97045Y462047D01*
X97521Y461095D01*
Y460142D01*
X97045Y459190D01*
X96093Y457762D01*
X91332Y453001D01*
X97997D01*
X111000Y240999D02*
Y231001D01*
Y240999D02*
X115285D01*
X116713Y240523D01*
X117189Y240047D01*
X117665Y239095D01*
Y238142D01*
X117189Y237190D01*
X116713Y236714D01*
X115285Y236238D01*
X111000D01*
X114333D02*
X117665Y231001D01*
X119903Y239095D02*
X120855Y239571D01*
X122283Y240999D01*
Y231001D01*
X127711Y238619D02*
Y239095D01*
X128187Y240047D01*
X128663Y240523D01*
X129615Y240999D01*
X131519D01*
X132472Y240523D01*
X132948Y240047D01*
X133424Y239095D01*
Y238142D01*
X132948Y237190D01*
X131995Y235762D01*
X127235Y231001D01*
X133900D01*
X110000Y289999D02*
Y280001D01*
Y289999D02*
X114285D01*
X115713Y289523D01*
X116189Y289047D01*
X116665Y288095D01*
Y287142D01*
X116189Y286190D01*
X115713Y285714D01*
X114285Y285238D01*
X110000D01*
X113333D02*
X116665Y280001D01*
X118903Y288095D02*
X119855Y288571D01*
X121283Y289999D01*
Y280001D01*
X126235Y288095D02*
X127187Y288571D01*
X128615Y289999D01*
Y280001D01*
X71669Y204999D02*
X78335Y195001D01*
Y204999D02*
X71669Y195001D01*
X81048Y202619D02*
Y203095D01*
X81524Y204047D01*
X82001Y204523D01*
X82953Y204999D01*
X84857D01*
X85809Y204523D01*
X86285Y204047D01*
X86761Y203095D01*
Y202142D01*
X86285Y201190D01*
X85333Y199762D01*
X80572Y195001D01*
X87237D01*
X73335Y309999D02*
X80001Y300001D01*
Y309999D02*
X73335Y300001D01*
X82238Y308095D02*
X83190Y308571D01*
X84619Y309999D01*
Y300001D01*
X196669Y309999D02*
Y302858D01*
X197146Y301429D01*
X198098Y300477D01*
X199526Y300001D01*
X200478D01*
X201906Y300477D01*
X202859Y301429D01*
X203335Y302858D01*
Y309999D01*
X211809D02*
X207048D01*
X206572Y305714D01*
X207048Y306190D01*
X208476Y306666D01*
X209905D01*
X211333Y306190D01*
X212285Y305238D01*
X212761Y303810D01*
Y302858D01*
X212285Y301429D01*
X211333Y300477D01*
X209905Y300001D01*
X208476D01*
X207048Y300477D01*
X206572Y300953D01*
X206096Y301905D01*
X175001Y106669D02*
X182142D01*
X183571Y107146D01*
X184523Y108098D01*
X184999Y109526D01*
Y110478D01*
X184523Y111906D01*
X183571Y112858D01*
X182142Y113335D01*
X175001D01*
X177381Y116572D02*
X176905D01*
X175953Y117048D01*
X175477Y117524D01*
X175001Y118476D01*
Y120381D01*
X175477Y121333D01*
X175953Y121809D01*
X176905Y122285D01*
X177858D01*
X178810Y121809D01*
X180238Y120857D01*
X184999Y116096D01*
Y122761D01*
X105000Y406999D02*
Y399858D01*
X105476Y398429D01*
X106428Y397477D01*
X107857Y397001D01*
X108809D01*
X110237Y397477D01*
X111189Y398429D01*
X111665Y399858D01*
Y406999D01*
X114426Y405095D02*
X115379Y405571D01*
X116807Y406999D01*
Y397001D01*
X121758Y406999D02*
Y397001D01*
Y406999D02*
X126043D01*
X127471Y406523D01*
X127947Y406047D01*
X128424Y405095D01*
Y404142D01*
X127947Y403190D01*
X127471Y402714D01*
X126043Y402238D01*
X121758D02*
X126043D01*
X127471Y401762D01*
X127947Y401286D01*
X128424Y400334D01*
Y398905D01*
X127947Y397953D01*
X127471Y397477D01*
X126043Y397001D01*
X121758D01*
X198000Y406999D02*
Y399858D01*
X198476Y398429D01*
X199428Y397477D01*
X200856Y397001D01*
X201809D01*
X203237Y397477D01*
X204189Y398429D01*
X204665Y399858D01*
Y406999D01*
X207426Y405095D02*
X208379Y405571D01*
X209807Y406999D01*
Y397001D01*
X222376D02*
X218567Y406999D01*
X214758Y397001D01*
X216187Y400334D02*
X220947D01*
X63665Y178571D02*
X62713Y179523D01*
X61285Y179999D01*
X59380D01*
X57952Y179523D01*
X57000Y178571D01*
Y177619D01*
X57476Y176666D01*
X57952Y176190D01*
X58904Y175714D01*
X61761Y174762D01*
X62713Y174286D01*
X63189Y173810D01*
X63665Y172858D01*
Y171429D01*
X62713Y170477D01*
X61285Y170001D01*
X59380D01*
X57952Y170477D01*
X57000Y171429D01*
X65903Y178095D02*
X66855Y178571D01*
X68283Y179999D01*
Y170001D01*
X330000Y126999D02*
Y117001D01*
Y126999D02*
X334285D01*
X335713Y126523D01*
X336189Y126047D01*
X336665Y125095D01*
Y124142D01*
X336189Y123190D01*
X335713Y122714D01*
X334285Y122238D01*
X330000D01*
X333333D02*
X336665Y117001D01*
X338903Y125095D02*
X339855Y125571D01*
X341283Y126999D01*
Y117001D01*
X350995Y126999D02*
X346235Y120334D01*
X353376D01*
X350995Y126999D02*
Y117001D01*
X330000Y111999D02*
Y102001D01*
Y111999D02*
X334285D01*
X335713Y111523D01*
X336189Y111047D01*
X336665Y110095D01*
Y109142D01*
X336189Y108190D01*
X335713Y107714D01*
X334285Y107238D01*
X330000D01*
X333333D02*
X336665Y102001D01*
X338903Y110095D02*
X339855Y110571D01*
X341283Y111999D01*
Y102001D01*
X347187Y111999D02*
X352424D01*
X349567Y108190D01*
X350995D01*
X351948Y107714D01*
X352424Y107238D01*
X352900Y105810D01*
Y104858D01*
X352424Y103429D01*
X351472Y102477D01*
X350043Y102001D01*
X348615D01*
X347187Y102477D01*
X346711Y102953D01*
X346235Y103905D01*
X317504Y219999D02*
Y210001D01*
Y219999D02*
X321789D01*
X323217Y219523D01*
X323693Y219047D01*
X324169Y218095D01*
Y217142D01*
X323693Y216190D01*
X323217Y215714D01*
X321789Y215238D01*
X317504D01*
X320837D02*
X324169Y210001D01*
X326407Y218095D02*
X327359Y218571D01*
X328787Y219999D01*
Y210001D01*
X336595Y219999D02*
X335167Y219523D01*
X334215Y218095D01*
X333739Y215714D01*
Y214286D01*
X334215Y211905D01*
X335167Y210477D01*
X336595Y210001D01*
X337547D01*
X338976Y210477D01*
X339928Y211905D01*
X340404Y214286D01*
Y215714D01*
X339928Y218095D01*
X338976Y219523D01*
X337547Y219999D01*
X336595D01*
X316669Y204999D02*
Y195001D01*
Y204999D02*
X320954D01*
X322382Y204523D01*
X322859Y204047D01*
X323335Y203095D01*
Y202142D01*
X322859Y201190D01*
X322382Y200714D01*
X320954Y200238D01*
X316669D01*
X320002D02*
X323335Y195001D01*
X331761Y201666D02*
X331285Y200238D01*
X330333Y199286D01*
X328905Y198810D01*
X328429D01*
X327001Y199286D01*
X326048Y200238D01*
X325572Y201666D01*
Y202142D01*
X326048Y203571D01*
X327001Y204523D01*
X328429Y204999D01*
X328905D01*
X330333Y204523D01*
X331285Y203571D01*
X331761Y201666D01*
Y199286D01*
X331285Y196905D01*
X330333Y195477D01*
X328905Y195001D01*
X327953D01*
X326524Y195477D01*
X326048Y196429D01*
X52000Y122999D02*
Y113001D01*
Y122999D02*
X56285D01*
X57713Y122523D01*
X58189Y122047D01*
X58665Y121095D01*
Y120142D01*
X58189Y119190D01*
X57713Y118714D01*
X56285Y118238D01*
X52000D01*
X55333D02*
X58665Y113001D01*
X66616Y121571D02*
X66140Y122523D01*
X64712Y122999D01*
X63759D01*
X62331Y122523D01*
X61379Y121095D01*
X60903Y118714D01*
Y116334D01*
X61379Y114429D01*
X62331Y113477D01*
X63759Y113001D01*
X64236D01*
X65664Y113477D01*
X66616Y114429D01*
X67092Y115858D01*
Y116334D01*
X66616Y117762D01*
X65664Y118714D01*
X64236Y119190D01*
X63759D01*
X62331Y118714D01*
X61379Y117762D01*
X60903Y116334D01*
X241216Y96999D02*
Y87001D01*
Y96999D02*
X245501D01*
X246929Y96523D01*
X247405Y96047D01*
X247881Y95095D01*
Y94142D01*
X247405Y93190D01*
X246929Y92714D01*
X245501Y92238D01*
X241216D01*
X244549D02*
X247881Y87001D01*
X250595Y94619D02*
Y95095D01*
X251071Y96047D01*
X251547Y96523D01*
X252499Y96999D01*
X254404D01*
X255356Y96523D01*
X255832Y96047D01*
X256308Y95095D01*
Y94142D01*
X255832Y93190D01*
X254880Y91762D01*
X250119Y87001D01*
X256784D01*
X138358Y97999D02*
Y88001D01*
Y97999D02*
X142643D01*
X144071Y97523D01*
X144548Y97047D01*
X145024Y96095D01*
Y95142D01*
X144548Y94190D01*
X144071Y93714D01*
X142643Y93238D01*
X138358D01*
X141691D02*
X145024Y88001D01*
X147261Y96095D02*
X148213Y96571D01*
X149642Y97999D01*
Y88001D01*
X361761Y349999D02*
Y342382D01*
X361285Y340953D01*
X360809Y340477D01*
X359856Y340001D01*
X358904D01*
X357952Y340477D01*
X357476Y340953D01*
X357000Y342382D01*
Y343334D01*
X364332Y348095D02*
X365284Y348571D01*
X366712Y349999D01*
Y340001D01*
X240669Y126999D02*
Y117001D01*
Y126999D02*
X244002D01*
X245430Y126523D01*
X246382Y125571D01*
X246859Y124619D01*
X247335Y123190D01*
Y120810D01*
X246859Y119382D01*
X246382Y118429D01*
X245430Y117477D01*
X244002Y117001D01*
X240669D01*
X254333Y126999D02*
X249572Y120334D01*
X256714D01*
X254333Y126999D02*
Y117001D01*
X240669Y111999D02*
Y102001D01*
Y111999D02*
X244002D01*
X245430Y111523D01*
X246382Y110571D01*
X246859Y109619D01*
X247335Y108190D01*
Y105810D01*
X246859Y104382D01*
X246382Y103429D01*
X245430Y102477D01*
X244002Y102001D01*
X240669D01*
X250524Y111999D02*
X255761D01*
X252905Y108190D01*
X254333D01*
X255285Y107714D01*
X255761Y107238D01*
X256237Y105810D01*
Y104858D01*
X255761Y103429D01*
X254809Y102477D01*
X253381Y102001D01*
X251953D01*
X250524Y102477D01*
X250048Y102953D01*
X249572Y103905D01*
X138216Y122999D02*
Y113001D01*
Y122999D02*
X141549D01*
X142977Y122523D01*
X143929Y121571D01*
X144405Y120618D01*
X144881Y119190D01*
Y116810D01*
X144405Y115381D01*
X143929Y114429D01*
X142977Y113477D01*
X141549Y113001D01*
X138216D01*
X147595Y120618D02*
Y121095D01*
X148071Y122047D01*
X148547Y122523D01*
X149499Y122999D01*
X151404D01*
X152356Y122523D01*
X152832Y122047D01*
X153308Y121095D01*
Y120142D01*
X152832Y119190D01*
X151880Y117762D01*
X147119Y113001D01*
X153784D01*
X17382Y220618D02*
X16906Y221571D01*
X15954Y222523D01*
X15002Y222999D01*
X13097D01*
X12145Y222523D01*
X11193Y221571D01*
X10717Y220618D01*
X10241Y219190D01*
Y216810D01*
X10717Y215382D01*
X11193Y214429D01*
X12145Y213477D01*
X13097Y213001D01*
X15002D01*
X15954Y213477D01*
X16906Y214429D01*
X17382Y215382D01*
X20667Y220618D02*
Y221095D01*
X21143Y222047D01*
X21619Y222523D01*
X22571Y222999D01*
X24476D01*
X25428Y222523D01*
X25904Y222047D01*
X26380Y221095D01*
Y220142D01*
X25904Y219190D01*
X24952Y217762D01*
X20191Y213001D01*
X26856D01*
X31951Y222999D02*
X30522Y222523D01*
X29570Y221095D01*
X29094Y218714D01*
Y217286D01*
X29570Y214905D01*
X30522Y213477D01*
X31951Y213001D01*
X32903D01*
X34331Y213477D01*
X35283Y214905D01*
X35759Y217286D01*
Y218714D01*
X35283Y221095D01*
X34331Y222523D01*
X32903Y222999D01*
X31951D01*
X19406Y242619D02*
X18930Y243571D01*
X17977Y244523D01*
X17025Y244999D01*
X15121D01*
X14169Y244523D01*
X13217Y243571D01*
X12740Y242619D01*
X12264Y241190D01*
Y238810D01*
X12740Y237381D01*
X13217Y236429D01*
X14169Y235477D01*
X15121Y235001D01*
X17025D01*
X17977Y235477D01*
X18930Y236429D01*
X19406Y237381D01*
X22215Y243095D02*
X23167Y243571D01*
X24595Y244999D01*
Y235001D01*
X35736Y241666D02*
X35259Y240238D01*
X34307Y239286D01*
X32879Y238810D01*
X32403D01*
X30975Y239286D01*
X30022Y240238D01*
X29546Y241666D01*
Y242142D01*
X30022Y243571D01*
X30975Y244523D01*
X32403Y244999D01*
X32879D01*
X34307Y244523D01*
X35259Y243571D01*
X35736Y241666D01*
Y239286D01*
X35259Y236905D01*
X34307Y235477D01*
X32879Y235001D01*
X31927D01*
X30499Y235477D01*
X30022Y236429D01*
X123168Y151618D02*
X122692Y152571D01*
X121740Y153523D01*
X120787Y153999D01*
X118883D01*
X117931Y153523D01*
X116979Y152571D01*
X116503Y151618D01*
X116026Y150190D01*
Y147810D01*
X116503Y146382D01*
X116979Y145429D01*
X117931Y144477D01*
X118883Y144001D01*
X120787D01*
X121740Y144477D01*
X122692Y145429D01*
X123168Y146382D01*
X125977Y152095D02*
X126929Y152571D01*
X128357Y153999D01*
Y144001D01*
X135689Y153999D02*
X134261Y153523D01*
X133785Y152571D01*
Y151618D01*
X134261Y150666D01*
X135213Y150190D01*
X137117Y149714D01*
X138545Y149238D01*
X139497Y148286D01*
X139974Y147334D01*
Y145905D01*
X139497Y144953D01*
X139022Y144477D01*
X137593Y144001D01*
X135689D01*
X134261Y144477D01*
X133785Y144953D01*
X133308Y145905D01*
Y147334D01*
X133785Y148286D01*
X134737Y149238D01*
X136165Y149714D01*
X138069Y150190D01*
X139022Y150666D01*
X139497Y151618D01*
Y152571D01*
X139022Y153523D01*
X137593Y153999D01*
X135689D01*
X301381Y291141D02*
X300429Y290665D01*
X299477Y289713D01*
X299001Y288761D01*
Y286856D01*
X299477Y285904D01*
X300429Y284952D01*
X301381Y284476D01*
X302810Y284000D01*
X305190D01*
X306618Y284476D01*
X307571Y284952D01*
X308523Y285904D01*
X308999Y286856D01*
Y288761D01*
X308523Y289713D01*
X307571Y290665D01*
X306618Y291141D01*
X300905Y293950D02*
X300429Y294902D01*
X299001Y296331D01*
X308999D01*
X299001Y307947D02*
X308999Y303186D01*
X299001Y301282D02*
Y307947D01*
X171141Y145618D02*
X170665Y146571D01*
X169713Y147523D01*
X168761Y147999D01*
X166856D01*
X165904Y147523D01*
X164952Y146571D01*
X164476Y145618D01*
X164000Y144190D01*
Y141810D01*
X164476Y140381D01*
X164952Y139429D01*
X165904Y138477D01*
X166856Y138001D01*
X168761D01*
X169713Y138477D01*
X170665Y139429D01*
X171141Y140381D01*
X173950Y146095D02*
X174902Y146571D01*
X176331Y147999D01*
Y138001D01*
X186995Y146571D02*
X186519Y147523D01*
X185091Y147999D01*
X184139D01*
X182710Y147523D01*
X181758Y146095D01*
X181282Y143714D01*
Y141334D01*
X181758Y139429D01*
X182710Y138477D01*
X184139Y138001D01*
X184615D01*
X186043Y138477D01*
X186995Y139429D01*
X187471Y140858D01*
Y141334D01*
X186995Y142762D01*
X186043Y143714D01*
X184615Y144190D01*
X184139D01*
X182710Y143714D01*
X181758Y142762D01*
X181282Y141334D01*
X134168Y309618D02*
X133692Y310571D01*
X132739Y311523D01*
X131787Y311999D01*
X129883D01*
X128931Y311523D01*
X127979Y310571D01*
X127502Y309618D01*
X127026Y308190D01*
Y305810D01*
X127502Y304382D01*
X127979Y303429D01*
X128931Y302477D01*
X129883Y302001D01*
X131787D01*
X132739Y302477D01*
X133692Y303429D01*
X134168Y304382D01*
X136977Y310095D02*
X137929Y310571D01*
X139357Y311999D01*
Y302001D01*
X150021Y311999D02*
X145261D01*
X144784Y307714D01*
X145261Y308190D01*
X146689Y308666D01*
X148117D01*
X149545Y308190D01*
X150498Y307238D01*
X150974Y305810D01*
Y304858D01*
X150498Y303429D01*
X149545Y302477D01*
X148117Y302001D01*
X146689D01*
X145261Y302477D01*
X144784Y302953D01*
X144308Y303905D01*
X237141Y145618D02*
X236665Y146571D01*
X235713Y147523D01*
X234761Y147999D01*
X232857D01*
X231904Y147523D01*
X230952Y146571D01*
X230476Y145618D01*
X230000Y144190D01*
Y141810D01*
X230476Y140381D01*
X230952Y139429D01*
X231904Y138477D01*
X232857Y138001D01*
X234761D01*
X235713Y138477D01*
X236665Y139429D01*
X237141Y140381D01*
X239950Y146095D02*
X240902Y146571D01*
X242331Y147999D01*
Y138001D01*
X252043Y147999D02*
X247282Y141334D01*
X254423D01*
X252043Y147999D02*
Y138001D01*
X19168Y267619D02*
X18692Y268571D01*
X17739Y269523D01*
X16787Y269999D01*
X14883D01*
X13931Y269523D01*
X12979Y268571D01*
X12502Y267619D01*
X12026Y266190D01*
Y263810D01*
X12502Y262381D01*
X12979Y261429D01*
X13931Y260477D01*
X14883Y260001D01*
X16787D01*
X17739Y260477D01*
X18692Y261429D01*
X19168Y262381D01*
X21977Y268095D02*
X22929Y268571D01*
X24357Y269999D01*
Y260001D01*
X30261Y269999D02*
X35498D01*
X32641Y266190D01*
X34069D01*
X35022Y265714D01*
X35498Y265238D01*
X35974Y263810D01*
Y262858D01*
X35498Y261429D01*
X34545Y260477D01*
X33117Y260001D01*
X31689D01*
X30261Y260477D01*
X29785Y260953D01*
X29308Y261905D01*
X19168Y292619D02*
X18692Y293571D01*
X17739Y294523D01*
X16787Y294999D01*
X14883D01*
X13931Y294523D01*
X12979Y293571D01*
X12502Y292619D01*
X12026Y291190D01*
Y288810D01*
X12502Y287381D01*
X12979Y286429D01*
X13931Y285477D01*
X14883Y285001D01*
X16787D01*
X17739Y285477D01*
X18692Y286429D01*
X19168Y287381D01*
X21977Y293095D02*
X22929Y293571D01*
X24357Y294999D01*
Y285001D01*
X29785Y292619D02*
Y293095D01*
X30261Y294047D01*
X30737Y294523D01*
X31689Y294999D01*
X33593D01*
X34545Y294523D01*
X35022Y294047D01*
X35498Y293095D01*
Y292142D01*
X35022Y291190D01*
X34069Y289762D01*
X29308Y285001D01*
X35974D01*
X286381Y291141D02*
X285429Y290665D01*
X284477Y289713D01*
X284001Y288761D01*
Y286857D01*
X284477Y285904D01*
X285429Y284952D01*
X286381Y284476D01*
X287810Y284000D01*
X290190D01*
X291618Y284476D01*
X292571Y284952D01*
X293523Y285904D01*
X293999Y286857D01*
Y288761D01*
X293523Y289713D01*
X292571Y290665D01*
X291618Y291141D01*
X285905Y293950D02*
X285429Y294902D01*
X284001Y296331D01*
X293999D01*
X285905Y301282D02*
X285429Y302234D01*
X284001Y303662D01*
X293999D01*
X114382Y179168D02*
X113429Y178692D01*
X112477Y177739D01*
X112001Y176787D01*
Y174883D01*
X112477Y173931D01*
X113429Y172978D01*
X114382Y172502D01*
X115810Y172026D01*
X118190D01*
X119619Y172502D01*
X120571Y172978D01*
X121523Y173931D01*
X121999Y174883D01*
Y176787D01*
X121523Y177739D01*
X120571Y178692D01*
X119619Y179168D01*
X113905Y181977D02*
X113429Y182929D01*
X112001Y184357D01*
X121999D01*
X112001Y192165D02*
X112477Y190737D01*
X113905Y189785D01*
X116286Y189308D01*
X117714D01*
X120095Y189785D01*
X121523Y190737D01*
X121999Y192165D01*
Y193117D01*
X121523Y194545D01*
X120095Y195497D01*
X117714Y195974D01*
X116286D01*
X113905Y195497D01*
X112477Y194545D01*
X112001Y193117D01*
Y192165D01*
X129382Y179072D02*
X128429Y178596D01*
X127477Y177643D01*
X127001Y176691D01*
Y174787D01*
X127477Y173835D01*
X128429Y172882D01*
X129382Y172406D01*
X130810Y171930D01*
X133190D01*
X134619Y172406D01*
X135571Y172882D01*
X136523Y173835D01*
X136999Y174787D01*
Y176691D01*
X136523Y177643D01*
X135571Y178596D01*
X134619Y179072D01*
X130334Y188070D02*
X131762Y187594D01*
X132714Y186642D01*
X133190Y185213D01*
Y184737D01*
X132714Y183309D01*
X131762Y182357D01*
X130334Y181881D01*
X129858D01*
X128429Y182357D01*
X127477Y183309D01*
X127001Y184737D01*
Y185213D01*
X127477Y186642D01*
X128429Y187594D01*
X130334Y188070D01*
X132714D01*
X135094Y187594D01*
X136523Y186642D01*
X136999Y185213D01*
Y184261D01*
X136523Y182833D01*
X135571Y182357D01*
X197381Y367141D02*
X196429Y366665D01*
X195477Y365713D01*
X195001Y364761D01*
Y362856D01*
X195477Y361904D01*
X196429Y360952D01*
X197381Y360476D01*
X198810Y360000D01*
X201190D01*
X202619Y360476D01*
X203571Y360952D01*
X204523Y361904D01*
X204999Y362856D01*
Y364761D01*
X204523Y365713D01*
X203571Y366665D01*
X202619Y367141D01*
X196905Y369950D02*
X196429Y370902D01*
X195001Y372331D01*
X204999D01*
X195001Y377282D02*
X204999D01*
X195001D02*
Y381567D01*
X195477Y382995D01*
X195953Y383471D01*
X196905Y383947D01*
X197858D01*
X198810Y383471D01*
X199286Y382995D01*
X199762Y381567D01*
Y377282D02*
Y381567D01*
X200238Y382995D01*
X200714Y383471D01*
X201666Y383947D01*
X203095D01*
X204047Y383471D01*
X204523Y382995D01*
X204999Y381567D01*
Y377282D01*
X104382Y368141D02*
X103429Y367665D01*
X102477Y366713D01*
X102001Y365761D01*
Y363857D01*
X102477Y362904D01*
X103429Y361952D01*
X104382Y361476D01*
X105810Y361000D01*
X108190D01*
X109619Y361476D01*
X110571Y361952D01*
X111523Y362904D01*
X111999Y363857D01*
Y365761D01*
X111523Y366713D01*
X110571Y367665D01*
X109619Y368141D01*
X103905Y370950D02*
X103429Y371902D01*
X102001Y373331D01*
X111999D01*
Y385899D02*
X102001Y382091D01*
X111999Y378282D01*
X108666Y379710D02*
Y384471D01*
G54D13*
X128250Y359350D02*
Y386850D01*
X115750Y359350D02*
Y386850D01*
X128250D01*
X115750Y359350D02*
X128250D01*
X208750D02*
X221250D01*
X208750Y386850D02*
X221250D01*
X208750Y359350D02*
Y386850D01*
X221250Y359350D02*
Y386850D01*
X226950Y362975D02*
X275750D01*
X226950Y383225D02*
X275750D01*
X226950Y362975D02*
Y383225D01*
X275750Y362975D02*
Y383225D01*
X134250Y362975D02*
X183050D01*
X134250Y383225D02*
X183050D01*
X134250Y362975D02*
Y383225D01*
X183050Y362975D02*
Y383225D01*
X153750Y85750D02*
Y98250D01*
X181250Y85750D02*
Y98250D01*
X153750D02*
X181250D01*
X153750Y85750D02*
X181250D01*
X125750Y226250D02*
X138250D01*
X125750Y198750D02*
X138250D01*
Y226250D01*
X125750Y198750D02*
Y226250D01*
X70750Y124250D02*
X98250D01*
X70750Y111750D02*
X98250D01*
X70750D02*
Y124250D01*
X98250Y111750D02*
Y124250D01*
X297750Y113250D02*
X325250D01*
X297750Y100750D02*
X325250D01*
X297750D02*
Y113250D01*
X325250Y100750D02*
Y113250D01*
X297750Y128250D02*
X325250D01*
X297750Y115750D02*
X325250D01*
X297750D02*
Y128250D01*
X325250Y115750D02*
Y128250D01*
X311250Y208750D02*
Y221250D01*
X283750Y208750D02*
Y221250D01*
Y208750D02*
X311250D01*
X283750Y221250D02*
X311250D01*
X103400Y416900D02*
X306600D01*
Y467700D01*
X103400D02*
X306600D01*
X103400Y416900D02*
Y467700D01*
X110750Y226250D02*
X123250D01*
X110750Y198750D02*
X123250D01*
Y226250D01*
X110750Y198750D02*
Y226250D01*
X373000Y352800D02*
X397000D01*
X373000Y201800D02*
X397000D01*
X373000D02*
Y352800D01*
X397000Y201800D02*
Y352800D01*
X310250Y250750D02*
Y278250D01*
X297750Y250750D02*
Y278250D01*
X310250D01*
X297750Y250750D02*
X310250D01*
X295250D02*
Y278250D01*
X282750Y250750D02*
Y278250D01*
X295250D01*
X282750Y250750D02*
X295250D01*
X283750Y193750D02*
X311250D01*
X283750Y206250D02*
X311250D01*
Y193750D02*
Y206250D01*
X283750Y193750D02*
Y206250D01*
X292000Y101000D02*
Y113000D01*
X262750Y100750D02*
Y113250D01*
X290250Y100750D02*
Y113250D01*
X262750D02*
X290250D01*
X262750Y100750D02*
X290250D01*
X292000Y116000D02*
Y128000D01*
X262750Y115750D02*
Y128250D01*
X290250Y115750D02*
Y128250D01*
X262750D02*
X290250D01*
X262750Y115750D02*
X290250D01*
X105750Y124250D02*
X133250D01*
X105750Y111750D02*
X133250D01*
X105750D02*
Y124250D01*
X133250Y111750D02*
Y124250D01*
X104000Y112000D02*
Y124000D01*
X228750Y151750D02*
X256250D01*
X228750Y164250D02*
X256250D01*
Y151750D02*
Y164250D01*
X228750Y151750D02*
Y164250D01*
X189500Y91000D02*
X220500D01*
X189500Y132000D02*
X220500D01*
Y91000D02*
Y132000D01*
X189500Y91000D02*
Y132000D01*
X163750Y151750D02*
X191250D01*
X163750Y164250D02*
X191250D01*
Y151750D02*
Y164250D01*
X163750Y151750D02*
Y164250D01*
X106000Y208000D02*
Y250000D01*
X71000Y208000D02*
Y250000D01*
X106000D01*
X71000Y208000D02*
X106000D01*
X74000Y258000D02*
X96000D01*
X74000Y297000D02*
X96000D01*
X74000Y258000D02*
Y297000D01*
X96000Y258000D02*
Y297000D01*
X153750Y313250D02*
X181250D01*
X153750Y300750D02*
X181250D01*
X153750D02*
Y313250D01*
X181250Y300750D02*
Y313250D01*
X99750Y142750D02*
Y170250D01*
X112250Y142750D02*
Y170250D01*
X99750Y142750D02*
X112250D01*
X99750Y170250D02*
X112250D01*
X73000Y133000D02*
Y181000D01*
X97000Y133000D02*
Y181000D01*
X73000Y133000D02*
X97000D01*
X73000Y181000D02*
X97000D01*
X66250Y211750D02*
Y224250D01*
X38750Y211750D02*
Y224250D01*
Y211750D02*
X66250D01*
X38750Y224250D02*
X66250D01*
Y233750D02*
Y246250D01*
X38750Y233750D02*
Y246250D01*
Y233750D02*
X66250D01*
X38750Y246250D02*
X66250D01*
X38750Y258750D02*
X66250D01*
X38750Y271250D02*
X66250D01*
Y258750D02*
Y271250D01*
X38750Y258750D02*
Y271250D01*
Y283750D02*
X66250D01*
X38750Y296250D02*
X66250D01*
Y283750D02*
Y296250D01*
X38750Y283750D02*
Y296250D01*
X108750Y243750D02*
X136250D01*
X108750Y256250D02*
X136250D01*
Y243750D02*
Y256250D01*
X108750Y243750D02*
Y256250D01*
X136250Y263750D02*
Y276250D01*
X108750Y263750D02*
Y276250D01*
Y263750D02*
X136250D01*
X108750Y276250D02*
X136250D01*
X262750Y98250D02*
X290250D01*
X262750Y85750D02*
X290250D01*
X262750D02*
Y98250D01*
X290250Y85750D02*
Y98250D01*
M02*
