G04*
G04 #@! TF.GenerationSoftware,Altium Limited,Altium Designer,22.9.1 (49)*
G04*
G04 Layer_Color=16711935*
%FSLAX44Y44*%
%MOMM*%
G71*
G04*
G04 #@! TF.SameCoordinates,AC89A68A-B202-40CF-82E1-916CA4805ACC*
G04*
G04*
G04 #@! TF.FilePolarity,Positive*
G04*
G01*
G75*
%ADD12C,0.2000*%
%ADD13C,0.1000*%
G54D12*
X248000Y355000D02*
X265000D01*
X248000D02*
Y385000D01*
X265000Y355000D02*
Y385000D01*
X248000D02*
X265000D01*
X226950Y353550D02*
X275750D01*
X226950Y392650D02*
X275750D01*
X226950Y353550D02*
Y392650D01*
X275750Y353550D02*
Y392650D01*
X134250Y353550D02*
X183050D01*
X134250Y392650D02*
X183050D01*
X134250Y353550D02*
Y392650D01*
X183050Y353550D02*
Y392650D01*
X160300Y1500D02*
Y64400D01*
X249700Y1500D02*
Y64400D01*
X160300D02*
X249700D01*
X160300Y1500D02*
X249700D01*
X190000Y103000D02*
Y120000D01*
Y103000D02*
X220000D01*
X190000Y120000D02*
X220000D01*
Y103000D02*
Y120000D01*
G54D13*
X171500Y273500D02*
G03*
X171500Y273500I-5000J0D01*
G01*
X157500Y182500D02*
Y282500D01*
X257500Y182500D02*
Y282500D01*
X157500D02*
X257500D01*
X157500Y182500D02*
X257500D01*
M02*
