G04*
G04 #@! TF.GenerationSoftware,Altium Limited,Altium Designer,22.9.1 (49)*
G04*
G04 Layer_Physical_Order=3*
G04 Layer_Color=16440176*
%FSLAX44Y44*%
%MOMM*%
G71*
G04*
G04 #@! TF.SameCoordinates,024F3706-CBB7-462D-A25A-2E94323683B0*
G04*
G04*
G04 #@! TF.FilePolarity,Positive*
G04*
G01*
G75*
%ADD42C,2.0000*%
%ADD43R,2.0000X2.0000*%
%ADD44O,0.9000X2.0000*%
%ADD45O,0.9000X1.7000*%
%ADD46R,2.0000X2.0000*%
%ADD47C,0.5080*%
G36*
X335001Y398951D02*
X335124Y396461D01*
X336095Y391578D01*
X338001Y386977D01*
X340767Y382837D01*
X342441Y380990D01*
X350650Y372782D01*
Y372782D01*
X352497Y371108D01*
X356637Y368341D01*
X361237Y366436D01*
X366121Y365465D01*
X368610Y365342D01*
X409174D01*
X410000Y364367D01*
X410000Y210000D01*
X356929Y71004D01*
X356913Y70976D01*
X356217Y69973D01*
X356098Y69997D01*
X356037Y70000D01*
X298952Y70000D01*
X298952Y70000D01*
X296463Y69878D01*
X291579Y68906D01*
X286979Y67001D01*
X282839Y64234D01*
X280992Y62561D01*
X272439Y54008D01*
X272439Y54008D01*
X270765Y52161D01*
X267999Y48021D01*
X266094Y43421D01*
X265122Y38537D01*
X265000Y36048D01*
Y32622D01*
X265000Y61D01*
X145897D01*
X144999Y959D01*
X145000Y26000D01*
Y36048D01*
X145000D01*
X145000Y36048D01*
X144878Y38537D01*
X143906Y43421D01*
X142001Y48021D01*
X139234Y52161D01*
X137561Y54008D01*
X129008Y62561D01*
X129008Y62561D01*
X127161Y64234D01*
X123021Y67001D01*
X118421Y68906D01*
X113537Y69878D01*
X111048Y70000D01*
X107622Y70000D01*
Y70152D01*
X53397D01*
X0Y210000D01*
Y365000D01*
X41047D01*
X43537Y365122D01*
X48421Y366094D01*
X53021Y367999D01*
X57161Y370765D01*
X59008Y372439D01*
X67218Y380650D01*
X67218D01*
X67218Y380650D01*
X68892Y382497D01*
X71659Y386637D01*
X73564Y391237D01*
X74535Y396121D01*
X74658Y398610D01*
X74658Y469659D01*
X74998Y470000D01*
X335001D01*
Y398951D01*
D02*
G37*
%LPC*%
G36*
X295551Y451540D02*
X292249D01*
X289060Y450685D01*
X286200Y449035D01*
X283866Y446700D01*
X282215Y443840D01*
X281857Y442507D01*
X280543D01*
X280185Y443840D01*
X278535Y446700D01*
X276200Y449035D01*
X273340Y450685D01*
X270151Y451540D01*
X266849D01*
X263660Y450685D01*
X260800Y449035D01*
X258465Y446700D01*
X256815Y443840D01*
X256457Y442507D01*
X255143D01*
X254785Y443840D01*
X253134Y446700D01*
X250800Y449035D01*
X247940Y450685D01*
X244751Y451540D01*
X241449D01*
X238260Y450685D01*
X235400Y449035D01*
X233065Y446700D01*
X231415Y443840D01*
X231057Y442507D01*
X229743D01*
X229385Y443840D01*
X227735Y446700D01*
X225400Y449035D01*
X222540Y450685D01*
X219351Y451540D01*
X218970D01*
Y439000D01*
Y426460D01*
X219351D01*
X222540Y427315D01*
X225400Y428965D01*
X227735Y431300D01*
X229385Y434160D01*
X229743Y435493D01*
X231057D01*
X231415Y434160D01*
X233065Y431300D01*
X235400Y428965D01*
X238260Y427315D01*
X241449Y426460D01*
X244751D01*
X247940Y427315D01*
X250800Y428965D01*
X253134Y431300D01*
X254785Y434160D01*
X255143Y435493D01*
X256457D01*
X256815Y434160D01*
X258465Y431300D01*
X260800Y428965D01*
X263660Y427315D01*
X266849Y426460D01*
X270151D01*
X273340Y427315D01*
X276200Y428965D01*
X278535Y431300D01*
X280185Y434160D01*
X280543Y435493D01*
X281857D01*
X282215Y434160D01*
X283866Y431300D01*
X286200Y428965D01*
X289060Y427315D01*
X292249Y426460D01*
X295551D01*
X298740Y427315D01*
X301600Y428965D01*
X303934Y431300D01*
X305585Y434160D01*
X306440Y437349D01*
Y440651D01*
X305585Y443840D01*
X303934Y446700D01*
X301600Y449035D01*
X298740Y450685D01*
X295551Y451540D01*
D02*
G37*
G36*
X216430D02*
X216049D01*
X212860Y450685D01*
X210000Y449035D01*
X207666Y446700D01*
X206015Y443840D01*
X205657Y442507D01*
X204343D01*
X203985Y443840D01*
X202334Y446700D01*
X200000Y449035D01*
X197140Y450685D01*
X193951Y451540D01*
X193570D01*
Y439000D01*
Y426460D01*
X193951D01*
X197140Y427315D01*
X200000Y428965D01*
X202334Y431300D01*
X203985Y434160D01*
X204343Y435493D01*
X205657D01*
X206015Y434160D01*
X207666Y431300D01*
X210000Y428965D01*
X212860Y427315D01*
X216049Y426460D01*
X216430D01*
Y439000D01*
Y451540D01*
D02*
G37*
G36*
X191030D02*
X190649D01*
X187460Y450685D01*
X184600Y449035D01*
X182265Y446700D01*
X180615Y443840D01*
X180257Y442507D01*
X178943D01*
X178585Y443840D01*
X176935Y446700D01*
X174600Y449035D01*
X171740Y450685D01*
X168551Y451540D01*
X165249D01*
X162060Y450685D01*
X159200Y449035D01*
X156866Y446700D01*
X155215Y443840D01*
X154857Y442507D01*
X153543D01*
X153185Y443840D01*
X151535Y446700D01*
X149200Y449035D01*
X146340Y450685D01*
X143151Y451540D01*
X139849D01*
X136660Y450685D01*
X133800Y449035D01*
X131466Y446700D01*
X130517Y445056D01*
X128855Y444719D01*
X128640Y444882D01*
Y451540D01*
X103560D01*
Y426460D01*
X128640D01*
Y433118D01*
X128855Y433281D01*
X130517Y432944D01*
X131466Y431300D01*
X133800Y428965D01*
X136660Y427315D01*
X139849Y426460D01*
X143151D01*
X146340Y427315D01*
X149200Y428965D01*
X151535Y431300D01*
X153185Y434160D01*
X153543Y435493D01*
X154857D01*
X155215Y434160D01*
X156866Y431300D01*
X159200Y428965D01*
X162060Y427315D01*
X165249Y426460D01*
X168551D01*
X171740Y427315D01*
X174600Y428965D01*
X176935Y431300D01*
X178585Y434160D01*
X178943Y435493D01*
X180257D01*
X180615Y434160D01*
X182265Y431300D01*
X184600Y428965D01*
X187460Y427315D01*
X190649Y426460D01*
X191030D01*
Y439000D01*
Y451540D01*
D02*
G37*
G36*
X219270Y422972D02*
Y419270D01*
X222973D01*
X222307Y420878D01*
X220878Y422307D01*
X219270Y422972D01*
D02*
G37*
G36*
X216730D02*
X215122Y422307D01*
X213693Y420878D01*
X213027Y419270D01*
X216730D01*
Y422972D01*
D02*
G37*
G36*
X193270D02*
Y419270D01*
X196973D01*
X196307Y420878D01*
X194878Y422307D01*
X193270Y422972D01*
D02*
G37*
G36*
X190730D02*
X189122Y422307D01*
X187693Y420878D01*
X187027Y419270D01*
X190730D01*
Y422972D01*
D02*
G37*
G36*
X222973Y416730D02*
X219270D01*
Y413027D01*
X220878Y413693D01*
X222307Y415122D01*
X222973Y416730D01*
D02*
G37*
G36*
X216730D02*
X213027D01*
X213693Y415122D01*
X215122Y413693D01*
X216730Y413027D01*
Y416730D01*
D02*
G37*
G36*
X196973D02*
X193270D01*
Y413027D01*
X194878Y413693D01*
X196307Y415122D01*
X196973Y416730D01*
D02*
G37*
G36*
X190730D02*
X187027D01*
X187693Y415122D01*
X189122Y413693D01*
X190730Y413027D01*
Y416730D01*
D02*
G37*
G36*
X295270Y408973D02*
Y405270D01*
X298972D01*
X298307Y406878D01*
X296878Y408307D01*
X295270Y408973D01*
D02*
G37*
G36*
X292730D02*
X291122Y408307D01*
X289693Y406878D01*
X289028Y405270D01*
X292730D01*
Y408973D01*
D02*
G37*
G36*
X298972Y402730D02*
X295270D01*
Y399027D01*
X296878Y399693D01*
X298307Y401122D01*
X298972Y402730D01*
D02*
G37*
G36*
X292730D02*
X289028D01*
X289693Y401122D01*
X291122Y399693D01*
X292730Y399027D01*
Y402730D01*
D02*
G37*
G36*
X113011Y386080D02*
X110990D01*
X109122Y385307D01*
X107693Y383878D01*
X106920Y382010D01*
Y379990D01*
X107693Y378122D01*
X109122Y376693D01*
X110990Y375920D01*
X113011D01*
X114878Y376693D01*
X116307Y378122D01*
X117080Y379990D01*
Y382010D01*
X116307Y383878D01*
X114878Y385307D01*
X113011Y386080D01*
D02*
G37*
G36*
X201010Y385080D02*
X198990D01*
X197122Y384307D01*
X195693Y382878D01*
X194920Y381011D01*
Y378989D01*
X195693Y377122D01*
X197122Y375693D01*
X198990Y374920D01*
X201010D01*
X202878Y375693D01*
X204307Y377122D01*
X205080Y378989D01*
Y381011D01*
X204307Y382878D01*
X202878Y384307D01*
X201010Y385080D01*
D02*
G37*
G36*
X113270Y370573D02*
Y366870D01*
X116973D01*
X116307Y368478D01*
X114878Y369907D01*
X113270Y370573D01*
D02*
G37*
G36*
X110730D02*
X109122Y369907D01*
X107693Y368478D01*
X107028Y366870D01*
X110730D01*
Y370573D01*
D02*
G37*
G36*
X201270Y369972D02*
Y366270D01*
X204972D01*
X204307Y367878D01*
X202878Y369307D01*
X201270Y369972D01*
D02*
G37*
G36*
X198730D02*
X197122Y369307D01*
X195693Y367878D01*
X195028Y366270D01*
X198730D01*
Y369972D01*
D02*
G37*
G36*
X116973Y364330D02*
X113270D01*
Y360628D01*
X114878Y361293D01*
X116307Y362722D01*
X116973Y364330D01*
D02*
G37*
G36*
X110730D02*
X107028D01*
X107693Y362722D01*
X109122Y361293D01*
X110730Y360628D01*
Y364330D01*
D02*
G37*
G36*
X204972Y363730D02*
X201270D01*
Y360028D01*
X202878Y360693D01*
X204307Y362122D01*
X204972Y363730D01*
D02*
G37*
G36*
X198730D02*
X195028D01*
X195693Y362122D01*
X197122Y360693D01*
X198730Y360028D01*
Y363730D01*
D02*
G37*
G36*
X369270Y358973D02*
Y355270D01*
X372972D01*
X372307Y356878D01*
X370878Y358307D01*
X369270Y358973D01*
D02*
G37*
G36*
X366730D02*
X365122Y358307D01*
X363693Y356878D01*
X363027Y355270D01*
X366730D01*
Y358973D01*
D02*
G37*
G36*
X343270D02*
Y355270D01*
X346973D01*
X346307Y356878D01*
X344878Y358307D01*
X343270Y358973D01*
D02*
G37*
G36*
X298591Y365080D02*
X296569D01*
X294702Y364307D01*
X293273Y362878D01*
X292500Y361011D01*
Y358989D01*
X293273Y357122D01*
X294702Y355693D01*
X296569Y354920D01*
X298591D01*
X300458Y355693D01*
X301887Y357122D01*
X302660Y358989D01*
Y361011D01*
X301887Y362878D01*
X300458Y364307D01*
X298591Y365080D01*
D02*
G37*
G36*
X285011D02*
X282990D01*
X281122Y364307D01*
X279693Y362878D01*
X278920Y361011D01*
Y358989D01*
X279693Y357122D01*
X281122Y355693D01*
X282990Y354920D01*
X285011D01*
X286878Y355693D01*
X288307Y357122D01*
X289080Y358989D01*
Y361011D01*
X288307Y362878D01*
X286878Y364307D01*
X285011Y365080D01*
D02*
G37*
G36*
X340730Y358973D02*
X339122Y358307D01*
X337693Y356878D01*
X336920Y355010D01*
Y354060D01*
X335650Y353534D01*
X334878Y354307D01*
X333010Y355080D01*
X330989D01*
X329122Y354307D01*
X327693Y352878D01*
X326920Y351011D01*
Y348989D01*
X327693Y347122D01*
X329122Y345693D01*
X330989Y344920D01*
X333010D01*
X334878Y345693D01*
X336307Y347122D01*
X337080Y348989D01*
Y349940D01*
X338350Y350466D01*
X339122Y349693D01*
X340730Y349027D01*
Y354000D01*
Y358973D01*
D02*
G37*
G36*
X372972Y352730D02*
X369270D01*
Y349027D01*
X370878Y349693D01*
X372307Y351122D01*
X372972Y352730D01*
D02*
G37*
G36*
X366730D02*
X363027D01*
X363693Y351122D01*
X365122Y349693D01*
X366730Y349027D01*
Y352730D01*
D02*
G37*
G36*
X346973D02*
X343270D01*
Y349027D01*
X344878Y349693D01*
X346307Y351122D01*
X346973Y352730D01*
D02*
G37*
G36*
X386651Y353340D02*
X386270D01*
Y342070D01*
X397540D01*
Y342451D01*
X396685Y345640D01*
X395034Y348500D01*
X392700Y350835D01*
X389840Y352485D01*
X386651Y353340D01*
D02*
G37*
G36*
X383730D02*
X383349D01*
X380160Y352485D01*
X377300Y350835D01*
X374966Y348500D01*
X373315Y345640D01*
X372460Y342451D01*
Y342070D01*
X383730D01*
Y353340D01*
D02*
G37*
G36*
X246270Y337972D02*
Y334270D01*
X249972D01*
X249307Y335878D01*
X247878Y337307D01*
X246270Y337972D01*
D02*
G37*
G36*
X243730D02*
X242122Y337307D01*
X240693Y335878D01*
X240028Y334270D01*
X243730D01*
Y337972D01*
D02*
G37*
G36*
X153270D02*
Y334270D01*
X156973D01*
X156307Y335878D01*
X154878Y337307D01*
X153270Y337972D01*
D02*
G37*
G36*
X150730D02*
X149122Y337307D01*
X147693Y335878D01*
X147028Y334270D01*
X150730D01*
Y337972D01*
D02*
G37*
G36*
X249972Y331730D02*
X246270D01*
Y328027D01*
X247878Y328693D01*
X249307Y330122D01*
X249972Y331730D01*
D02*
G37*
G36*
X243730D02*
X240028D01*
X240693Y330122D01*
X242122Y328693D01*
X243730Y328027D01*
Y331730D01*
D02*
G37*
G36*
X156973D02*
X153270D01*
Y328027D01*
X154878Y328693D01*
X156307Y330122D01*
X156973Y331730D01*
D02*
G37*
G36*
X150730D02*
X147028D01*
X147693Y330122D01*
X149122Y328693D01*
X150730Y328027D01*
Y331730D01*
D02*
G37*
G36*
X359011Y329080D02*
X356990D01*
X355122Y328307D01*
X353693Y326878D01*
X352920Y325010D01*
Y322990D01*
X353693Y321122D01*
X355122Y319693D01*
X356990Y318920D01*
X359011D01*
X360878Y319693D01*
X362307Y321122D01*
X363080Y322990D01*
Y325010D01*
X362307Y326878D01*
X360878Y328307D01*
X359011Y329080D01*
D02*
G37*
G36*
X346011D02*
X343989D01*
X342122Y328307D01*
X340693Y326878D01*
X339920Y325010D01*
Y322990D01*
X340693Y321122D01*
X342122Y319693D01*
X343989Y318920D01*
X346011D01*
X347878Y319693D01*
X349307Y321122D01*
X350080Y322990D01*
Y325010D01*
X349307Y326878D01*
X347878Y328307D01*
X346011Y329080D01*
D02*
G37*
G36*
X176270Y321893D02*
Y318190D01*
X179972D01*
X179307Y319798D01*
X177878Y321227D01*
X176270Y321893D01*
D02*
G37*
G36*
X173730D02*
X172122Y321227D01*
X170693Y319798D01*
X170028Y318190D01*
X173730D01*
Y321893D01*
D02*
G37*
G36*
X179972Y315650D02*
X176270D01*
Y311947D01*
X177878Y312613D01*
X179307Y314042D01*
X179972Y315650D01*
D02*
G37*
G36*
X173730D02*
X170028D01*
X170693Y314042D01*
X172122Y312613D01*
X173730Y311947D01*
Y315650D01*
D02*
G37*
G36*
X369270Y311243D02*
Y307540D01*
X372972D01*
X372307Y309148D01*
X370878Y310577D01*
X369270Y311243D01*
D02*
G37*
G36*
X366730D02*
X365122Y310577D01*
X363693Y309148D01*
X363027Y307540D01*
X366730D01*
Y311243D01*
D02*
G37*
G36*
X46270Y307973D02*
Y304270D01*
X49973D01*
X49307Y305878D01*
X47878Y307307D01*
X46270Y307973D01*
D02*
G37*
G36*
X43730D02*
X42122Y307307D01*
X40693Y305878D01*
X40027Y304270D01*
X43730D01*
Y307973D01*
D02*
G37*
G36*
X148011Y312080D02*
X145990D01*
X144122Y311307D01*
X142693Y309878D01*
X141920Y308011D01*
Y305989D01*
X142693Y304122D01*
X144122Y302693D01*
X145990Y301920D01*
X148011D01*
X149878Y302693D01*
X151307Y304122D01*
X152080Y305989D01*
Y308011D01*
X151307Y309878D01*
X149878Y311307D01*
X148011Y312080D01*
D02*
G37*
G36*
X337010Y311080D02*
X334990D01*
X333122Y310307D01*
X331693Y308878D01*
X330920Y307010D01*
Y304989D01*
X331693Y303122D01*
X333122Y301693D01*
X334990Y300920D01*
X337010D01*
X338878Y301693D01*
X340307Y303122D01*
X341080Y304989D01*
Y307010D01*
X340307Y308878D01*
X338878Y310307D01*
X337010Y311080D01*
D02*
G37*
G36*
X372972Y305000D02*
X363027D01*
X363693Y303392D01*
X364951Y302135D01*
X363693Y300878D01*
X363027Y299270D01*
X372972D01*
X372307Y300878D01*
X371049Y302135D01*
X372307Y303392D01*
X372972Y305000D01*
D02*
G37*
G36*
X49973Y301730D02*
X46270D01*
Y298027D01*
X47878Y298693D01*
X49307Y300122D01*
X49973Y301730D01*
D02*
G37*
G36*
X43730D02*
X40027D01*
X40693Y300122D01*
X42122Y298693D01*
X43730Y298027D01*
Y301730D01*
D02*
G37*
G36*
X397540Y339530D02*
X385000D01*
X372460D01*
Y339149D01*
X373315Y335960D01*
X374966Y333100D01*
X377300Y330765D01*
X380160Y329115D01*
X381493Y328757D01*
Y327443D01*
X380160Y327085D01*
X377300Y325434D01*
X374966Y323100D01*
X373315Y320240D01*
X372460Y317051D01*
Y313749D01*
X373315Y310560D01*
X374966Y307700D01*
X377300Y305366D01*
X380160Y303715D01*
X381493Y303357D01*
Y302043D01*
X380160Y301685D01*
X377300Y300035D01*
X374966Y297700D01*
X374199Y296371D01*
X373471Y296730D01*
X369270D01*
Y293027D01*
X370878Y293693D01*
X371991Y294806D01*
X373129Y294149D01*
X372460Y291651D01*
Y288349D01*
X373315Y285160D01*
X374966Y282300D01*
X377300Y279965D01*
X380160Y278315D01*
X381493Y277957D01*
Y276643D01*
X380160Y276285D01*
X377300Y274634D01*
X374966Y272300D01*
X373315Y269440D01*
X372460Y266251D01*
Y262949D01*
X373315Y259760D01*
X374966Y256900D01*
X377300Y254566D01*
X380160Y252915D01*
X381493Y252557D01*
Y251243D01*
X380160Y250885D01*
X377300Y249235D01*
X374966Y246900D01*
X373315Y244040D01*
X372460Y240851D01*
Y237549D01*
X373315Y234360D01*
X374966Y231500D01*
X377300Y229165D01*
X378944Y228217D01*
X379281Y226556D01*
X379118Y226340D01*
X372460D01*
Y201260D01*
X397540D01*
Y226340D01*
X390882D01*
X390719Y226556D01*
X391056Y228217D01*
X392700Y229165D01*
X395034Y231500D01*
X396685Y234360D01*
X397540Y237549D01*
Y240851D01*
X396685Y244040D01*
X395034Y246900D01*
X392700Y249235D01*
X389840Y250885D01*
X388507Y251243D01*
Y252557D01*
X389840Y252915D01*
X392700Y254566D01*
X395034Y256900D01*
X396685Y259760D01*
X397540Y262949D01*
Y266251D01*
X396685Y269440D01*
X395034Y272300D01*
X392700Y274634D01*
X389840Y276285D01*
X388507Y276643D01*
Y277957D01*
X389840Y278315D01*
X392700Y279965D01*
X395034Y282300D01*
X396685Y285160D01*
X397540Y288349D01*
Y291651D01*
X396685Y294840D01*
X395034Y297700D01*
X392700Y300035D01*
X389840Y301685D01*
X388507Y302043D01*
Y303357D01*
X389840Y303715D01*
X392700Y305366D01*
X395034Y307700D01*
X396685Y310560D01*
X397540Y313749D01*
Y317051D01*
X396685Y320240D01*
X395034Y323100D01*
X392700Y325434D01*
X389840Y327085D01*
X388507Y327443D01*
Y328757D01*
X389840Y329115D01*
X392700Y330765D01*
X395034Y333100D01*
X396685Y335960D01*
X397540Y339149D01*
Y339530D01*
D02*
G37*
G36*
X366730Y296730D02*
X363027D01*
X363693Y295122D01*
X365122Y293693D01*
X366730Y293027D01*
Y296730D01*
D02*
G37*
G36*
X367270Y281973D02*
Y278270D01*
X370973D01*
X370307Y279878D01*
X368878Y281307D01*
X367270Y281973D01*
D02*
G37*
G36*
X364730D02*
X363122Y281307D01*
X361693Y279878D01*
X361027Y278270D01*
X364730D01*
Y281973D01*
D02*
G37*
G36*
X46270D02*
Y278270D01*
X49973D01*
X49307Y279878D01*
X47878Y281307D01*
X46270Y281973D01*
D02*
G37*
G36*
X43730D02*
X42122Y281307D01*
X40693Y279878D01*
X40027Y278270D01*
X43730D01*
Y281973D01*
D02*
G37*
G36*
X305011Y287080D02*
X302990D01*
X301122Y286307D01*
X299693Y284878D01*
X298920Y283011D01*
Y280989D01*
X299693Y279122D01*
X301122Y277693D01*
X302990Y276920D01*
X305011D01*
X306878Y277693D01*
X308307Y279122D01*
X309080Y280989D01*
Y283011D01*
X308307Y284878D01*
X306878Y286307D01*
X305011Y287080D01*
D02*
G37*
G36*
X290011D02*
X287990D01*
X286122Y286307D01*
X284693Y284878D01*
X283920Y283011D01*
Y280989D01*
X284693Y279122D01*
X286122Y277693D01*
X287990Y276920D01*
X290011D01*
X291878Y277693D01*
X293307Y279122D01*
X294080Y280989D01*
Y283011D01*
X293307Y284878D01*
X291878Y286307D01*
X290011Y287080D01*
D02*
G37*
G36*
X196270Y278972D02*
Y275270D01*
X199972D01*
X199307Y276878D01*
X197878Y278307D01*
X196270Y278972D01*
D02*
G37*
G36*
X193730D02*
X192122Y278307D01*
X190693Y276878D01*
X190028Y275270D01*
X193730D01*
Y278972D01*
D02*
G37*
G36*
X151011Y283080D02*
X148989D01*
X147122Y282307D01*
X145693Y280878D01*
X144920Y279011D01*
Y276989D01*
X145693Y275122D01*
X147122Y273693D01*
X148989Y272920D01*
X151011D01*
X152878Y273693D01*
X154307Y275122D01*
X155080Y276989D01*
Y279011D01*
X154307Y280878D01*
X152878Y282307D01*
X151011Y283080D01*
D02*
G37*
G36*
X370973Y275730D02*
X367270D01*
Y272027D01*
X368878Y272693D01*
X370307Y274122D01*
X370973Y275730D01*
D02*
G37*
G36*
X364730D02*
X361027D01*
X361693Y274122D01*
X363122Y272693D01*
X364730Y272027D01*
Y275730D01*
D02*
G37*
G36*
X49973D02*
X46270D01*
Y272027D01*
X47878Y272693D01*
X49307Y274122D01*
X49973Y275730D01*
D02*
G37*
G36*
X43730D02*
X40027D01*
X40693Y274122D01*
X42122Y272693D01*
X43730Y272027D01*
Y275730D01*
D02*
G37*
G36*
X199972Y272730D02*
X196270D01*
Y269028D01*
X197878Y269693D01*
X199307Y271122D01*
X199972Y272730D01*
D02*
G37*
G36*
X193730D02*
X190028D01*
X190693Y271122D01*
X192122Y269693D01*
X193730Y269028D01*
Y272730D01*
D02*
G37*
G36*
X181010Y279080D02*
X178990D01*
X177122Y278307D01*
X175693Y276878D01*
X174920Y275011D01*
Y272990D01*
X175693Y271122D01*
X177122Y269693D01*
X178990Y268920D01*
X181010D01*
X182878Y269693D01*
X184307Y271122D01*
X185080Y272990D01*
Y275011D01*
X184307Y276878D01*
X182878Y278307D01*
X181010Y279080D01*
D02*
G37*
G36*
X325010Y270080D02*
X322990D01*
X321122Y269307D01*
X319693Y267878D01*
X318920Y266010D01*
Y263990D01*
X319693Y262122D01*
X321122Y260693D01*
X322990Y259920D01*
X325010D01*
X326878Y260693D01*
X328307Y262122D01*
X329080Y263990D01*
Y266010D01*
X328307Y267878D01*
X326878Y269307D01*
X325010Y270080D01*
D02*
G37*
G36*
X46270Y256973D02*
Y253270D01*
X49973D01*
X49307Y254878D01*
X47878Y256307D01*
X46270Y256973D01*
D02*
G37*
G36*
X43730D02*
X42122Y256307D01*
X40693Y254878D01*
X40027Y253270D01*
X43730D01*
Y256973D01*
D02*
G37*
G36*
X302730Y251973D02*
X301122Y251307D01*
X299693Y249878D01*
X299187Y248656D01*
X297813D01*
X297307Y249878D01*
X295878Y251307D01*
X294270Y251973D01*
Y247000D01*
Y242027D01*
X295878Y242693D01*
X297307Y244122D01*
X297813Y245344D01*
X299187D01*
X299693Y244122D01*
X301122Y242693D01*
X302730Y242027D01*
Y247000D01*
Y251973D01*
D02*
G37*
G36*
X305270D02*
Y248270D01*
X308972D01*
X308307Y249878D01*
X306878Y251307D01*
X305270Y251973D01*
D02*
G37*
G36*
X291730D02*
X290122Y251307D01*
X288693Y249878D01*
X288027Y248270D01*
X291730D01*
Y251973D01*
D02*
G37*
G36*
X49973Y250730D02*
X46270D01*
Y247027D01*
X47878Y247693D01*
X49307Y249122D01*
X49973Y250730D01*
D02*
G37*
G36*
X43730D02*
X40027D01*
X40693Y249122D01*
X42122Y247693D01*
X43730Y247027D01*
Y250730D01*
D02*
G37*
G36*
X249011Y261700D02*
X246990D01*
X245122Y260927D01*
X243693Y259498D01*
X242920Y257631D01*
Y255609D01*
X243693Y253742D01*
X244626Y252810D01*
X243693Y251878D01*
X242920Y250011D01*
Y247990D01*
X243693Y246122D01*
X245122Y244693D01*
X246990Y243920D01*
X249011D01*
X250878Y244693D01*
X252307Y246122D01*
X253080Y247990D01*
Y250011D01*
X252307Y251878D01*
X251374Y252810D01*
X252307Y253742D01*
X253080Y255609D01*
Y257631D01*
X252307Y259498D01*
X250878Y260927D01*
X249011Y261700D01*
D02*
G37*
G36*
X308972Y245730D02*
X305270D01*
Y242027D01*
X306878Y242693D01*
X308307Y244122D01*
X308972Y245730D01*
D02*
G37*
G36*
X291730D02*
X288027D01*
X288693Y244122D01*
X290122Y242693D01*
X291730Y242027D01*
Y245730D01*
D02*
G37*
G36*
X130730Y235972D02*
X129122Y235307D01*
X127693Y233878D01*
X127187Y232656D01*
X125813D01*
X125307Y233878D01*
X123878Y235307D01*
X122270Y235972D01*
Y231000D01*
Y226028D01*
X123878Y226693D01*
X125307Y228122D01*
X125813Y229344D01*
X127187D01*
X127693Y228122D01*
X129122Y226693D01*
X130730Y226028D01*
Y231000D01*
Y235972D01*
D02*
G37*
G36*
X133270D02*
Y232270D01*
X136973D01*
X136307Y233878D01*
X134878Y235307D01*
X133270Y235972D01*
D02*
G37*
G36*
X119730D02*
X118122Y235307D01*
X116693Y233878D01*
X116027Y232270D01*
X119730D01*
Y235972D01*
D02*
G37*
G36*
X206270Y234972D02*
Y231270D01*
X209972D01*
X209307Y232878D01*
X207878Y234307D01*
X206270Y234972D01*
D02*
G37*
G36*
X203730D02*
X202122Y234307D01*
X200693Y232878D01*
X200028Y231270D01*
X203730D01*
Y234972D01*
D02*
G37*
G36*
X46270Y233972D02*
Y230270D01*
X49973D01*
X49307Y231878D01*
X47878Y233307D01*
X46270Y233972D01*
D02*
G37*
G36*
X43730D02*
X42122Y233307D01*
X40693Y231878D01*
X40027Y230270D01*
X43730D01*
Y233972D01*
D02*
G37*
G36*
X317010Y238080D02*
X314989D01*
X313122Y237307D01*
X311693Y235878D01*
X310920Y234011D01*
Y231989D01*
X311693Y230122D01*
X313122Y228693D01*
X314989Y227920D01*
X317010D01*
X318878Y228693D01*
X320307Y230122D01*
X321080Y231989D01*
Y234011D01*
X320307Y235878D01*
X318878Y237307D01*
X317010Y238080D01*
D02*
G37*
G36*
X164065Y237085D02*
X162044D01*
X160177Y236312D01*
X158748Y234883D01*
X157975Y233016D01*
Y230995D01*
X158748Y229128D01*
X160177Y227699D01*
X162044Y226926D01*
X164065D01*
X165932Y227699D01*
X167361Y229128D01*
X168135Y230995D01*
Y233016D01*
X167361Y234883D01*
X165932Y236312D01*
X164065Y237085D01*
D02*
G37*
G36*
X306270Y229972D02*
Y226270D01*
X309972D01*
X309307Y227878D01*
X307878Y229307D01*
X306270Y229972D01*
D02*
G37*
G36*
X303730D02*
X302122Y229307D01*
X300693Y227878D01*
X300028Y226270D01*
X303730D01*
Y229972D01*
D02*
G37*
G36*
X119730Y229730D02*
X116027D01*
X116693Y228122D01*
X118122Y226693D01*
X119730Y226028D01*
Y229730D01*
D02*
G37*
G36*
X136973D02*
X133270D01*
Y226028D01*
X134878Y226693D01*
X136307Y228122D01*
X136973Y229730D01*
D02*
G37*
G36*
X209972Y228730D02*
X206270D01*
Y225028D01*
X207878Y225693D01*
X209307Y227122D01*
X209972Y228730D01*
D02*
G37*
G36*
X203730D02*
X200028D01*
X200693Y227122D01*
X202122Y225693D01*
X203730Y225028D01*
Y228730D01*
D02*
G37*
G36*
X49973Y227730D02*
X46270D01*
Y224028D01*
X47878Y224693D01*
X49307Y226122D01*
X49973Y227730D01*
D02*
G37*
G36*
X43730D02*
X40027D01*
X40693Y226122D01*
X42122Y224693D01*
X43730Y224028D01*
Y227730D01*
D02*
G37*
G36*
X309972Y223730D02*
X306270D01*
Y220028D01*
X307878Y220693D01*
X309307Y222122D01*
X309972Y223730D01*
D02*
G37*
G36*
X303730D02*
X300028D01*
X300693Y222122D01*
X302122Y220693D01*
X303730Y220028D01*
Y223730D01*
D02*
G37*
G36*
X317010Y222080D02*
X314989D01*
X313122Y221307D01*
X311693Y219878D01*
X310920Y218011D01*
Y215989D01*
X311693Y214122D01*
X313122Y212693D01*
X314989Y211920D01*
X317010D01*
X318878Y212693D01*
X320307Y214122D01*
X321080Y215989D01*
Y218011D01*
X320307Y219878D01*
X318878Y221307D01*
X317010Y222080D01*
D02*
G37*
G36*
X331011Y213080D02*
X328989D01*
X327122Y212307D01*
X325693Y210878D01*
X324920Y209011D01*
Y206989D01*
X325693Y205122D01*
X327122Y203693D01*
X328989Y202920D01*
X331011D01*
X332878Y203693D01*
X334307Y205122D01*
X335080Y206989D01*
Y209011D01*
X334307Y210878D01*
X332878Y212307D01*
X331011Y213080D01*
D02*
G37*
G36*
X133011Y199080D02*
X130990D01*
X129122Y198307D01*
X127693Y196878D01*
X126920Y195011D01*
Y192990D01*
X127693Y191122D01*
X129122Y189693D01*
X130990Y188920D01*
X133011D01*
X134878Y189693D01*
X136307Y191122D01*
X137080Y192990D01*
Y195011D01*
X136307Y196878D01*
X134878Y198307D01*
X133011Y199080D01*
D02*
G37*
G36*
X118011D02*
X115990D01*
X114122Y198307D01*
X112693Y196878D01*
X111920Y195011D01*
Y192990D01*
X112693Y191122D01*
X114122Y189693D01*
X115990Y188920D01*
X118011D01*
X119878Y189693D01*
X121307Y191122D01*
X122080Y192990D01*
Y195011D01*
X121307Y196878D01*
X119878Y198307D01*
X118011Y199080D01*
D02*
G37*
G36*
X306010Y195080D02*
X303990D01*
X302122Y194307D01*
X300693Y192878D01*
X299920Y191010D01*
Y188990D01*
X300693Y187122D01*
X302122Y185693D01*
X303990Y184920D01*
X306010D01*
X307878Y185693D01*
X309307Y187122D01*
X310080Y188990D01*
Y191010D01*
X309307Y192878D01*
X307878Y194307D01*
X306010Y195080D01*
D02*
G37*
G36*
X226010D02*
X223990D01*
X222122Y194307D01*
X220693Y192878D01*
X219920Y191010D01*
Y188990D01*
X220693Y187122D01*
X222122Y185693D01*
X223990Y184920D01*
X226010D01*
X227878Y185693D01*
X229307Y187122D01*
X230080Y188990D01*
Y191010D01*
X229307Y192878D01*
X227878Y194307D01*
X226010Y195080D01*
D02*
G37*
G36*
X236270Y152972D02*
Y149270D01*
X239972D01*
X239307Y150878D01*
X237878Y152307D01*
X236270Y152972D01*
D02*
G37*
G36*
X233730D02*
X232122Y152307D01*
X230693Y150878D01*
X230028Y149270D01*
X233730D01*
Y152972D01*
D02*
G37*
G36*
X171270D02*
Y149270D01*
X174972D01*
X174307Y150878D01*
X172878Y152307D01*
X171270Y152972D01*
D02*
G37*
G36*
X168730D02*
X167122Y152307D01*
X165693Y150878D01*
X165028Y149270D01*
X168730D01*
Y152972D01*
D02*
G37*
G36*
X209820Y145080D02*
X207799D01*
X205932Y144307D01*
X205000Y143374D01*
X204068Y144307D01*
X202201Y145080D01*
X200180D01*
X198312Y144307D01*
X196883Y142878D01*
X196110Y141011D01*
Y138990D01*
X196883Y137122D01*
X198312Y135693D01*
X200180Y134920D01*
X202201D01*
X204068Y135693D01*
X205000Y136626D01*
X205932Y135693D01*
X207799Y134920D01*
X209820D01*
X211688Y135693D01*
X213117Y137122D01*
X213890Y138990D01*
Y141011D01*
X213117Y142878D01*
X211688Y144307D01*
X209820Y145080D01*
D02*
G37*
G36*
X239972Y146730D02*
X236270D01*
Y143027D01*
X237878Y143693D01*
X239307Y145122D01*
X239972Y146730D01*
D02*
G37*
G36*
X233730D02*
X230028D01*
X230693Y145122D01*
X232122Y143693D01*
X233730Y143027D01*
Y146730D01*
D02*
G37*
G36*
X174972D02*
X171270D01*
Y143027D01*
X172878Y143693D01*
X174307Y145122D01*
X174972Y146730D01*
D02*
G37*
G36*
X168730D02*
X165028D01*
X165693Y145122D01*
X167122Y143693D01*
X168730Y143027D01*
Y146730D01*
D02*
G37*
G36*
X251010Y153080D02*
X248990D01*
X247122Y152307D01*
X245693Y150878D01*
X244920Y149010D01*
Y146989D01*
X245693Y145122D01*
X247122Y143693D01*
X248990Y142920D01*
X251010D01*
X252878Y143693D01*
X254307Y145122D01*
X255080Y146989D01*
Y149010D01*
X254307Y150878D01*
X252878Y152307D01*
X251010Y153080D01*
D02*
G37*
G36*
X186010D02*
X183990D01*
X182122Y152307D01*
X180693Y150878D01*
X179920Y149010D01*
Y146989D01*
X180693Y145122D01*
X182122Y143693D01*
X183990Y142920D01*
X186010D01*
X187878Y143693D01*
X189307Y145122D01*
X190080Y146989D01*
Y149010D01*
X189307Y150878D01*
X187878Y152307D01*
X186010Y153080D01*
D02*
G37*
G36*
X107270Y142972D02*
Y139270D01*
X110972D01*
X110307Y140878D01*
X108878Y142307D01*
X107270Y142972D01*
D02*
G37*
G36*
X104730D02*
X103122Y142307D01*
X101693Y140878D01*
X101027Y139270D01*
X104730D01*
Y142972D01*
D02*
G37*
G36*
X320270Y137972D02*
Y134270D01*
X323973D01*
X323307Y135878D01*
X321878Y137307D01*
X320270Y137972D01*
D02*
G37*
G36*
X317730D02*
X316122Y137307D01*
X314693Y135878D01*
X314028Y134270D01*
X317730D01*
Y137972D01*
D02*
G37*
G36*
X110972Y136730D02*
X107270D01*
Y133027D01*
X108878Y133693D01*
X110307Y135122D01*
X110972Y136730D01*
D02*
G37*
G36*
X104730D02*
X101027D01*
X101693Y135122D01*
X103122Y133693D01*
X104730Y133027D01*
Y136730D01*
D02*
G37*
G36*
X273011Y140080D02*
X270989D01*
X269122Y139307D01*
X267693Y137878D01*
X266920Y136011D01*
Y133989D01*
X267693Y132122D01*
X269122Y130693D01*
X270989Y129920D01*
X273011D01*
X274878Y130693D01*
X276307Y132122D01*
X277080Y133989D01*
Y136011D01*
X276307Y137878D01*
X274878Y139307D01*
X273011Y140080D01*
D02*
G37*
G36*
X78270Y132972D02*
Y129270D01*
X81973D01*
X81307Y130878D01*
X79878Y132307D01*
X78270Y132972D01*
D02*
G37*
G36*
X75730D02*
X74122Y132307D01*
X72693Y130878D01*
X72028Y129270D01*
X75730D01*
Y132972D01*
D02*
G37*
G36*
X323973Y131730D02*
X320270D01*
Y128027D01*
X321878Y128693D01*
X323307Y130122D01*
X323973Y131730D01*
D02*
G37*
G36*
X317730D02*
X314028D01*
X314693Y130122D01*
X316122Y128693D01*
X317730Y128027D01*
Y131730D01*
D02*
G37*
G36*
X81973Y126730D02*
X78270D01*
Y123027D01*
X79878Y123693D01*
X81307Y125122D01*
X81973Y126730D01*
D02*
G37*
G36*
X75730D02*
X72028D01*
X72693Y125122D01*
X74122Y123693D01*
X75730Y123027D01*
Y126730D01*
D02*
G37*
G36*
X128011Y133080D02*
X125990D01*
X124122Y132307D01*
X122693Y130878D01*
X121920Y129010D01*
Y126989D01*
X122693Y125122D01*
X124122Y123693D01*
X125990Y122920D01*
X128011D01*
X129878Y123693D01*
X131307Y125122D01*
X132080Y126989D01*
Y129010D01*
X131307Y130878D01*
X129878Y132307D01*
X128011Y133080D01*
D02*
G37*
G36*
X183270Y117972D02*
Y114270D01*
X186973D01*
X186307Y115878D01*
X184878Y117307D01*
X183270Y117972D01*
D02*
G37*
G36*
X180730D02*
X179122Y117307D01*
X177693Y115878D01*
X177027Y114270D01*
X180730D01*
Y117972D01*
D02*
G37*
G36*
X206010Y122080D02*
X203990D01*
X202122Y121307D01*
X200693Y119878D01*
X199920Y118011D01*
Y115990D01*
X200693Y114122D01*
X202122Y112693D01*
X203990Y111920D01*
X206010D01*
X207878Y112693D01*
X209307Y114122D01*
X210080Y115990D01*
Y118011D01*
X209307Y119878D01*
X207878Y121307D01*
X206010Y122080D01*
D02*
G37*
G36*
X186973Y111730D02*
X183270D01*
Y108027D01*
X184878Y108693D01*
X186307Y110122D01*
X186973Y111730D01*
D02*
G37*
G36*
X180730D02*
X177027D01*
X177693Y110122D01*
X179122Y108693D01*
X180730Y108027D01*
Y111730D01*
D02*
G37*
G36*
X320270Y100972D02*
Y97270D01*
X323973D01*
X323307Y98878D01*
X321878Y100307D01*
X320270Y100972D01*
D02*
G37*
G36*
X317730D02*
X316122Y100307D01*
X314693Y98878D01*
X314028Y97270D01*
X317730D01*
Y100972D01*
D02*
G37*
G36*
X323973Y94730D02*
X320270D01*
Y91027D01*
X321878Y91693D01*
X323307Y93122D01*
X323973Y94730D01*
D02*
G37*
G36*
X317730D02*
X314028D01*
X314693Y93122D01*
X316122Y91693D01*
X317730Y91027D01*
Y94730D01*
D02*
G37*
G36*
X217440Y90085D02*
X215419D01*
X213552Y89311D01*
X212577Y88337D01*
X211688Y89227D01*
X209820Y90000D01*
X207799D01*
X205932Y89227D01*
X205000Y88294D01*
X204068Y89227D01*
X202201Y90000D01*
X200180D01*
X198312Y89227D01*
X197380Y88294D01*
X196448Y89227D01*
X194580Y90000D01*
X192560D01*
X190692Y89227D01*
X189263Y87798D01*
X188490Y85931D01*
Y83910D01*
X189263Y82042D01*
X190692Y80613D01*
X192560Y79840D01*
X194580D01*
X196448Y80613D01*
X197380Y81546D01*
X198312Y80613D01*
X200180Y79840D01*
X202201D01*
X204068Y80613D01*
X205000Y81546D01*
X205932Y80613D01*
X207799Y79840D01*
X209820D01*
X211688Y80613D01*
X212662Y81588D01*
X213552Y80698D01*
X215419Y79925D01*
X217440D01*
X219307Y80698D01*
X220736Y82127D01*
X221509Y83994D01*
Y86015D01*
X220736Y87882D01*
X219307Y89311D01*
X217440Y90085D01*
D02*
G37*
G36*
X230011Y83080D02*
X227990D01*
X226122Y82307D01*
X224693Y80878D01*
X223920Y79011D01*
Y76989D01*
X224693Y75122D01*
X226122Y73693D01*
X227990Y72920D01*
X230011D01*
X231878Y73693D01*
X233307Y75122D01*
X234080Y76989D01*
Y79011D01*
X233307Y80878D01*
X231878Y82307D01*
X230011Y83080D01*
D02*
G37*
G36*
X182010D02*
X179989D01*
X178122Y82307D01*
X176693Y80878D01*
X175920Y79011D01*
Y76989D01*
X176693Y75122D01*
X178122Y73693D01*
X179989Y72920D01*
X182010D01*
X183878Y73693D01*
X185307Y75122D01*
X186080Y76989D01*
Y79011D01*
X185307Y80878D01*
X183878Y82307D01*
X182010Y83080D01*
D02*
G37*
G36*
X249520Y76234D02*
Y65070D01*
X255351D01*
Y69300D01*
X255109Y71138D01*
X254399Y72850D01*
X253271Y74321D01*
X251800Y75450D01*
X250088Y76159D01*
X249520Y76234D01*
D02*
G37*
G36*
X163020D02*
Y65070D01*
X168851D01*
Y69300D01*
X168609Y71138D01*
X167899Y72850D01*
X166771Y74321D01*
X165300Y75450D01*
X163588Y76159D01*
X163020Y76234D01*
D02*
G37*
G36*
X246980D02*
X246412Y76159D01*
X244700Y75450D01*
X243229Y74321D01*
X242101Y72850D01*
X241391Y71138D01*
X241149Y69300D01*
Y65070D01*
X246980D01*
Y76234D01*
D02*
G37*
G36*
X160480D02*
X159912Y76159D01*
X158200Y75450D01*
X156729Y74321D01*
X155601Y72850D01*
X154891Y71138D01*
X154649Y69300D01*
Y65070D01*
X160480D01*
Y76234D01*
D02*
G37*
G36*
X255351Y62530D02*
X249520D01*
Y51367D01*
X250088Y51441D01*
X251800Y52151D01*
X253271Y53279D01*
X254399Y54750D01*
X255109Y56462D01*
X255351Y58300D01*
Y62530D01*
D02*
G37*
G36*
X168851D02*
X163020D01*
Y51367D01*
X163588Y51441D01*
X165300Y52151D01*
X166771Y53279D01*
X167899Y54750D01*
X168609Y56462D01*
X168851Y58300D01*
Y62530D01*
D02*
G37*
G36*
X246980D02*
X241149D01*
Y58300D01*
X241391Y56462D01*
X242101Y54750D01*
X243229Y53279D01*
X244700Y52151D01*
X246412Y51441D01*
X246980Y51367D01*
Y62530D01*
D02*
G37*
G36*
X160480D02*
X154649D01*
Y58300D01*
X154891Y56462D01*
X155601Y54750D01*
X156729Y53279D01*
X158200Y52151D01*
X159912Y51441D01*
X160480Y51367D01*
Y62530D01*
D02*
G37*
G36*
X249520Y32933D02*
Y23270D01*
X255351D01*
Y26000D01*
X255109Y27838D01*
X254399Y29550D01*
X253271Y31021D01*
X251800Y32149D01*
X250088Y32859D01*
X249520Y32933D01*
D02*
G37*
G36*
X163020D02*
Y23270D01*
X168851D01*
Y26000D01*
X168609Y27838D01*
X167899Y29550D01*
X166771Y31021D01*
X165300Y32149D01*
X163588Y32859D01*
X163020Y32933D01*
D02*
G37*
G36*
X246980D02*
X246412Y32859D01*
X244700Y32149D01*
X243229Y31021D01*
X242101Y29550D01*
X241391Y27838D01*
X241149Y26000D01*
Y23270D01*
X246980D01*
Y32933D01*
D02*
G37*
G36*
X160480D02*
X159912Y32859D01*
X158200Y32149D01*
X156729Y31021D01*
X155601Y29550D01*
X154891Y27838D01*
X154649Y26000D01*
Y23270D01*
X160480D01*
Y32933D01*
D02*
G37*
G36*
X255351Y20730D02*
X249520D01*
Y11066D01*
X250088Y11141D01*
X251800Y11851D01*
X253271Y12979D01*
X254399Y14450D01*
X255109Y16162D01*
X255351Y18000D01*
Y20730D01*
D02*
G37*
G36*
X168851D02*
X163020D01*
Y11066D01*
X163588Y11141D01*
X165300Y11851D01*
X166771Y12979D01*
X167899Y14450D01*
X168609Y16162D01*
X168851Y18000D01*
Y20730D01*
D02*
G37*
G36*
X246980D02*
X241149D01*
Y18000D01*
X241391Y16162D01*
X242101Y14450D01*
X243229Y12979D01*
X244700Y11851D01*
X246412Y11141D01*
X246980Y11066D01*
Y20730D01*
D02*
G37*
G36*
X160480D02*
X154649D01*
Y18000D01*
X154891Y16162D01*
X155601Y14450D01*
X156729Y12979D01*
X158200Y11851D01*
X159912Y11141D01*
X160480Y11066D01*
Y20730D01*
D02*
G37*
%LPD*%
G54D42*
X141500Y439000D02*
D03*
X166900D02*
D03*
X192300D02*
D03*
X217700D02*
D03*
X243100D02*
D03*
X268500D02*
D03*
X293900D02*
D03*
X385000Y239200D02*
D03*
Y264600D02*
D03*
Y315400D02*
D03*
Y340800D02*
D03*
Y290000D02*
D03*
G54D43*
X116100Y439000D02*
D03*
G54D44*
X161750Y63800D02*
D03*
X248250D02*
D03*
G54D45*
X161750Y22000D02*
D03*
X248250D02*
D03*
G54D46*
X385000Y213800D02*
D03*
G54D47*
X106000Y138000D02*
D03*
X182000Y113000D02*
D03*
X205000Y117000D02*
D03*
X248000Y249000D02*
D03*
Y256620D02*
D03*
X208810Y140000D02*
D03*
X201190D02*
D03*
X193570Y84920D02*
D03*
X201190D02*
D03*
X366000Y277000D02*
D03*
X200000Y380000D02*
D03*
X181000Y78000D02*
D03*
X229000D02*
D03*
X272000Y135000D02*
D03*
X208810Y84920D02*
D03*
X216430Y85005D02*
D03*
X319000Y96000D02*
D03*
Y133000D02*
D03*
X297580Y360000D02*
D03*
X368000Y306270D02*
D03*
X45000Y229000D02*
D03*
Y303000D02*
D03*
Y277000D02*
D03*
Y252000D02*
D03*
X368000Y298000D02*
D03*
X345000Y324000D02*
D03*
X358000D02*
D03*
X77000Y128000D02*
D03*
X284000Y360000D02*
D03*
X175000Y316920D02*
D03*
X147000Y307000D02*
D03*
X245000Y333000D02*
D03*
X152000D02*
D03*
X112000Y365600D02*
D03*
X225000Y190000D02*
D03*
X180000Y274000D02*
D03*
X127000Y128000D02*
D03*
X163055Y232006D02*
D03*
X150000Y278000D02*
D03*
X112000Y381000D02*
D03*
X121000Y231000D02*
D03*
X132000D02*
D03*
Y194000D02*
D03*
X305000Y225000D02*
D03*
X293000Y247000D02*
D03*
X304000D02*
D03*
X294000Y404000D02*
D03*
X324000Y265000D02*
D03*
X368000Y354000D02*
D03*
X342000D02*
D03*
X205000Y230000D02*
D03*
X195000Y274000D02*
D03*
X200000Y365000D02*
D03*
X235000Y148000D02*
D03*
X250000D02*
D03*
X305000Y190000D02*
D03*
X330000Y208000D02*
D03*
X316000Y217000D02*
D03*
Y233000D02*
D03*
X336000Y306000D02*
D03*
X332000Y350000D02*
D03*
X289000Y282000D02*
D03*
X304000D02*
D03*
X170000Y148000D02*
D03*
X185000D02*
D03*
X218000Y418000D02*
D03*
X192000D02*
D03*
X117000Y194000D02*
D03*
M02*
